if (_typeface_js && _typeface_js.loadFace) _typeface_js.loadFace({"glyphs":{"0":{"ha":833,"x_min":0,"x_max":0,"o":"m 417 126 b 563 483 508 126 563 203 b 417 847 563 764 508 847 b 271 483 325 847 271 764 b 417 126 271 203 325 126 m 417 -21 b 47 483 192 -21 47 132 b 417 993 47 844 189 993 b 786 483 644 993 786 844 b 417 -21 786 132 642 -21 "},"1":{"ha":833,"x_min":0,"x_max":0,"o":"m 360 772 l 138 658 l 138 854 l 361 972 l 576 972 l 576 0 l 360 0 "},"2":{"ha":833,"x_min":0,"x_max":0,"o":"m 61 706 b 435 993 88 893 257 993 b 769 715 628 993 769 881 b 508 307 769 563 700 493 l 374 176 l 763 176 l 763 0 l 89 0 l 89 176 l 324 407 b 549 715 493 575 549 628 b 428 832 549 789 501 832 b 288 706 364 832 307 792 "},"3":{"ha":833,"x_min":0,"x_max":0,"o":"m 400 136 b 539 278 481 136 539 185 b 371 438 539 388 476 438 l 286 438 l 286 586 l 382 586 b 521 719 454 586 521 635 b 406 838 521 794 469 838 b 282 742 338 838 296 806 l 71 742 b 418 993 94 894 226 993 b 740 738 590 993 740 914 b 539 522 740 631 651 540 b 763 282 661 508 763 406 b 403 -21 763 100 619 -21 b 49 249 199 -21 63 96 l 264 249 b 400 136 274 182 319 136 "},"4":{"ha":833,"x_min":0,"x_max":0,"o":"m 683 972 l 683 343 l 793 343 l 793 183 l 683 183 l 683 0 l 478 0 l 478 183 l 57 183 l 57 367 l 465 972 m 478 343 l 478 682 l 258 343 "},"5":{"ha":833,"x_min":0,"x_max":0,"o":"m 274 250 b 407 136 290 172 338 136 b 553 322 489 136 553 196 b 404 506 553 450 497 506 b 272 446 361 506 308 483 l 101 446 l 126 972 l 707 972 l 707 819 l 321 819 l 308 601 b 472 647 356 631 411 647 b 776 331 649 647 776 532 b 403 -21 776 111 611 -21 b 63 250 219 -21 89 76 "},"6":{"ha":833,"x_min":0,"x_max":0,"o":"m 483 664 b 785 339 665 664 785 546 b 425 -21 785 133 646 -21 b 50 454 193 -21 50 142 b 439 993 50 890 250 993 b 772 781 611 993 729 915 l 538 781 b 438 847 522 825 489 847 b 269 556 360 847 289 786 b 483 664 313 615 389 664 m 279 321 b 419 132 279 251 308 132 b 567 325 507 132 567 213 b 429 511 567 450 518 511 b 279 321 332 511 279 425 "},"7":{"ha":833,"x_min":0,"x_max":0,"o":"m 397 0 l 169 0 l 544 808 l 83 808 l 83 972 l 757 972 l 757 803 "},"8":{"ha":833,"x_min":0,"x_max":0,"o":"m 760 746 b 601 518 760 631 683 561 b 785 267 692 469 785 396 b 419 -21 785 96 654 -21 b 49 258 185 -21 49 93 b 226 506 49 389 111 456 b 72 732 138 554 72 610 b 419 993 72 924 240 993 b 760 746 568 993 760 936 m 556 267 b 389 438 556 379 464 414 b 278 267 332 410 278 364 b 415 131 278 167 356 131 b 556 267 475 131 556 167 m 285 739 b 433 585 285 642 369 604 b 547 739 494 615 547 664 b 419 857 547 831 465 857 b 285 739 374 857 285 839 "},"9":{"ha":833,"x_min":0,"x_max":0,"o":"m 363 308 b 47 650 149 308 47 447 b 410 993 47 874 225 993 b 783 518 635 993 783 854 b 403 -21 783 96 600 -21 b 60 213 222 -21 99 69 l 294 213 b 404 125 307 154 346 125 b 563 410 481 125 543 183 b 363 308 522 353 453 308 m 554 651 b 414 840 554 739 525 840 b 265 657 308 840 265 754 b 408 461 265 529 315 461 b 554 651 508 461 554 544 "},"\u0000":{"ha":0,"x_min":0,"x_max":0,"o":""},"\r":{"ha":361,"x_min":0,"x_max":0,"o":""}," ":{"ha":361,"x_min":0,"x_max":0,"o":""},"!":{"ha":431,"x_min":0,"x_max":0,"o":"m 113 333 l 78 1021 l 353 1021 l 318 333 m 92 0 l 92 218 l 338 218 l 338 0 "},"\"":{"ha":833,"x_min":0,"x_max":0,"o":"m 264 681 l 125 681 l 104 893 l 104 1021 l 285 1021 l 285 893 m 514 681 l 375 681 l 354 893 l 354 1021 l 535 1021 l 535 893 "},"#":{"ha":833,"x_min":0,"x_max":0,"o":"m 83 750 l 181 750 l 200 972 l 379 972 l 360 750 l 519 750 l 539 972 l 718 972 l 699 750 l 778 750 l 778 597 l 685 597 l 665 375 l 750 375 l 750 222 l 653 222 l 633 0 l 454 0 l 474 222 l 314 222 l 294 0 l 115 0 l 135 222 l 56 222 l 56 375 l 147 375 l 167 597 l 83 597 m 326 375 l 486 375 l 506 597 l 346 597 "},"$":{"ha":833,"x_min":0,"x_max":0,"o":"m 833 283 b 504 -18 833 140 747 6 l 504 -187 l 325 -187 l 325 -15 b 0 293 82 18 17 176 l 221 293 b 425 140 236 206 293 140 b 599 250 525 140 599 168 b 361 407 599 347 526 371 b 36 704 194 443 36 494 b 325 986 36 863 132 963 l 325 1153 l 504 1153 l 504 989 b 807 715 724 963 789 832 l 589 715 b 418 833 574 803 501 833 b 271 732 336 833 271 814 b 460 608 271 654 321 639 b 833 283 651 567 833 503 "},"%":{"ha":1110,"x_min":0,"x_max":0,"o":"m 404 0 l 232 0 l 707 972 l 879 972 m 514 758 b 271 524 514 615 426 524 b 28 758 115 524 28 615 b 271 993 28 901 115 993 b 514 758 426 993 514 901 m 367 758 b 271 885 367 843 332 885 b 175 758 210 885 175 843 b 271 632 175 674 210 632 b 367 758 332 632 367 674 m 1082 213 b 839 -22 1082 69 994 -22 b 596 213 683 -22 596 69 b 839 447 596 356 683 447 b 1082 213 994 447 1082 356 m 935 213 b 839 339 935 297 900 339 b 743 213 778 339 743 297 b 839 86 743 128 778 86 b 935 213 900 86 935 128 "},"&":{"ha":951,"x_min":0,"x_max":0,"o":"m 896 465 b 819 219 886 385 861 297 l 938 108 l 797 -21 l 701 69 b 429 -21 635 14 535 -21 b 56 243 168 -21 56 93 b 233 504 56 364 122 431 b 97 756 143 582 97 653 b 403 993 97 868 181 993 b 703 769 624 993 703 875 b 514 494 703 643 625 569 l 667 364 b 693 492 679 406 688 449 m 439 136 b 576 189 489 136 543 156 l 365 376 b 292 258 310 331 292 300 b 439 136 292 176 356 136 m 306 756 b 388 618 306 708 325 672 b 499 765 476 682 499 717 b 404 857 499 825 464 857 b 306 756 336 857 306 818 "},"'":{"ha":375,"x_min":0,"x_max":0,"o":"m 257 681 l 118 681 l 97 893 l 97 1021 l 278 1021 l 278 893 "},"(":{"ha":472,"x_min":0,"x_max":0,"o":"m 253 444 b 451 -236 253 231 311 18 l 268 -236 b 49 444 168 -90 49 161 b 268 1125 49 728 168 979 l 451 1125 b 253 444 311 871 253 658 "},")":{"ha":472,"x_min":0,"x_max":0,"o":"m 219 444 b 21 1125 219 658 161 871 l 204 1125 b 424 444 304 979 424 728 b 204 -236 424 161 304 -90 l 21 -236 b 219 444 161 18 219 231 "},"*":{"ha":653,"x_min":0,"x_max":0,"o":"m 325 660 l 256 494 l 100 608 l 228 731 l 47 744 l 108 928 l 264 844 l 222 1021 l 414 1021 l 382 842 l 542 928 l 603 744 l 421 731 l 550 608 l 394 494 "},"+":{"ha":833,"x_min":0,"x_max":0,"o":"m 506 753 l 506 533 l 722 533 l 722 363 l 506 363 l 506 142 l 326 142 l 326 363 l 111 363 l 111 533 l 326 533 l 326 753 "},",":{"ha":375,"x_min":0,"x_max":0,"o":"m 324 42 b 50 -254 324 -172 169 -242 l 50 -146 b 165 0 119 -131 165 -83 l 78 0 l 78 218 l 324 218 "},"-":{"ha":750,"x_min":0,"x_max":0,"o":"m 639 363 l 111 363 l 111 533 l 639 533 "},".":{"ha":401,"x_min":0,"x_max":0,"o":"m 78 0 l 78 218 l 324 218 l 324 0 "},"/":{"ha":472,"x_min":0,"x_max":0,"o":"m 192 -125 l 0 -125 l 281 1021 l 472 1021 "},":":{"ha":401,"x_min":0,"x_max":0,"o":"m 78 0 l 78 218 l 324 218 l 324 0 m 78 504 l 78 722 l 324 722 l 324 504 "},";":{"ha":401,"x_min":0,"x_max":0,"o":"m 78 504 l 78 722 l 324 722 l 324 504 m 324 42 b 50 -254 324 -172 169 -242 l 50 -146 b 165 0 119 -131 165 -83 l 78 0 l 78 218 l 324 218 "},"<":{"ha":833,"x_min":0,"x_max":0,"o":"m 111 531 l 722 822 l 722 617 l 331 454 l 331 444 l 722 282 l 722 76 l 111 368 "},"=":{"ha":833,"x_min":0,"x_max":0,"o":"m 722 504 l 111 504 l 111 675 l 722 675 m 722 219 l 111 219 l 111 390 l 722 390 "},">":{"ha":833,"x_min":0,"x_max":0,"o":"m 722 368 l 111 76 l 111 282 l 503 444 l 503 454 l 111 617 l 111 822 l 722 531 "},"?":{"ha":761,"x_min":0,"x_max":0,"o":"m 64 743 b 403 1021 72 896 215 1021 b 714 785 603 1021 714 924 b 550 468 714 672 675 621 b 510 319 514 424 510 375 l 292 319 b 375 585 292 443 296 486 b 481 772 468 700 481 725 b 400 858 481 829 451 858 b 299 743 350 858 314 822 m 279 0 l 279 218 l 525 218 l 525 0 "},"@":{"ha":1271,"x_min":0,"x_max":0,"o":"m 914 132 b 758 253 824 132 765 190 b 565 146 736 207 663 146 b 344 410 414 146 344 264 b 639 768 344 633 486 768 b 751 708 690 768 738 743 l 776 758 l 918 758 l 871 392 b 864 324 867 363 864 335 b 911 261 864 271 883 261 b 1025 549 990 261 1025 375 b 664 881 1025 764 914 881 b 246 436 479 881 246 775 b 665 17 246 124 446 17 b 885 54 763 17 826 36 l 922 -82 b 654 -126 865 -103 778 -126 b 56 438 353 -126 56 60 b 664 1021 56 869 385 1021 b 1215 550 976 1021 1215 853 b 914 132 1215 286 1082 132 m 601 276 b 697 408 644 276 685 315 l 710 506 b 713 553 713 524 713 535 b 650 640 713 594 701 640 b 528 388 578 640 528 560 b 601 276 528 335 540 276 "},"A":{"ha":974,"x_min":0,"x_max":0,"o":"m 728 0 l 657 229 l 301 229 l 231 0 l 0 0 l 356 1000 l 615 1000 l 974 0 m 349 382 l 611 382 l 481 808 "},"B":{"ha":899,"x_min":0,"x_max":0,"o":"m 417 1000 b 818 735 700 1000 818 914 b 636 529 818 626 732 556 b 857 289 769 503 857 421 b 442 0 857 96 739 0 l 83 0 l 83 1000 m 317 450 l 317 153 l 451 153 b 619 296 572 153 619 196 b 458 450 619 396 561 450 m 317 847 l 317 594 l 438 594 b 585 728 529 594 585 639 b 433 847 585 807 524 847 "},"C":{"ha":1029,"x_min":0,"x_max":0,"o":"m 525 143 b 743 368 656 143 732 211 l 981 368 b 521 -21 950 113 790 -21 b 56 503 254 -21 56 154 b 532 1021 56 842 240 1021 b 974 674 764 1021 938 899 l 740 674 b 532 858 714 799 639 858 b 299 503 393 858 299 754 b 525 143 299 239 401 143 "},"D":{"ha":1013,"x_min":0,"x_max":0,"o":"m 458 1000 b 957 500 782 1000 957 842 b 461 0 957 150 774 0 l 83 0 l 83 1000 m 317 839 l 317 163 l 461 163 b 722 500 622 163 722 264 b 458 839 722 736 619 839 "},"E":{"ha":807,"x_min":0,"x_max":0,"o":"m 718 424 l 317 424 l 317 168 l 758 168 l 758 0 l 83 0 l 83 1000 l 758 1000 l 758 829 l 317 829 l 317 585 l 718 585 "},"F":{"ha":760,"x_min":0,"x_max":0,"o":"m 675 404 l 317 404 l 317 0 l 83 0 l 83 1000 l 718 1000 l 718 832 l 317 832 l 317 565 l 675 565 "},"G":{"ha":1040,"x_min":0,"x_max":0,"o":"m 971 0 l 821 0 l 788 93 b 500 -21 728 26 632 -21 b 56 504 258 -21 56 146 b 543 1021 56 844 249 1021 b 971 714 768 1021 931 907 l 739 714 b 543 858 713 813 642 858 b 299 504 403 858 299 760 b 544 143 299 249 406 143 b 769 335 674 143 769 222 l 769 406 l 533 406 l 533 557 l 971 557 "},"H":{"ha":1004,"x_min":0,"x_max":0,"o":"m 921 1000 l 921 0 l 689 0 l 689 422 l 317 422 l 317 0 l 83 0 l 83 1000 l 317 1000 l 317 589 l 689 589 l 689 1000 "},"I":{"ha":400,"x_min":0,"x_max":0,"o":"m 317 1000 l 317 0 l 83 0 l 83 1000 "},"J":{"ha":785,"x_min":0,"x_max":0,"o":"m 250 296 b 371 144 256 182 317 144 b 485 301 431 144 485 178 l 485 1000 l 708 1000 l 708 317 b 376 -21 708 110 601 -21 b 28 296 211 -21 50 61 "},"K":{"ha":994,"x_min":0,"x_max":0,"o":"m 689 0 l 317 436 l 317 0 l 83 0 l 83 1000 l 317 1000 l 317 581 l 669 1000 l 942 1000 l 524 532 l 994 0 "},"L":{"ha":831,"x_min":0,"x_max":0,"o":"m 317 1000 l 317 175 l 803 175 l 803 0 l 83 0 l 83 1000 "},"M":{"ha":1240,"x_min":0,"x_max":0,"o":"m 521 0 l 281 688 l 281 0 l 83 0 l 83 1000 l 350 1000 l 621 219 l 883 1000 l 1157 1000 l 1157 0 l 946 0 l 946 689 l 711 0 "},"N":{"ha":1001,"x_min":0,"x_max":0,"o":"m 918 1000 l 918 0 l 678 0 l 283 710 l 283 0 l 83 0 l 83 1000 l 342 1000 l 719 317 l 719 1000 "},"O":{"ha":1089,"x_min":0,"x_max":0,"o":"m 544 144 b 797 500 672 144 797 229 b 544 857 797 771 669 857 b 292 499 415 857 292 769 b 544 144 292 228 421 144 m 544 -21 b 56 499 300 -21 56 111 b 544 1021 56 879 299 1021 b 1033 500 790 1021 1033 888 b 544 -21 1033 119 789 -21 "},"P":{"ha":925,"x_min":0,"x_max":0,"o":"m 444 1000 b 876 667 749 1000 876 892 b 453 335 876 438 736 335 l 317 335 l 317 0 l 83 0 l 83 1000 m 317 840 l 317 494 l 456 494 b 636 667 572 494 636 553 b 447 840 636 790 569 840 "},"Q":{"ha":1099,"x_min":0,"x_max":0,"o":"m 544 -21 b 56 499 300 -21 56 111 b 544 1021 56 879 299 1021 b 1033 500 790 1021 1033 888 b 879 96 1033 308 972 179 l 1043 -87 l 856 -219 l 721 6 b 544 -21 665 -12 604 -21 m 544 144 b 797 500 672 144 797 229 b 544 857 797 771 669 857 b 292 499 415 857 292 769 b 544 144 292 228 421 144 "},"R":{"ha":921,"x_min":0,"x_max":0,"o":"m 638 0 l 417 365 l 289 365 l 289 0 l 56 0 l 56 1000 l 424 1000 b 847 683 703 1000 847 889 b 649 406 847 544 783 456 l 914 0 m 289 839 l 289 526 l 435 526 b 606 683 535 526 606 582 b 426 839 606 792 544 839 "},"S":{"ha":936,"x_min":0,"x_max":0,"o":"m 478 -21 b 42 294 221 -21 69 103 l 263 294 b 481 142 278 207 349 142 b 667 257 615 142 667 186 b 417 421 667 360 560 388 b 78 732 250 460 78 521 b 479 1021 78 908 214 1021 b 876 743 713 1021 850 917 l 658 743 b 474 861 647 818 574 861 b 313 760 356 861 313 821 b 515 622 313 678 376 653 b 901 283 707 581 901 503 b 478 -21 901 122 775 -21 "},"T":{"ha":838,"x_min":0,"x_max":0,"o":"m 831 825 l 533 825 l 533 0 l 300 0 l 300 825 l 7 825 l 7 1000 l 831 1000 "},"U":{"ha":994,"x_min":0,"x_max":0,"o":"m 310 1000 l 310 319 b 499 144 310 207 376 144 b 694 319 621 144 694 207 l 694 1000 l 918 1000 l 918 335 b 497 -21 918 111 765 -21 b 76 335 229 -21 76 111 l 76 1000 "},"V":{"ha":918,"x_min":0,"x_max":0,"o":"m 918 1000 l 599 0 l 319 0 l 0 1000 l 240 1000 l 465 182 l 693 1000 "},"W":{"ha":1368,"x_min":0,"x_max":0,"o":"m 1368 1000 l 1144 0 l 869 0 l 683 772 l 506 0 l 240 0 l 0 1000 l 242 1000 l 393 261 l 561 1000 l 821 1000 l 1003 257 l 1147 1000 "},"X":{"ha":974,"x_min":0,"x_max":0,"o":"m 613 533 l 967 0 l 685 0 l 469 339 l 256 0 l 7 0 l 361 518 l 29 1000 l 306 1000 l 503 701 l 700 1000 l 939 1000 "},"Y":{"ha":928,"x_min":0,"x_max":0,"o":"m 354 0 l 354 399 l 0 1000 l 250 1000 l 469 593 l 706 1000 l 928 1000 l 574 399 l 574 0 "},"Z":{"ha":861,"x_min":0,"x_max":0,"o":"m 299 165 l 818 165 l 818 0 l 35 0 l 35 168 l 561 835 l 61 835 l 61 1000 l 826 1000 l 826 836 "},"[":{"ha":472,"x_min":0,"x_max":0,"o":"m 431 -236 l 83 -236 l 83 1125 l 431 1125 l 431 982 l 272 982 l 272 -93 l 431 -93 "},"\\":{"ha":472,"x_min":0,"x_max":0,"o":"m 0 1021 l 192 1021 l 472 -125 l 281 -125 "},"]":{"ha":472,"x_min":0,"x_max":0,"o":"m 42 -93 l 200 -93 l 200 982 l 42 982 l 42 1125 l 389 1125 l 389 -236 l 42 -236 "},"^":{"ha":722,"x_min":0,"x_max":0,"o":"m 243 556 l 36 556 l 257 1000 l 465 1000 l 686 556 l 479 556 l 361 832 "},"_":{"ha":756,"x_min":0,"x_max":0,"o":"m 756 -207 l 0 -207 l 0 -36 l 756 -36 "},"`":{"ha":458,"x_min":0,"x_max":0,"o":"m 417 810 l 249 810 l 42 1000 l 276 1000 "},"a":{"ha":806,"x_min":0,"x_max":0,"o":"m 63 514 b 411 743 97 658 218 743 b 736 478 611 743 736 643 l 736 0 l 567 0 l 540 75 b 301 -21 493 21 415 -21 b 49 208 154 -21 49 61 b 340 435 49 319 122 399 l 519 464 l 519 496 b 404 603 519 565 478 603 b 285 514 335 603 296 567 m 364 128 b 519 267 461 128 519 192 l 519 346 l 396 321 b 265 218 294 300 265 268 b 364 128 265 160 300 128 "},"b":{"ha":882,"x_min":0,"x_max":0,"o":"m 76 0 l 76 1000 l 293 1000 l 293 654 b 511 743 344 707 419 743 b 833 386 704 743 833 625 b 492 -21 833 122 689 -21 b 281 75 407 -21 331 17 l 246 0 m 615 367 b 454 585 615 522 553 585 b 286 369 357 585 286 515 b 447 138 286 194 356 138 b 615 367 544 138 615 210 "},"c":{"ha":819,"x_min":0,"x_max":0,"o":"m 778 240 b 415 -21 743 92 631 -21 b 49 354 176 -21 49 114 b 419 743 49 599 192 743 b 776 500 611 743 747 644 l 549 500 b 426 596 532 558 482 596 b 274 350 335 596 274 528 b 418 126 274 194 339 126 b 550 240 482 126 526 161 "},"d":{"ha":882,"x_min":0,"x_max":0,"o":"m 636 0 l 600 79 b 379 -21 549 19 471 -21 b 49 354 185 -21 49 119 b 376 743 49 599 186 743 b 589 654 469 743 540 710 l 589 1000 l 806 1000 l 806 0 m 267 356 b 433 138 267 203 333 138 b 596 360 529 138 596 197 b 433 585 596 543 511 585 b 267 356 332 585 267 507 "},"e":{"ha":836,"x_min":0,"x_max":0,"o":"m 786 210 b 429 -21 754 76 646 -21 b 49 361 204 -21 49 121 b 422 743 49 607 196 743 b 794 308 653 743 794 603 l 268 308 b 440 131 283 182 347 131 b 565 210 508 131 553 163 m 418 607 b 268 435 336 607 281 558 l 572 435 b 418 607 567 556 510 607 "},"f":{"ha":528,"x_min":0,"x_max":0,"o":"m 542 844 b 433 863 497 856 460 863 b 347 783 375 863 347 836 l 347 722 l 506 722 l 506 572 l 347 572 l 347 0 l 131 0 l 131 572 l 21 572 l 21 722 l 131 722 l 131 775 b 376 1021 131 935 218 1021 b 542 997 446 1021 499 1008 "},"g":{"ha":868,"x_min":0,"x_max":0,"o":"m 288 -44 b 435 -119 314 -101 350 -119 b 575 25 526 -119 575 -75 l 575 89 b 379 21 524 47 456 21 b 49 375 196 21 49 149 b 381 743 49 610 189 743 b 590 656 464 743 538 713 l 628 722 l 792 722 l 792 39 b 431 -271 792 -151 657 -271 b 67 -44 201 -271 89 -185 m 267 376 b 433 179 267 239 336 179 b 596 376 536 179 596 246 b 433 585 596 519 533 585 b 267 376 336 585 267 515 "},"h":{"ha":835,"x_min":0,"x_max":0,"o":"m 76 1000 l 293 1000 l 293 657 b 499 743 339 708 406 743 b 765 467 667 743 765 644 l 765 0 l 549 0 l 549 458 b 438 590 549 553 507 590 b 293 435 356 590 293 531 l 293 0 l 76 0 "},"i":{"ha":369,"x_min":0,"x_max":0,"o":"m 68 815 l 68 1000 l 301 1000 l 301 815 m 76 0 l 76 722 l 293 722 l 293 0 "},"j":{"ha":385,"x_min":0,"x_max":0,"o":"m -75 -99 b 11 -111 -44 -107 -8 -111 b 83 -36 61 -111 83 -90 l 83 722 l 300 722 l 300 -40 b 60 -271 300 -179 217 -271 b -75 -250 17 -271 -39 -262 m 75 815 l 75 1000 l 308 1000 l 308 815 "},"k":{"ha":813,"x_min":0,"x_max":0,"o":"m 76 0 l 76 1000 l 293 1000 l 293 463 l 538 722 l 790 722 l 496 421 l 826 0 l 549 0 l 293 332 l 293 0 "},"l":{"ha":369,"x_min":0,"x_max":0,"o":"m 293 0 l 76 0 l 76 1000 l 293 1000 "},"m":{"ha":1278,"x_min":0,"x_max":0,"o":"m 76 0 l 76 722 l 229 722 l 265 643 b 486 743 315 703 388 743 b 706 643 579 743 658 713 b 944 743 758 703 840 743 b 1208 469 1099 743 1208 665 l 1208 0 l 992 0 l 992 475 b 876 590 992 553 947 590 b 750 442 790 590 750 522 l 750 0 l 533 0 l 533 475 b 418 590 533 553 489 590 b 293 451 340 590 293 525 l 293 0 "},"n":{"ha":835,"x_min":0,"x_max":0,"o":"m 76 0 l 76 722 l 256 722 l 276 643 b 497 743 322 701 394 743 b 765 467 665 743 765 642 l 765 0 l 549 0 l 549 458 b 438 590 549 554 506 590 b 293 428 354 590 293 528 l 293 0 "},"o":{"ha":861,"x_min":0,"x_max":0,"o":"m 49 364 b 431 743 49 613 188 743 b 813 364 672 743 813 613 b 431 -21 813 114 674 -21 b 49 364 194 -21 49 113 m 272 364 b 432 125 272 190 331 125 b 590 364 538 125 590 188 b 431 597 590 540 535 597 b 272 364 324 597 272 538 "},"p":{"ha":882,"x_min":0,"x_max":0,"o":"m 492 -21 b 293 63 413 -21 343 11 l 293 -250 l 76 -250 l 76 722 l 240 722 l 282 642 b 511 743 333 701 413 743 b 833 372 704 743 833 611 b 492 -21 833 124 685 -21 m 615 367 b 454 585 615 521 551 585 b 286 369 357 585 286 515 b 447 138 286 194 356 138 b 615 367 544 138 615 210 "},"q":{"ha":882,"x_min":0,"x_max":0,"o":"m 806 722 l 806 -250 l 589 -250 l 589 67 b 379 -21 538 14 464 -21 b 49 354 185 -21 49 119 b 376 743 49 599 186 743 b 600 640 476 743 550 706 l 642 722 m 267 356 b 433 138 267 203 333 138 b 596 360 529 138 596 197 b 433 585 596 543 511 585 b 267 356 332 585 267 507 "},"r":{"ha":551,"x_min":0,"x_max":0,"o":"m 76 0 l 76 722 l 257 722 l 281 613 b 469 743 319 697 383 743 b 551 733 500 743 532 739 l 551 532 b 458 546 525 540 496 546 b 293 300 372 546 293 461 l 293 0 "},"s":{"ha":768,"x_min":0,"x_max":0,"o":"m 379 126 b 500 194 465 126 500 151 b 328 285 500 244 460 253 b 65 518 189 318 65 365 b 385 743 65 653 172 743 b 717 522 571 743 692 660 l 499 522 b 379 596 489 567 449 596 b 282 536 310 596 282 574 b 432 451 282 496 310 482 b 719 224 564 418 719 383 b 381 -21 719 81 611 -21 b 35 204 183 -21 58 71 l 253 204 b 379 126 263 158 311 126 "},"t":{"ha":511,"x_min":0,"x_max":0,"o":"m 490 -1 b 358 -21 451 -12 403 -21 b 124 201 213 -21 124 57 l 124 572 l 14 572 l 14 722 l 124 722 l 138 896 l 340 896 l 340 722 l 489 722 l 489 572 l 340 572 l 340 194 b 411 133 340 154 369 133 b 490 146 428 133 461 139 "},"u":{"ha":828,"x_min":0,"x_max":0,"o":"m 286 722 l 286 244 b 401 132 286 172 328 132 b 535 289 476 132 535 189 l 535 722 l 751 722 l 751 0 l 572 0 l 551 76 b 333 -21 501 15 426 -21 b 69 253 168 -21 69 76 l 69 722 "},"v":{"ha":786,"x_min":0,"x_max":0,"o":"m 779 722 l 529 0 l 256 0 l 7 722 l 242 722 l 400 160 l 556 722 "},"w":{"ha":1194,"x_min":0,"x_max":0,"o":"m 1181 722 l 982 0 l 714 0 l 600 528 l 471 0 l 208 0 l 14 722 l 238 722 l 350 179 l 478 722 l 739 722 l 851 176 l 975 722 "},"x":{"ha":797,"x_min":0,"x_max":0,"o":"m 514 383 l 790 0 l 529 0 l 388 224 l 238 0 l 7 0 l 276 381 l 21 722 l 274 722 l 400 533 l 526 722 l 753 722 "},"y":{"ha":793,"x_min":0,"x_max":0,"o":"m 786 722 l 528 -15 b 257 -271 463 -203 389 -271 b 140 -256 219 -271 179 -265 l 140 -104 b 229 -117 185 -115 211 -117 b 328 0 279 -117 310 -82 l 267 0 l 7 722 l 238 722 l 397 158 l 569 722 "},"z":{"ha":704,"x_min":0,"x_max":0,"o":"m 301 160 l 663 160 l 663 0 l 28 0 l 28 168 l 407 563 l 53 563 l 53 722 l 676 722 l 676 554 "},"{":{"ha":472,"x_min":0,"x_max":0,"o":"m 21 525 b 138 647 101 525 138 571 l 138 865 b 444 1125 138 1096 251 1125 l 444 982 b 331 872 364 981 331 969 l 331 650 b 200 444 331 521 278 471 b 331 239 278 418 331 368 l 331 17 b 444 -93 331 -81 364 -92 l 444 -236 b 138 24 251 -236 138 -207 l 138 242 b 21 364 138 318 101 364 "},"|":{"ha":472,"x_min":0,"x_max":0,"o":"m 331 1090 l 331 -194 l 142 -194 l 142 1090 "},"}":{"ha":472,"x_min":0,"x_max":0,"o":"m 451 364 b 335 242 371 364 335 318 l 335 24 b 28 -236 335 -207 221 -236 l 28 -93 b 142 17 108 -92 142 -81 l 142 239 b 272 444 142 368 194 418 b 142 650 194 471 142 521 l 142 872 b 28 982 142 969 108 981 l 28 1125 b 335 865 221 1125 335 1096 l 335 647 b 451 525 335 571 371 525 "},"~":{"ha":833,"x_min":0,"x_max":0,"o":"m 542 329 b 282 406 428 329 369 406 b 111 336 213 406 151 371 l 111 513 b 292 568 146 540 214 568 b 551 492 406 568 464 492 b 722 561 621 492 682 526 l 722 385 b 542 329 688 357 619 329 "}," ":{"ha":361,"x_min":0,"x_max":0,"o":""},"¡":{"ha":431,"x_min":0,"x_max":0,"o":"m 318 438 l 353 -250 l 78 -250 l 113 438 m 338 771 l 338 553 l 92 553 l 92 771 "},"¢":{"ha":833,"x_min":0,"x_max":0,"o":"m 333 -14 b 53 354 150 15 53 144 b 333 735 53 564 158 700 l 333 917 l 513 917 l 513 735 b 781 500 657 710 756 621 l 553 500 b 431 596 536 558 486 596 b 278 350 339 596 278 528 b 422 126 278 194 343 126 b 554 240 486 126 531 161 l 782 240 b 513 -12 753 114 667 14 l 513 -187 l 333 -187 "},"£":{"ha":833,"x_min":0,"x_max":0,"o":"m 354 549 l 635 549 l 635 419 l 353 419 l 353 319 b 289 175 353 253 326 207 l 757 175 l 757 0 l 64 0 l 64 175 b 129 311 122 193 129 236 l 129 419 l 53 419 l 53 549 l 129 549 l 129 681 b 447 993 129 885 239 993 b 781 743 639 993 760 885 l 572 743 b 461 831 557 801 522 831 b 354 678 390 831 354 785 "},"¤":{"ha":833,"x_min":0,"x_max":0,"o":"m 118 300 b 79 472 93 347 79 404 b 117 640 79 538 93 593 l 36 721 l 158 843 l 235 765 b 415 814 289 797 357 814 b 597 765 474 814 543 797 l 675 843 l 797 721 l 717 640 b 754 472 740 593 754 538 b 714 300 754 404 739 347 l 797 218 l 675 96 l 594 176 b 415 131 540 146 474 131 b 239 176 358 131 292 146 l 158 96 l 36 218 m 583 472 b 417 647 583 578 515 647 b 250 472 317 647 250 578 b 417 297 250 367 317 297 b 583 472 515 297 583 367 "},"¥":{"ha":833,"x_min":0,"x_max":0,"o":"m 307 0 l 307 181 l 133 181 l 133 310 l 307 310 l 307 375 l 133 375 l 133 504 l 244 504 l -33 972 l 217 972 l 422 579 l 644 972 l 867 972 l 589 504 l 700 504 l 700 375 l 526 375 l 526 310 l 700 310 l 700 181 l 526 181 l 526 0 "},"¦":{"ha":472,"x_min":0,"x_max":0,"o":"m 331 1090 l 331 556 l 142 556 l 142 1090 m 331 340 l 331 -194 l 142 -194 l 142 340 "},"§":{"ha":833,"x_min":0,"x_max":0,"o":"m 99 424 b 239 603 99 503 139 557 b 133 782 172 646 133 704 b 415 992 133 931 258 992 b 707 761 607 992 701 860 l 514 761 b 419 847 504 807 474 847 b 344 788 378 847 344 826 b 471 700 344 739 386 733 b 735 442 597 650 735 592 b 596 263 735 363 693 307 b 697 101 660 224 697 171 b 408 -126 697 -51 565 -126 b 110 101 219 -126 118 -25 l 303 101 b 406 18 313 56 347 18 b 486 78 447 18 486 40 b 358 165 486 126 443 132 b 99 424 232 215 99 274 m 311 447 b 461 319 311 385 336 361 b 522 418 488 342 522 372 b 371 546 522 481 494 506 b 311 447 344 524 311 492 "},"¨":{"ha":608,"x_min":0,"x_max":0,"o":"m 42 822 l 42 1000 l 247 1000 l 247 822 m 361 822 l 361 1000 l 567 1000 l 567 822 "},"©":{"ha":1171,"x_min":0,"x_max":0,"o":"m 196 500 b 585 93 196 224 392 93 b 974 500 778 93 974 224 b 585 907 974 776 778 907 b 196 500 392 907 196 776 m 1115 500 b 585 -21 1115 135 839 -21 b 54 500 331 -21 54 135 b 585 1021 54 865 331 1021 b 1115 500 839 1021 1115 865 m 874 407 b 590 206 846 292 760 206 b 304 497 414 206 304 300 b 593 800 304 688 415 800 b 872 611 743 800 849 724 l 694 611 b 599 686 683 656 644 686 b 481 494 526 686 481 633 b 593 319 481 372 529 319 b 696 407 644 319 676 347 "},"ª":{"ha":729,"x_min":0,"x_max":0,"o":"m 115 838 b 378 1021 132 951 236 1021 b 632 808 529 1021 632 940 l 632 426 l 497 426 l 468 486 b 304 410 433 443 378 410 b 97 593 214 410 97 456 b 342 783 97 714 217 769 l 438 794 l 438 824 b 376 894 438 876 406 894 b 304 838 342 894 313 876 m 638 0 l 104 0 l 104 171 l 638 171 m 363 543 b 438 618 411 543 438 579 l 438 685 l 381 676 b 292 599 310 667 292 636 b 363 543 292 564 319 543 "},"«":{"ha":757,"x_min":0,"x_max":0,"o":"m 63 438 l 242 722 l 404 722 l 275 433 l 390 125 l 228 125 m 353 438 l 532 722 l 694 722 l 565 433 l 681 125 l 518 125 "},"¬":{"ha":833,"x_min":0,"x_max":0,"o":"m 722 533 l 722 142 l 543 142 l 543 363 l 111 363 l 111 533 "},"­":{"ha":750,"x_min":0,"x_max":0,"o":"m 639 363 l 111 363 l 111 533 l 639 533 "},"®":{"ha":867,"x_min":0,"x_max":0,"o":"m 797 661 b 432 301 797 407 604 301 b 69 661 260 301 69 407 b 432 1021 69 915 260 1021 b 797 661 604 1021 797 915 m 176 661 b 432 386 176 461 304 386 b 690 661 560 386 690 461 b 432 936 690 861 560 936 b 176 661 304 936 176 861 m 510 488 l 429 622 l 382 622 l 382 488 l 296 488 l 296 854 l 432 854 b 588 739 517 854 588 825 b 514 636 588 681 556 651 l 613 488 m 382 794 l 382 681 l 436 681 b 499 739 463 681 499 693 b 433 794 499 786 464 794 "},"¯":{"ha":458,"x_min":0,"x_max":0,"o":"m 42 844 l 42 1000 l 417 1000 l 417 844 "},"°":{"ha":833,"x_min":0,"x_max":0,"o":"m 235 767 b 313 668 235 697 267 668 b 390 767 358 668 390 697 b 313 865 390 836 358 865 b 235 767 267 865 235 836 m 556 767 b 313 533 556 618 443 533 b 69 767 182 533 69 618 b 313 1000 69 915 182 1000 b 556 767 443 1000 556 915 "},"±":{"ha":833,"x_min":0,"x_max":0,"o":"m 506 753 l 506 533 l 722 533 l 722 363 l 506 363 l 506 225 l 326 225 l 326 363 l 111 363 l 111 533 l 326 533 l 326 753 m 722 0 l 111 0 l 111 171 l 722 171 "},"²":{"ha":472,"x_min":0,"x_max":0,"o":"m 36 965 b 242 1125 61 1074 131 1125 b 426 961 354 1125 426 1060 b 296 754 426 876 357 813 l 240 701 l 424 701 l 424 583 l 58 583 l 58 701 l 194 835 b 278 964 238 876 278 914 b 233 1014 278 996 261 1014 b 179 965 204 1014 188 997 "},"³":{"ha":472,"x_min":0,"x_max":0,"o":"m 43 985 b 239 1125 54 1061 128 1125 b 415 979 331 1125 415 1081 b 324 865 415 931 381 883 b 436 738 376 854 436 825 b 236 575 436 640 351 575 b 38 725 126 575 47 635 l 188 725 b 235 685 192 700 211 685 b 282 744 268 685 282 708 b 208 808 282 789 258 808 l 176 808 l 176 915 l 215 915 b 268 971 249 915 268 939 b 226 1014 268 993 257 1014 b 185 985 206 1014 192 1004 "},"´":{"ha":458,"x_min":0,"x_max":0,"o":"m 182 1000 l 417 1000 l 210 810 l 42 810 "},"µ":{"ha":835,"x_min":0,"x_max":0,"o":"m 293 722 l 293 244 b 408 132 293 172 335 132 b 542 281 481 132 542 186 l 542 722 l 758 722 l 758 0 l 579 0 l 558 76 b 340 -21 508 15 433 -21 b 293 -14 324 -21 308 -18 l 293 -249 l 76 -249 l 76 722 "},"¶":{"ha":938,"x_min":0,"x_max":0,"o":"m 496 1000 l 496 -250 l 293 -250 l 293 438 b 42 718 224 438 42 476 b 293 1000 42 960 224 1000 m 861 1000 l 861 -250 l 658 -250 l 658 1000 "},"·":{"ha":375,"x_min":0,"x_max":0,"o":"m 78 344 l 78 542 l 297 542 l 297 344 "},"¸":{"ha":497,"x_min":0,"x_max":0,"o":"m 456 -193 b 256 -358 456 -283 378 -358 b 42 -190 126 -358 54 -290 l 181 -190 b 251 -247 183 -215 199 -247 b 314 -197 293 -247 314 -224 b 200 -137 314 -158 276 -137 l 217 35 l 336 35 l 336 -56 b 456 -193 411 -72 456 -121 "},"¹":{"ha":472,"x_min":0,"x_max":0,"o":"m 71 583 l 71 706 l 179 706 l 179 979 l 71 917 l 71 1049 l 174 1111 l 324 1111 l 324 706 l 418 706 l 418 583 "},"º":{"ha":728,"x_min":0,"x_max":0,"o":"m 69 718 b 364 1021 69 963 222 1021 b 658 718 506 1021 658 965 b 364 410 658 469 506 410 b 69 718 221 410 69 472 m 269 718 b 365 540 269 594 297 540 b 460 718 431 540 460 594 b 364 890 460 842 429 890 b 269 718 299 890 269 842 m 642 0 l 88 0 l 88 171 l 642 171 "},"»":{"ha":757,"x_min":0,"x_max":0,"o":"m 529 125 l 367 125 l 482 433 l 353 722 l 515 722 l 694 438 m 239 125 l 76 125 l 192 433 l 63 722 l 225 722 l 404 438 "},"¼":{"ha":1222,"x_min":0,"x_max":0,"o":"m 126 444 l 126 567 l 235 567 l 235 840 l 126 778 l 126 910 l 229 972 l 379 972 l 379 567 l 474 567 l 474 444 m 1038 333 l 1038 218 l 1094 218 l 1094 99 l 1038 99 l 1038 0 l 897 0 l 897 99 l 693 99 l 693 224 l 810 528 l 957 528 l 843 218 l 897 218 l 897 250 l 915 333 m 400 -125 l 235 -125 l 840 1097 l 1007 1097 "},"½":{"ha":1222,"x_min":0,"x_max":0,"o":"m 713 382 b 918 542 738 490 807 542 b 1103 378 1031 542 1103 476 b 972 171 1103 293 1033 229 l 917 118 l 1100 118 l 1100 0 l 735 0 l 735 118 l 871 251 b 954 381 914 293 954 331 b 910 431 954 413 938 431 b 856 382 881 431 864 414 m 119 444 l 119 567 l 228 567 l 228 840 l 119 778 l 119 910 l 222 972 l 372 972 l 372 567 l 467 567 l 467 444 m 393 -125 l 228 -125 l 833 1097 l 1000 1097 "},"¾":{"ha":1222,"x_min":0,"x_max":0,"o":"m 122 853 b 318 993 133 929 207 993 b 494 847 410 993 494 949 b 403 733 494 799 460 751 b 515 606 456 722 515 693 b 315 443 515 508 431 443 b 117 593 206 443 126 503 l 267 593 b 314 553 271 568 290 553 b 361 613 347 553 361 576 b 288 676 361 657 338 676 l 256 676 l 256 783 l 294 783 b 347 839 328 783 347 807 b 306 882 347 861 336 882 b 264 853 285 882 271 872 m 1047 333 l 1047 218 l 1104 218 l 1104 99 l 1047 99 l 1047 0 l 907 0 l 907 99 l 703 99 l 703 224 l 819 528 l 967 528 l 853 218 l 907 218 l 907 250 l 925 333 m 410 -125 l 244 -125 l 850 1097 l 1017 1097 "},"¿":{"ha":761,"x_min":0,"x_max":0,"o":"m 699 7 b 360 -271 690 -146 547 -271 b 49 -35 160 -271 49 -174 b 213 282 49 78 88 129 b 253 431 249 326 253 375 l 471 431 b 388 165 471 307 467 264 b 282 -22 294 50 282 25 b 363 -108 282 -79 311 -108 b 464 7 413 -108 449 -72 m 483 750 l 483 532 l 238 532 l 238 750 "},"À":{"ha":974,"x_min":0,"x_max":0,"o":"m 728 0 l 657 229 l 301 229 l 231 0 l 0 0 l 356 1000 l 615 1000 l 974 0 m 349 382 l 611 382 l 481 808 m 654 1074 l 486 1074 l 279 1264 l 514 1264 "},"Á":{"ha":974,"x_min":0,"x_max":0,"o":"m 728 0 l 657 229 l 301 229 l 231 0 l 0 0 l 356 1000 l 615 1000 l 974 0 m 349 382 l 611 382 l 481 808 m 461 1264 l 696 1264 l 489 1074 l 321 1074 "},"Â":{"ha":974,"x_min":0,"x_max":0,"o":"m 728 0 l 657 229 l 301 229 l 231 0 l 0 0 l 356 1000 l 615 1000 l 974 0 m 349 382 l 611 382 l 481 808 m 418 1094 l 196 1094 l 383 1285 l 578 1285 l 765 1094 l 544 1094 l 481 1176 "},"Ã":{"ha":974,"x_min":0,"x_max":0,"o":"m 728 0 l 657 229 l 301 229 l 231 0 l 0 0 l 356 1000 l 615 1000 l 974 0 m 349 382 l 611 382 l 481 808 m 571 1086 b 390 1139 489 1086 454 1139 b 272 1086 358 1139 313 1118 l 272 1239 b 396 1285 313 1268 357 1285 b 576 1232 478 1285 513 1232 b 689 1285 608 1232 649 1253 l 689 1132 b 571 1086 649 1103 610 1086 "},"Ä":{"ha":974,"x_min":0,"x_max":0,"o":"m 728 0 l 657 229 l 301 229 l 231 0 l 0 0 l 356 1000 l 615 1000 l 974 0 m 349 382 l 611 382 l 481 808 m 218 1086 l 218 1264 l 424 1264 l 424 1086 m 538 1086 l 538 1264 l 743 1264 l 743 1086 "},"Å":{"ha":974,"x_min":0,"x_max":0,"o":"m 674 1082 b 628 965 674 1036 658 996 l 974 0 l 728 0 l 657 229 l 301 229 l 231 0 l 0 0 l 340 958 b 288 1082 306 989 288 1033 b 481 1253 288 1175 357 1253 b 674 1082 604 1253 674 1175 m 349 382 l 611 382 l 481 808 m 424 1082 b 481 1011 424 1035 449 1011 b 538 1082 513 1011 538 1035 b 481 1153 538 1129 514 1153 b 424 1082 447 1153 424 1129 "},"Æ":{"ha":1335,"x_min":0,"x_max":0,"o":"m 1286 0 l 653 0 l 653 229 l 346 229 l 236 0 l 0 0 l 490 1000 l 1286 1000 l 1286 829 l 886 829 l 886 585 l 1246 585 l 1246 424 l 886 424 l 886 168 l 1286 168 m 653 382 l 653 863 l 419 382 "},"Ç":{"ha":1029,"x_min":0,"x_max":0,"o":"m 567 -197 b 453 -137 567 -158 529 -137 l 464 -18 b 56 503 226 4 56 179 b 532 1021 56 842 240 1021 b 974 674 764 1021 938 899 l 740 674 b 532 858 714 799 639 858 b 299 503 393 858 299 754 b 525 143 299 239 401 143 b 743 368 656 143 732 211 l 981 368 b 589 -18 953 135 817 3 l 589 -56 b 708 -193 664 -72 708 -121 b 508 -358 708 -283 631 -358 b 294 -190 379 -358 307 -290 l 433 -190 b 504 -247 436 -215 449 -247 b 567 -197 546 -247 567 -224 "},"È":{"ha":807,"x_min":0,"x_max":0,"o":"m 718 424 l 317 424 l 317 168 l 758 168 l 758 0 l 83 0 l 83 1000 l 758 1000 l 758 829 l 317 829 l 317 585 l 718 585 m 564 1074 l 396 1074 l 189 1264 l 424 1264 "},"É":{"ha":807,"x_min":0,"x_max":0,"o":"m 718 424 l 317 424 l 317 168 l 758 168 l 758 0 l 83 0 l 83 1000 l 758 1000 l 758 829 l 317 829 l 317 585 l 718 585 m 438 1264 l 672 1264 l 465 1074 l 297 1074 "},"Ê":{"ha":807,"x_min":0,"x_max":0,"o":"m 718 424 l 317 424 l 317 168 l 758 168 l 758 0 l 83 0 l 83 1000 l 758 1000 l 758 829 l 317 829 l 317 585 l 718 585 m 357 1094 l 135 1094 l 322 1285 l 517 1285 l 704 1094 l 483 1094 l 419 1176 "},"Ë":{"ha":807,"x_min":0,"x_max":0,"o":"m 718 424 l 317 424 l 317 168 l 758 168 l 758 0 l 83 0 l 83 1000 l 758 1000 l 758 829 l 317 829 l 317 585 l 718 585 m 156 1086 l 156 1264 l 361 1264 l 361 1086 m 475 1086 l 475 1264 l 681 1264 l 681 1086 "},"Ì":{"ha":400,"x_min":0,"x_max":0,"o":"m 317 1000 l 317 0 l 83 0 l 83 1000 m 365 1074 l 197 1074 l -10 1264 l 225 1264 "},"Í":{"ha":400,"x_min":0,"x_max":0,"o":"m 317 1000 l 317 0 l 83 0 l 83 1000 m 175 1264 l 410 1264 l 203 1074 l 35 1074 "},"Î":{"ha":400,"x_min":0,"x_max":0,"o":"m 317 1000 l 317 0 l 83 0 l 83 1000 m 138 1094 l -85 1094 l 103 1285 l 297 1285 l 485 1094 l 264 1094 l 200 1176 "},"Ï":{"ha":400,"x_min":0,"x_max":0,"o":"m 317 1000 l 317 0 l 83 0 l 83 1000 m -62 1086 l -62 1264 l 143 1264 l 143 1086 m 257 1086 l 257 1264 l 463 1264 l 463 1086 "},"Ð":{"ha":1013,"x_min":0,"x_max":0,"o":"m 83 438 l 14 438 l 14 613 l 83 613 l 83 1000 l 458 1000 b 957 500 782 1000 957 842 b 461 0 957 150 774 0 l 83 0 m 317 438 l 317 163 l 461 163 b 722 500 622 163 722 264 b 458 839 722 736 619 839 l 317 839 l 317 613 l 496 613 l 496 438 "},"Ñ":{"ha":1001,"x_min":0,"x_max":0,"o":"m 918 1000 l 918 0 l 678 0 l 283 710 l 283 0 l 83 0 l 83 1000 l 342 1000 l 719 317 l 719 1000 m 590 1086 b 410 1139 508 1086 474 1139 b 292 1086 378 1139 332 1118 l 292 1239 b 415 1285 332 1268 376 1285 b 596 1232 497 1285 532 1232 b 708 1285 628 1232 668 1253 l 708 1132 b 590 1086 668 1103 629 1086 "},"Ò":{"ha":1089,"x_min":0,"x_max":0,"o":"m 544 144 b 797 500 672 144 797 229 b 544 857 797 771 669 857 b 292 499 415 857 292 769 b 544 144 292 228 421 144 m 544 -21 b 56 499 300 -21 56 111 b 544 1021 56 879 299 1021 b 1033 500 790 1021 1033 888 b 544 -21 1033 119 789 -21 m 681 1074 l 513 1074 l 306 1264 l 540 1264 "},"Ó":{"ha":1089,"x_min":0,"x_max":0,"o":"m 544 144 b 797 500 672 144 797 229 b 544 857 797 771 669 857 b 292 499 415 857 292 769 b 544 144 292 228 421 144 m 544 -21 b 56 499 300 -21 56 111 b 544 1021 56 879 299 1021 b 1033 500 790 1021 1033 888 b 544 -21 1033 119 789 -21 m 557 1264 l 792 1264 l 585 1074 l 417 1074 "},"Ô":{"ha":1089,"x_min":0,"x_max":0,"o":"m 544 144 b 797 500 672 144 797 229 b 544 857 797 771 669 857 b 292 499 415 857 292 769 b 544 144 292 228 421 144 m 544 -21 b 56 499 300 -21 56 111 b 544 1021 56 879 299 1021 b 1033 500 790 1021 1033 888 b 544 -21 1033 119 789 -21 m 482 1094 l 260 1094 l 447 1285 l 642 1285 l 829 1094 l 608 1094 l 544 1176 "},"Õ":{"ha":1089,"x_min":0,"x_max":0,"o":"m 544 144 b 797 500 672 144 797 229 b 544 857 797 771 669 857 b 292 499 415 857 292 769 b 544 144 292 228 421 144 m 544 -21 b 56 499 300 -21 56 111 b 544 1021 56 879 299 1021 b 1033 500 790 1021 1033 888 b 544 -21 1033 119 789 -21 m 635 1086 b 454 1139 553 1086 518 1139 b 336 1086 422 1139 376 1118 l 336 1239 b 460 1285 376 1268 421 1285 b 640 1232 542 1285 576 1232 b 753 1285 672 1232 713 1253 l 753 1132 b 635 1086 713 1103 674 1086 "},"Ö":{"ha":1089,"x_min":0,"x_max":0,"o":"m 544 144 b 797 500 672 144 797 229 b 544 857 797 771 669 857 b 292 499 415 857 292 769 b 544 144 292 228 421 144 m 544 -21 b 56 499 300 -21 56 111 b 544 1021 56 879 299 1021 b 1033 500 790 1021 1033 888 b 544 -21 1033 119 789 -21 m 282 1086 l 282 1264 l 488 1264 l 488 1086 m 601 1086 l 601 1264 l 807 1264 l 807 1086 "},"×":{"ha":833,"x_min":0,"x_max":0,"o":"m 261 724 l 417 568 l 572 724 l 693 603 l 538 447 l 693 292 l 572 171 l 417 326 l 261 171 l 140 292 l 296 447 l 140 603 "},"Ø":{"ha":1089,"x_min":0,"x_max":0,"o":"m 544 -21 b 432 -11 506 -21 469 -18 l 383 -153 l 218 -153 l 285 40 b 56 499 151 113 56 254 b 544 1021 56 879 299 1021 b 657 1010 582 1021 621 1017 l 706 1139 l 871 1139 l 804 960 b 1033 500 936 886 1033 743 b 544 -21 1033 119 789 -21 m 292 499 b 378 213 292 357 326 267 l 607 849 b 544 857 586 854 565 857 b 292 499 415 857 292 769 m 544 144 b 797 500 672 144 797 229 b 711 788 797 642 763 732 l 482 151 b 544 144 503 146 524 144 "},"Ù":{"ha":994,"x_min":0,"x_max":0,"o":"m 310 1000 l 310 319 b 499 144 310 207 376 144 b 694 319 621 144 694 207 l 694 1000 l 918 1000 l 918 335 b 497 -21 918 111 765 -21 b 76 335 229 -21 76 111 l 76 1000 m 604 1074 l 436 1074 l 229 1264 l 464 1264 "},"Ú":{"ha":994,"x_min":0,"x_max":0,"o":"m 310 1000 l 310 319 b 499 144 310 207 376 144 b 694 319 621 144 694 207 l 694 1000 l 918 1000 l 918 335 b 497 -21 918 111 765 -21 b 76 335 229 -21 76 111 l 76 1000 m 551 1264 l 786 1264 l 579 1074 l 411 1074 "},"Û":{"ha":994,"x_min":0,"x_max":0,"o":"m 310 1000 l 310 319 b 499 144 310 207 376 144 b 694 319 621 144 694 207 l 694 1000 l 918 1000 l 918 335 b 497 -21 918 111 765 -21 b 76 335 229 -21 76 111 l 76 1000 m 435 1094 l 213 1094 l 400 1285 l 594 1285 l 782 1094 l 561 1094 l 497 1176 "},"Ü":{"ha":994,"x_min":0,"x_max":0,"o":"m 310 1000 l 310 319 b 499 144 310 207 376 144 b 694 319 621 144 694 207 l 694 1000 l 918 1000 l 918 335 b 497 -21 918 111 765 -21 b 76 335 229 -21 76 111 l 76 1000 m 235 1086 l 235 1264 l 440 1264 l 440 1086 m 554 1086 l 554 1264 l 760 1264 l 760 1086 "},"Ý":{"ha":928,"x_min":0,"x_max":0,"o":"m 354 0 l 354 399 l 0 1000 l 250 1000 l 469 593 l 706 1000 l 928 1000 l 574 399 l 574 0 m 507 1264 l 742 1264 l 535 1074 l 367 1074 "},"Þ":{"ha":925,"x_min":0,"x_max":0,"o":"m 317 1000 l 317 840 l 444 840 b 876 507 669 840 876 785 b 453 175 876 231 665 175 l 317 175 l 317 0 l 83 0 l 83 1000 m 317 681 l 317 335 l 456 335 b 636 507 533 335 636 361 b 447 681 636 654 539 681 "},"ß":{"ha":899,"x_min":0,"x_max":0,"o":"m 600 -21 b 308 204 417 -21 332 71 l 526 204 b 588 128 532 158 549 128 b 651 217 625 128 651 160 b 567 342 651 274 626 306 b 429 538 454 408 429 464 b 536 782 429 657 536 672 b 421 868 536 831 490 868 b 293 714 336 868 293 818 l 293 476 l 265 0 l 76 0 l 76 711 b 425 1021 76 879 192 1021 b 754 796 617 1021 754 933 b 611 556 754 658 611 629 b 685 464 611 528 625 499 b 878 228 814 389 878 328 b 600 -21 878 74 776 -21 "},"à":{"ha":806,"x_min":0,"x_max":0,"o":"m 63 514 b 411 743 97 658 218 743 b 736 478 611 743 736 643 l 736 0 l 567 0 l 540 75 b 301 -21 493 21 415 -21 b 49 208 154 -21 49 61 b 340 435 49 319 122 399 l 519 464 l 519 496 b 404 603 519 565 478 603 b 285 514 335 603 296 567 m 364 128 b 519 267 461 128 519 192 l 519 346 l 396 321 b 265 218 294 300 265 268 b 364 128 265 160 300 128 m 517 810 l 349 810 l 142 1000 l 376 1000 "},"á":{"ha":806,"x_min":0,"x_max":0,"o":"m 63 514 b 411 743 97 658 218 743 b 736 478 611 743 736 643 l 736 0 l 567 0 l 540 75 b 301 -21 493 21 415 -21 b 49 208 154 -21 49 61 b 340 435 49 319 122 399 l 519 464 l 519 496 b 404 603 519 565 478 603 b 285 514 335 603 296 567 m 364 128 b 519 267 461 128 519 192 l 519 346 l 396 321 b 265 218 294 300 265 268 b 364 128 265 160 300 128 m 456 1000 l 690 1000 l 483 810 l 315 810 "},"â":{"ha":806,"x_min":0,"x_max":0,"o":"m 63 514 b 411 743 97 658 218 743 b 736 478 611 743 736 643 l 736 0 l 567 0 l 540 75 b 301 -21 493 21 415 -21 b 49 208 154 -21 49 61 b 340 435 49 319 122 399 l 519 464 l 519 496 b 404 603 519 565 478 603 b 285 514 335 603 296 567 m 364 128 b 519 267 461 128 519 192 l 519 346 l 396 321 b 265 218 294 300 265 268 b 364 128 265 160 300 128 m 346 831 l 124 831 l 311 1021 l 506 1021 l 693 831 l 472 831 l 408 913 "},"ã":{"ha":806,"x_min":0,"x_max":0,"o":"m 63 514 b 411 743 97 658 218 743 b 736 478 611 743 736 643 l 736 0 l 567 0 l 540 75 b 301 -21 493 21 415 -21 b 49 208 154 -21 49 61 b 340 435 49 319 122 399 l 519 464 l 519 496 b 404 603 519 565 478 603 b 285 514 335 603 296 567 m 364 128 b 519 267 461 128 519 192 l 519 346 l 396 321 b 265 218 294 300 265 268 b 364 128 265 160 300 128 m 483 822 b 303 875 401 822 367 875 b 185 822 271 875 225 854 l 185 975 b 308 1021 225 1004 269 1021 b 489 968 390 1021 425 968 b 601 1021 521 968 561 989 l 601 868 b 483 822 561 839 522 822 "},"ä":{"ha":806,"x_min":0,"x_max":0,"o":"m 63 514 b 411 743 97 658 218 743 b 736 478 611 743 736 643 l 736 0 l 567 0 l 540 75 b 301 -21 493 21 415 -21 b 49 208 154 -21 49 61 b 340 435 49 319 122 399 l 519 464 l 519 496 b 404 603 519 565 478 603 b 285 514 335 603 296 567 m 364 128 b 519 267 461 128 519 192 l 519 346 l 396 321 b 265 218 294 300 265 268 b 364 128 265 160 300 128 m 133 822 l 133 1000 l 339 1000 l 339 822 m 453 822 l 453 1000 l 658 1000 l 658 822 "},"å":{"ha":806,"x_min":0,"x_max":0,"o":"m 63 514 b 411 743 97 658 218 743 b 736 478 611 743 736 643 l 736 0 l 567 0 l 540 75 b 301 -21 493 21 415 -21 b 49 208 154 -21 49 61 b 340 435 49 319 122 399 l 519 464 l 519 496 b 404 603 519 565 478 603 b 285 514 335 603 296 567 m 364 128 b 519 267 461 128 519 192 l 519 346 l 396 321 b 265 218 294 300 265 268 b 364 128 265 160 300 128 m 346 972 b 403 901 346 925 371 901 b 460 972 435 901 460 925 b 403 1043 460 1019 436 1043 b 346 972 369 1043 346 1019 m 596 972 b 403 801 596 879 528 801 b 210 972 278 801 210 879 b 403 1143 210 1065 279 1143 b 596 972 526 1143 596 1065 "},"æ":{"ha":1307,"x_min":0,"x_max":0,"o":"m 1257 210 b 900 -21 1225 76 1117 -21 b 592 131 767 -21 658 38 b 315 -21 549 51 463 -21 b 49 208 157 -21 49 57 b 340 435 49 319 122 399 l 519 464 l 519 496 b 404 603 519 565 478 603 b 285 514 335 603 296 567 l 63 514 b 411 743 97 658 218 743 b 650 660 511 743 593 710 b 893 743 713 713 794 743 b 1265 308 1124 743 1265 603 l 739 308 b 911 131 754 182 818 131 b 1036 210 979 131 1024 163 m 889 607 b 739 435 807 607 751 558 l 1043 435 b 889 607 1038 556 981 607 m 519 346 l 396 321 b 265 218 294 300 265 268 b 364 128 265 157 303 128 b 519 272 464 128 519 196 "},"ç":{"ha":819,"x_min":0,"x_max":0,"o":"m 457 -197 b 343 -137 457 -158 419 -137 l 354 -17 b 49 354 154 4 49 135 b 419 743 49 599 192 743 b 776 500 611 743 747 644 l 549 500 b 426 596 532 558 482 596 b 274 350 335 596 274 528 b 418 126 274 194 339 126 b 550 240 482 126 526 161 l 778 240 b 479 -17 746 107 653 3 l 479 -56 b 599 -193 554 -72 599 -121 b 399 -358 599 -283 521 -358 b 185 -190 269 -358 197 -290 l 324 -190 b 394 -247 326 -215 339 -247 b 457 -197 436 -247 457 -224 "},"è":{"ha":836,"x_min":0,"x_max":0,"o":"m 786 210 b 429 -21 754 76 646 -21 b 49 361 204 -21 49 121 b 422 743 49 607 196 743 b 794 308 653 743 794 603 l 268 308 b 440 131 283 182 347 131 b 565 210 508 131 553 163 m 418 607 b 268 435 336 607 281 558 l 572 435 b 418 607 567 556 510 607 m 524 810 l 356 810 l 149 1000 l 383 1000 "},"é":{"ha":836,"x_min":0,"x_max":0,"o":"m 786 210 b 429 -21 754 76 646 -21 b 49 361 204 -21 49 121 b 422 743 49 607 196 743 b 794 308 653 743 794 603 l 268 308 b 440 131 283 182 347 131 b 565 210 508 131 553 163 m 418 607 b 268 435 336 607 281 558 l 572 435 b 418 607 567 556 510 607 m 465 1000 l 700 1000 l 493 810 l 325 810 "},"ê":{"ha":836,"x_min":0,"x_max":0,"o":"m 786 210 b 429 -21 754 76 646 -21 b 49 361 204 -21 49 121 b 422 743 49 607 196 743 b 794 308 653 743 794 603 l 268 308 b 440 131 283 182 347 131 b 565 210 508 131 553 163 m 418 607 b 268 435 336 607 281 558 l 572 435 b 418 607 567 556 510 607 m 349 831 l 126 831 l 314 1021 l 508 1021 l 696 831 l 475 831 l 411 913 "},"ë":{"ha":836,"x_min":0,"x_max":0,"o":"m 786 210 b 429 -21 754 76 646 -21 b 49 361 204 -21 49 121 b 422 743 49 607 196 743 b 794 308 653 743 794 603 l 268 308 b 440 131 283 182 347 131 b 565 210 508 131 553 163 m 418 607 b 268 435 336 607 281 558 l 572 435 b 418 607 567 556 510 607 m 147 822 l 147 1000 l 353 1000 l 353 822 m 467 822 l 467 1000 l 672 1000 l 672 822 "},"ì":{"ha":369,"x_min":0,"x_max":0,"o":"m 76 0 l 76 722 l 293 722 l 293 0 m 329 810 l 161 810 l -46 1000 l 189 1000 "},"í":{"ha":369,"x_min":0,"x_max":0,"o":"m 76 0 l 76 722 l 293 722 l 293 0 m 183 1000 l 418 1000 l 211 810 l 43 810 "},"î":{"ha":369,"x_min":0,"x_max":0,"o":"m 76 0 l 76 722 l 293 722 l 293 0 m 122 831 l -100 831 l 88 1021 l 282 1021 l 469 831 l 249 831 l 185 913 "},"ï":{"ha":369,"x_min":0,"x_max":0,"o":"m 76 0 l 76 722 l 293 722 l 293 0 m -78 822 l -78 1000 l 128 1000 l 128 822 m 242 822 l 242 1000 l 447 1000 l 447 822 "},"ð":{"ha":819,"x_min":0,"x_max":0,"o":"m 139 1046 b 439 960 239 1033 344 1006 l 479 1000 l 678 1000 l 563 885 b 771 454 685 790 771 650 b 418 -21 771 147 671 -21 b 49 331 243 -21 49 63 b 356 671 49 538 163 671 b 531 596 422 671 500 640 b 447 768 517 669 488 725 l 422 743 l 224 743 l 328 847 b 139 903 269 874 204 889 m 407 514 b 269 324 311 514 269 436 b 415 136 269 201 319 136 b 550 354 501 136 550 215 b 407 514 550 456 494 514 "},"ñ":{"ha":835,"x_min":0,"x_max":0,"o":"m 76 0 l 76 722 l 256 722 l 276 643 b 497 743 322 701 394 743 b 765 467 665 743 765 642 l 765 0 l 549 0 l 549 458 b 438 590 549 554 506 590 b 293 428 354 590 293 528 l 293 0 m 515 822 b 335 875 433 822 399 875 b 217 822 303 875 257 854 l 217 975 b 340 1021 257 1004 301 1021 b 521 968 422 1021 457 968 b 633 1021 553 968 593 989 l 633 868 b 515 822 593 839 554 822 "},"ò":{"ha":861,"x_min":0,"x_max":0,"o":"m 49 364 b 431 743 49 613 188 743 b 813 364 672 743 813 613 b 431 -21 813 114 674 -21 b 49 364 194 -21 49 113 m 272 364 b 432 125 272 190 331 125 b 590 364 538 125 590 188 b 431 597 590 540 535 597 b 272 364 324 597 272 538 m 546 810 l 378 810 l 171 1000 l 406 1000 "},"ó":{"ha":861,"x_min":0,"x_max":0,"o":"m 49 364 b 431 743 49 613 188 743 b 813 364 672 743 813 613 b 431 -21 813 114 674 -21 b 49 364 194 -21 49 113 m 272 364 b 432 125 272 190 331 125 b 590 364 538 125 590 188 b 431 597 590 540 535 597 b 272 364 324 597 272 538 m 447 1000 l 682 1000 l 475 810 l 307 810 "},"ô":{"ha":861,"x_min":0,"x_max":0,"o":"m 49 364 b 431 743 49 613 188 743 b 813 364 672 743 813 613 b 431 -21 813 114 674 -21 b 49 364 194 -21 49 113 m 272 364 b 432 125 272 190 331 125 b 590 364 538 125 590 188 b 431 597 590 540 535 597 b 272 364 324 597 272 538 m 368 831 l 146 831 l 333 1021 l 528 1021 l 715 831 l 494 831 l 431 913 "},"õ":{"ha":861,"x_min":0,"x_max":0,"o":"m 49 364 b 431 743 49 613 188 743 b 813 364 672 743 813 613 b 431 -21 813 114 674 -21 b 49 364 194 -21 49 113 m 272 364 b 432 125 272 190 331 125 b 590 364 538 125 590 188 b 431 597 590 540 535 597 b 272 364 324 597 272 538 m 521 822 b 340 875 439 822 404 875 b 222 822 308 875 263 854 l 222 975 b 346 1021 263 1004 307 1021 b 526 968 428 1021 463 968 b 639 1021 558 968 599 989 l 639 868 b 521 822 599 839 560 822 "},"ö":{"ha":861,"x_min":0,"x_max":0,"o":"m 49 364 b 431 743 49 613 188 743 b 813 364 672 743 813 613 b 431 -21 813 114 674 -21 b 49 364 194 -21 49 113 m 272 364 b 432 125 272 190 331 125 b 590 364 538 125 590 188 b 431 597 590 540 535 597 b 272 364 324 597 272 538 m 168 822 l 168 1000 l 374 1000 l 374 822 m 488 822 l 488 1000 l 693 1000 l 693 822 "},"÷":{"ha":833,"x_min":0,"x_max":0,"o":"m 307 86 l 307 283 l 526 283 l 526 86 m 307 613 l 307 810 l 526 810 l 526 613 m 722 363 l 111 363 l 111 533 l 722 533 "},"ø":{"ha":861,"x_min":0,"x_max":0,"o":"m 49 364 b 431 743 49 613 188 743 b 526 733 464 743 497 739 l 592 875 l 757 875 l 667 682 b 813 364 761 621 813 514 b 431 -21 813 114 674 -21 b 336 -12 397 -21 365 -18 l 272 -153 l 104 -153 l 194 42 b 49 364 101 104 49 213 m 272 364 b 301 199 272 290 282 238 l 479 592 b 431 597 464 594 447 597 b 272 364 324 597 272 538 m 590 364 b 563 522 590 435 581 486 l 386 131 b 432 125 400 126 415 125 b 590 364 538 125 590 188 "},"ù":{"ha":828,"x_min":0,"x_max":0,"o":"m 286 722 l 286 244 b 401 132 286 172 328 132 b 535 289 476 132 535 189 l 535 722 l 751 722 l 751 0 l 572 0 l 551 76 b 333 -21 501 15 426 -21 b 69 253 168 -21 69 76 l 69 722 m 506 810 l 338 810 l 131 1000 l 365 1000 "},"ú":{"ha":828,"x_min":0,"x_max":0,"o":"m 286 722 l 286 244 b 401 132 286 172 328 132 b 535 289 476 132 535 189 l 535 722 l 751 722 l 751 0 l 572 0 l 551 76 b 333 -21 501 15 426 -21 b 69 253 168 -21 69 76 l 69 722 m 457 1000 l 692 1000 l 485 810 l 317 810 "},"û":{"ha":828,"x_min":0,"x_max":0,"o":"m 286 722 l 286 244 b 401 132 286 172 328 132 b 535 289 476 132 535 189 l 535 722 l 751 722 l 751 0 l 572 0 l 551 76 b 333 -21 501 15 426 -21 b 69 253 168 -21 69 76 l 69 722 m 347 831 l 125 831 l 313 1021 l 507 1021 l 694 831 l 474 831 l 410 913 "},"ü":{"ha":828,"x_min":0,"x_max":0,"o":"m 286 722 l 286 244 b 401 132 286 172 328 132 b 535 289 476 132 535 189 l 535 722 l 751 722 l 751 0 l 572 0 l 551 76 b 333 -21 501 15 426 -21 b 69 253 168 -21 69 76 l 69 722 m 149 822 l 149 1000 l 354 1000 l 354 822 m 468 822 l 468 1000 l 674 1000 l 674 822 "},"ý":{"ha":793,"x_min":0,"x_max":0,"o":"m 786 722 l 528 -15 b 257 -271 463 -203 389 -271 b 140 -256 219 -271 179 -265 l 140 -104 b 229 -117 185 -115 211 -117 b 328 0 279 -117 310 -82 l 267 0 l 7 722 l 238 722 l 397 158 l 569 722 m 433 1000 l 668 1000 l 461 810 l 293 810 "},"þ":{"ha":882,"x_min":0,"x_max":0,"o":"m 76 -250 l 76 1000 l 293 1000 l 293 654 b 511 743 344 707 419 743 b 833 372 704 743 833 611 b 493 -21 833 88 650 -21 b 293 63 414 -21 343 11 l 293 -250 m 615 367 b 454 585 615 522 553 585 b 286 369 357 585 286 515 b 447 138 286 194 356 138 b 615 367 544 138 615 210 "},"ÿ":{"ha":793,"x_min":0,"x_max":0,"o":"m 786 722 l 528 -15 b 257 -271 463 -203 389 -271 b 140 -256 219 -271 179 -265 l 140 -104 b 229 -117 185 -115 211 -117 b 328 0 279 -117 310 -82 l 267 0 l 7 722 l 238 722 l 397 158 l 569 722 m 135 822 l 135 1000 l 340 1000 l 340 822 m 454 822 l 454 1000 l 660 1000 l 660 822 "},"Ā":{"ha":974,"x_min":0,"x_max":0,"o":"m 728 0 l 657 229 l 301 229 l 231 0 l 0 0 l 356 1000 l 615 1000 l 974 0 m 349 382 l 611 382 l 481 808 m 292 1108 l 292 1264 l 667 1264 l 667 1108 "},"ā":{"ha":806,"x_min":0,"x_max":0,"o":"m 63 514 b 411 743 97 658 218 743 b 736 478 611 743 736 643 l 736 0 l 567 0 l 540 75 b 301 -21 493 21 415 -21 b 49 208 154 -21 49 61 b 340 435 49 319 122 399 l 519 464 l 519 496 b 404 603 519 565 478 603 b 285 514 335 603 296 567 m 364 128 b 519 267 461 128 519 192 l 519 346 l 396 321 b 265 218 294 300 265 268 b 364 128 265 160 300 128 m 222 844 l 222 1000 l 597 1000 l 597 844 "},"Ă":{"ha":974,"x_min":0,"x_max":0,"o":"m 728 0 l 657 229 l 301 229 l 231 0 l 0 0 l 356 1000 l 615 1000 l 974 0 m 349 382 l 611 382 l 481 808 m 438 1285 b 481 1217 439 1236 454 1217 b 524 1285 507 1217 522 1236 l 696 1285 b 481 1100 681 1151 592 1100 b 265 1285 356 1100 279 1168 "},"ă":{"ha":806,"x_min":0,"x_max":0,"o":"m 63 514 b 411 743 97 658 218 743 b 736 478 611 743 736 643 l 736 0 l 567 0 l 540 75 b 301 -21 493 21 415 -21 b 49 208 154 -21 49 61 b 340 435 49 319 122 399 l 519 464 l 519 496 b 404 603 519 565 478 603 b 285 514 335 603 296 567 m 364 128 b 519 267 461 128 519 192 l 519 346 l 396 321 b 265 218 294 300 265 268 b 364 128 265 160 300 128 m 364 1021 b 407 953 365 972 381 953 b 450 1021 433 953 449 972 l 622 1021 b 407 836 607 888 518 836 b 192 1021 282 836 206 904 "},"Ą":{"ha":974,"x_min":0,"x_max":0,"o":"m 978 -190 b 754 -343 950 -279 881 -343 b 568 -185 644 -343 568 -283 b 725 8 568 -101 632 -35 l 657 229 l 301 229 l 231 0 l 0 0 l 356 1000 l 615 1000 l 974 0 l 850 0 b 718 -154 785 -35 718 -83 b 779 -221 718 -196 747 -221 b 829 -190 806 -221 822 -210 l 978 -190 m 349 382 l 611 382 l 481 808 "},"ą":{"ha":806,"x_min":0,"x_max":0,"o":"m 806 -190 b 582 -343 778 -279 708 -343 b 396 -185 472 -343 396 -283 b 563 13 396 -99 464 -29 l 540 75 b 301 -21 493 21 415 -21 b 49 208 154 -21 49 61 b 340 435 49 319 122 399 l 519 464 l 519 496 b 404 603 519 565 478 603 b 285 514 335 603 296 567 l 63 514 b 411 743 97 658 218 743 b 736 478 611 743 736 643 l 736 0 l 678 0 b 546 -154 613 -35 546 -83 b 607 -221 546 -196 575 -221 b 657 -190 633 -221 650 -210 l 806 -190 m 519 346 l 396 321 b 265 218 294 300 265 268 b 364 128 265 160 300 128 b 519 272 464 128 519 196 "},"Ć":{"ha":1029,"x_min":0,"x_max":0,"o":"m 525 143 b 743 368 656 143 732 211 l 981 368 b 521 -21 950 113 790 -21 b 56 503 254 -21 56 154 b 532 1021 56 842 240 1021 b 974 674 764 1021 938 899 l 740 674 b 532 858 714 799 639 858 b 299 503 393 858 299 754 b 525 143 299 239 401 143 m 576 1264 l 811 1264 l 604 1074 l 436 1074 "},"ć":{"ha":819,"x_min":0,"x_max":0,"o":"m 778 240 b 415 -21 743 92 631 -21 b 49 354 176 -21 49 114 b 419 743 49 599 192 743 b 776 500 611 743 747 644 l 549 500 b 426 596 532 558 482 596 b 274 350 335 596 274 528 b 418 126 274 194 339 126 b 550 240 482 126 526 161 m 467 1000 l 701 1000 l 494 810 l 326 810 "},"Ĉ":{"ha":1029,"x_min":0,"x_max":0,"o":"m 525 143 b 743 368 656 143 732 211 l 981 368 b 521 -21 950 113 790 -21 b 56 503 254 -21 56 154 b 532 1021 56 842 240 1021 b 974 674 764 1021 938 899 l 740 674 b 532 858 714 799 639 858 b 299 503 393 858 299 754 b 525 143 299 239 401 143 m 471 1094 l 249 1094 l 436 1285 l 631 1285 l 818 1094 l 597 1094 l 533 1176 "},"ĉ":{"ha":819,"x_min":0,"x_max":0,"o":"m 778 240 b 415 -21 743 92 631 -21 b 49 354 176 -21 49 114 b 419 743 49 599 192 743 b 776 500 611 743 747 644 l 549 500 b 426 596 532 558 482 596 b 274 350 335 596 274 528 b 418 126 274 194 339 126 b 550 240 482 126 526 161 m 343 831 l 121 831 l 308 1021 l 503 1021 l 690 831 l 469 831 l 406 913 "},"Ċ":{"ha":1029,"x_min":0,"x_max":0,"o":"m 525 143 b 743 368 656 143 732 211 l 981 368 b 521 -21 950 113 790 -21 b 56 503 254 -21 56 154 b 532 1021 56 842 240 1021 b 974 674 764 1021 938 899 l 740 674 b 532 858 714 799 639 858 b 299 503 393 858 299 754 b 525 143 299 239 401 143 m 410 1079 l 410 1264 l 643 1264 l 643 1079 "},"ċ":{"ha":819,"x_min":0,"x_max":0,"o":"m 778 240 b 415 -21 743 92 631 -21 b 49 354 176 -21 49 114 b 419 743 49 599 192 743 b 776 500 611 743 747 644 l 549 500 b 426 596 532 558 482 596 b 274 350 335 596 274 528 b 418 126 274 194 339 126 b 550 240 482 126 526 161 m 297 815 l 297 1000 l 531 1000 l 531 815 "},"Č":{"ha":1029,"x_min":0,"x_max":0,"o":"m 525 143 b 743 368 656 143 732 211 l 981 368 b 521 -21 950 113 790 -21 b 56 503 254 -21 56 154 b 532 1021 56 842 240 1021 b 974 674 764 1021 938 899 l 740 674 b 532 858 714 799 639 858 b 299 503 393 858 299 754 b 525 143 299 239 401 143 m 515 1203 l 579 1285 l 800 1285 l 613 1094 l 418 1094 l 231 1285 l 453 1285 "},"č":{"ha":819,"x_min":0,"x_max":0,"o":"m 778 240 b 415 -21 743 92 631 -21 b 49 354 176 -21 49 114 b 419 743 49 599 192 743 b 776 500 611 743 747 644 l 549 500 b 426 596 532 558 482 596 b 274 350 335 596 274 528 b 418 126 274 194 339 126 b 550 240 482 126 526 161 m 410 939 l 474 1021 l 694 1021 l 507 831 l 313 831 l 125 1021 l 347 1021 "},"Ď":{"ha":1013,"x_min":0,"x_max":0,"o":"m 458 1000 b 957 500 782 1000 957 842 b 461 0 957 150 774 0 l 83 0 l 83 1000 m 317 839 l 317 163 l 461 163 b 722 500 622 163 722 264 b 458 839 722 736 619 839 m 463 1203 l 526 1285 l 747 1285 l 560 1094 l 365 1094 l 178 1285 l 400 1285 "},"ď":{"ha":1092,"x_min":0,"x_max":0,"o":"m 636 0 l 600 79 b 379 -21 549 19 471 -21 b 49 354 185 -21 49 119 b 376 743 49 599 186 743 b 589 654 469 743 540 710 l 589 1000 l 806 1000 l 806 0 m 267 356 b 433 138 267 203 333 138 b 596 360 529 138 596 197 b 433 585 596 543 511 585 b 267 356 332 585 267 507 m 1103 856 b 865 583 1103 674 982 607 l 865 678 b 965 810 932 700 965 740 l 899 810 l 899 1000 l 1103 1000 "},"Đ":{"ha":1013,"x_min":0,"x_max":0,"o":"m 83 438 l 14 438 l 14 613 l 83 613 l 83 1000 l 458 1000 b 957 500 782 1000 957 842 b 461 0 957 150 774 0 l 83 0 m 317 438 l 317 163 l 461 163 b 722 500 622 163 722 264 b 458 839 722 736 619 839 l 317 839 l 317 613 l 496 613 l 496 438 "},"đ":{"ha":882,"x_min":0,"x_max":0,"o":"m 636 0 l 600 79 b 379 -21 549 19 471 -21 b 49 354 185 -21 49 119 b 376 743 49 599 186 743 b 589 654 469 743 540 710 l 589 792 l 419 792 l 419 939 l 589 939 l 589 1000 l 806 1000 l 806 939 l 861 939 l 861 792 l 806 792 l 806 0 m 267 356 b 433 138 267 203 333 138 b 596 360 529 138 596 197 b 433 585 596 543 511 585 b 267 356 332 585 267 507 "},"Ē":{"ha":807,"x_min":0,"x_max":0,"o":"m 718 424 l 317 424 l 317 168 l 758 168 l 758 0 l 83 0 l 83 1000 l 758 1000 l 758 829 l 317 829 l 317 585 l 718 585 m 233 1108 l 233 1264 l 608 1264 l 608 1108 "},"ē":{"ha":836,"x_min":0,"x_max":0,"o":"m 786 210 b 429 -21 754 76 646 -21 b 49 361 204 -21 49 121 b 422 743 49 607 196 743 b 794 308 653 743 794 603 l 268 308 b 440 131 283 182 347 131 b 565 210 508 131 553 163 m 418 607 b 268 435 336 607 281 558 l 572 435 b 418 607 567 556 510 607 m 233 844 l 233 1000 l 608 1000 l 608 844 "},"Ė":{"ha":807,"x_min":0,"x_max":0,"o":"m 718 424 l 317 424 l 317 168 l 758 168 l 758 0 l 83 0 l 83 1000 l 758 1000 l 758 829 l 317 829 l 317 585 l 718 585 m 311 1079 l 311 1264 l 544 1264 l 544 1079 "},"ė":{"ha":836,"x_min":0,"x_max":0,"o":"m 786 210 b 429 -21 754 76 646 -21 b 49 361 204 -21 49 121 b 422 743 49 607 196 743 b 794 308 653 743 794 603 l 268 308 b 440 131 283 182 347 131 b 565 210 508 131 553 163 m 418 607 b 268 435 336 607 281 558 l 572 435 b 418 607 567 556 510 607 m 303 815 l 303 1000 l 536 1000 l 536 815 "},"Ę":{"ha":807,"x_min":0,"x_max":0,"o":"m 718 424 l 317 424 l 317 168 l 758 168 l 758 0 l 588 0 b 456 -154 522 -35 456 -83 b 517 -221 456 -196 485 -221 b 567 -190 543 -221 560 -210 l 715 -190 b 492 -343 688 -279 618 -343 b 306 -185 382 -343 306 -283 b 446 0 306 -106 363 -43 l 83 0 l 83 1000 l 758 1000 l 758 829 l 317 829 l 317 585 l 718 585 "},"ę":{"ha":836,"x_min":0,"x_max":0,"o":"m 722 -190 b 499 -343 694 -279 625 -343 b 313 -185 389 -343 313 -283 b 417 -21 313 -118 353 -62 b 49 361 199 -15 49 125 b 422 743 49 607 196 743 b 794 308 653 743 794 603 l 268 308 b 440 131 283 182 347 131 b 565 210 508 131 553 163 l 786 210 b 614 10 765 121 708 51 b 463 -154 542 -22 463 -78 b 524 -221 463 -196 492 -221 b 574 -190 550 -221 567 -210 l 722 -190 m 418 607 b 268 435 336 607 281 558 l 572 435 b 418 607 567 556 510 607 "},"Ě":{"ha":807,"x_min":0,"x_max":0,"o":"m 718 424 l 317 424 l 317 168 l 758 168 l 758 0 l 83 0 l 83 1000 l 758 1000 l 758 829 l 317 829 l 317 585 l 718 585 m 431 1203 l 494 1285 l 715 1285 l 528 1094 l 333 1094 l 146 1285 l 368 1285 "},"ě":{"ha":836,"x_min":0,"x_max":0,"o":"m 786 210 b 429 -21 754 76 646 -21 b 49 361 204 -21 49 121 b 422 743 49 607 196 743 b 794 308 653 743 794 603 l 268 308 b 440 131 283 182 347 131 b 565 210 508 131 553 163 m 418 607 b 268 435 336 607 281 558 l 572 435 b 418 607 567 556 510 607 m 422 939 l 486 1021 l 707 1021 l 519 831 l 325 831 l 138 1021 l 360 1021 "},"Ĝ":{"ha":1040,"x_min":0,"x_max":0,"o":"m 971 0 l 821 0 l 788 93 b 500 -21 728 26 632 -21 b 56 504 258 -21 56 146 b 543 1021 56 844 249 1021 b 971 714 768 1021 931 907 l 739 714 b 543 858 713 813 642 858 b 299 504 403 858 299 760 b 544 143 299 249 406 143 b 769 335 674 143 769 222 l 769 406 l 533 406 l 533 557 l 971 557 m 449 1094 l 226 1094 l 414 1285 l 608 1285 l 796 1094 l 575 1094 l 511 1176 "},"ĝ":{"ha":868,"x_min":0,"x_max":0,"o":"m 288 -44 b 435 -119 314 -101 350 -119 b 575 25 526 -119 575 -75 l 575 89 b 379 21 524 47 456 21 b 49 375 196 21 49 149 b 381 743 49 610 189 743 b 590 656 464 743 538 713 l 628 722 l 792 722 l 792 39 b 431 -271 792 -151 657 -271 b 67 -44 201 -271 89 -185 m 267 376 b 433 179 267 239 336 179 b 596 376 536 179 596 246 b 433 585 596 519 533 585 b 267 376 336 585 267 515 m 369 831 l 147 831 l 335 1021 l 529 1021 l 717 831 l 496 831 l 432 913 "},"Ğ":{"ha":1040,"x_min":0,"x_max":0,"o":"m 971 0 l 821 0 l 788 93 b 500 -21 728 26 632 -21 b 56 504 258 -21 56 146 b 543 1021 56 844 249 1021 b 971 714 768 1021 931 907 l 739 714 b 543 858 713 813 642 858 b 299 504 403 858 299 760 b 544 143 299 249 406 143 b 769 335 674 143 769 222 l 769 406 l 533 406 l 533 557 l 971 557 m 478 1285 b 521 1217 479 1236 494 1217 b 564 1285 547 1217 563 1236 l 736 1285 b 521 1100 721 1151 632 1100 b 306 1285 396 1100 319 1168 "},"ğ":{"ha":868,"x_min":0,"x_max":0,"o":"m 288 -44 b 435 -119 314 -101 350 -119 b 575 25 526 -119 575 -75 l 575 89 b 379 21 524 47 456 21 b 49 375 196 21 49 149 b 381 743 49 610 189 743 b 590 656 464 743 538 713 l 628 722 l 792 722 l 792 39 b 431 -271 792 -151 657 -271 b 67 -44 201 -271 89 -185 m 267 376 b 433 179 267 239 336 179 b 596 376 536 179 596 246 b 433 585 596 519 533 585 b 267 376 336 585 267 515 m 394 1021 b 438 953 396 972 411 953 b 481 1021 464 953 479 972 l 653 1021 b 438 836 638 888 549 836 b 222 1021 313 836 236 904 "},"Ġ":{"ha":1040,"x_min":0,"x_max":0,"o":"m 971 0 l 821 0 l 788 93 b 500 -21 728 26 632 -21 b 56 504 258 -21 56 146 b 543 1021 56 844 249 1021 b 971 714 768 1021 931 907 l 739 714 b 543 858 713 813 642 858 b 299 504 403 858 299 760 b 544 143 299 249 406 143 b 769 335 674 143 769 222 l 769 406 l 533 406 l 533 557 l 971 557 m 422 1079 l 422 1264 l 656 1264 l 656 1079 "},"ġ":{"ha":868,"x_min":0,"x_max":0,"o":"m 288 -44 b 435 -119 314 -101 350 -119 b 575 25 526 -119 575 -75 l 575 89 b 379 21 524 47 456 21 b 49 375 196 21 49 149 b 381 743 49 610 189 743 b 590 656 464 743 538 713 l 628 722 l 792 722 l 792 39 b 431 -271 792 -151 657 -271 b 67 -44 201 -271 89 -185 m 267 376 b 433 179 267 239 336 179 b 596 376 536 179 596 246 b 433 585 596 519 533 585 b 267 376 336 585 267 515 m 313 815 l 313 1000 l 546 1000 l 546 815 "},"Ģ":{"ha":1040,"x_min":0,"x_max":0,"o":"m 971 0 l 821 0 l 788 93 b 500 -21 728 26 632 -21 b 56 504 258 -21 56 146 b 543 1021 56 844 249 1021 b 971 714 768 1021 931 907 l 739 714 b 543 858 713 813 642 858 b 299 504 403 858 299 760 b 544 143 299 249 406 143 b 769 335 674 143 769 222 l 769 406 l 533 406 l 533 557 l 971 557 m 618 -229 b 381 -501 618 -411 497 -478 l 381 -407 b 481 -275 447 -385 481 -344 l 414 -275 l 414 -85 l 618 -85 "},"ģ":{"ha":868,"x_min":0,"x_max":0,"o":"m 288 -44 b 435 -119 314 -101 350 -119 b 575 25 526 -119 575 -75 l 575 89 b 379 21 524 47 456 21 b 49 375 196 21 49 149 b 381 743 49 610 189 743 b 590 656 464 743 538 713 l 628 722 l 792 722 l 792 39 b 431 -271 792 -151 657 -271 b 67 -44 201 -271 89 -185 m 267 376 b 433 179 267 239 336 179 b 596 376 536 179 596 246 b 433 585 596 519 533 585 b 267 376 336 585 267 515 m 333 935 b 571 1207 333 1117 454 1183 l 571 1113 b 471 981 504 1090 471 1050 l 538 981 l 538 790 l 333 790 "},"Ĥ":{"ha":1004,"x_min":0,"x_max":0,"o":"m 921 1000 l 921 0 l 689 0 l 689 422 l 317 422 l 317 0 l 83 0 l 83 1000 l 317 1000 l 317 589 l 689 589 l 689 1000 m 439 1094 l 217 1094 l 404 1285 l 599 1285 l 786 1094 l 565 1094 l 501 1176 "},"ĥ":{"ha":835,"x_min":0,"x_max":0,"o":"m 76 1000 l 293 1000 l 293 657 b 499 743 339 708 406 743 b 765 467 667 743 765 644 l 765 0 l 549 0 l 549 458 b 438 590 549 553 507 590 b 293 435 356 590 293 531 l 293 0 l 76 0 m 307 1094 l 85 1094 l 272 1285 l 467 1285 l 654 1094 l 433 1094 l 369 1176 "},"Ħ":{"ha":1004,"x_min":0,"x_max":0,"o":"m 921 1000 l 921 883 l 983 883 l 983 729 l 921 729 l 921 0 l 689 0 l 689 422 l 317 422 l 317 0 l 83 0 l 83 729 l 21 729 l 21 883 l 83 883 l 83 1000 l 317 1000 l 317 883 l 689 883 l 689 1000 m 317 589 l 689 589 l 689 729 l 317 729 "},"ħ":{"ha":835,"x_min":0,"x_max":0,"o":"m 76 792 l 21 792 l 21 939 l 76 939 l 76 1000 l 293 1000 l 293 939 l 476 939 l 476 792 l 293 792 l 293 657 b 499 743 339 708 406 743 b 765 467 667 743 765 644 l 765 0 l 549 0 l 549 458 b 438 590 549 553 507 590 b 293 435 356 590 293 531 l 293 0 l 76 0 "},"Ĩ":{"ha":400,"x_min":0,"x_max":0,"o":"m 317 1000 l 317 0 l 83 0 l 83 1000 m 290 1086 b 110 1139 208 1086 174 1139 b -8 1086 78 1139 32 1118 l -8 1239 b 115 1285 32 1268 76 1285 b 296 1232 197 1285 232 1232 b 408 1285 328 1232 368 1253 l 408 1132 b 290 1086 368 1103 329 1086 "},"ĩ":{"ha":369,"x_min":0,"x_max":0,"o":"m 76 0 l 76 722 l 293 722 l 293 0 m 275 822 b 94 875 193 822 158 875 b -24 822 63 875 17 854 l -24 975 b 100 1021 17 1004 61 1021 b 281 968 182 1021 217 968 b 393 1021 313 968 353 989 l 393 868 b 275 822 353 839 314 822 "},"Ī":{"ha":400,"x_min":0,"x_max":0,"o":"m 317 1000 l 317 0 l 83 0 l 83 1000 m 14 1108 l 14 1264 l 389 1264 l 389 1108 "},"ī":{"ha":369,"x_min":0,"x_max":0,"o":"m 76 0 l 76 722 l 293 722 l 293 0 m -3 844 l -3 1000 l 372 1000 l 372 844 "},"Į":{"ha":400,"x_min":0,"x_max":0,"o":"m 343 -190 b 119 -343 315 -279 246 -343 b -67 -185 10 -343 -67 -283 b 83 4 -67 -103 -6 -37 l 83 1000 l 317 1000 l 317 0 l 215 0 b 83 -154 150 -35 83 -83 b 144 -221 83 -196 113 -221 b 194 -190 171 -221 188 -210 l 343 -190 "},"į":{"ha":369,"x_min":0,"x_max":0,"o":"m 324 -190 b 100 -343 296 -279 226 -343 b -86 -185 -10 -343 -86 -283 b 76 11 -86 -100 -19 -31 l 76 722 l 293 722 l 293 0 l 196 0 b 64 -154 131 -35 64 -83 b 125 -221 64 -196 93 -221 b 175 -190 151 -221 168 -210 l 324 -190 m 68 815 l 68 1000 l 301 1000 l 301 815 "},"İ":{"ha":400,"x_min":0,"x_max":0,"o":"m 317 1000 l 317 0 l 83 0 l 83 1000 m 83 1079 l 83 1264 l 317 1264 l 317 1079 "},"ı":{"ha":369,"x_min":0,"x_max":0,"o":"m 76 0 l 76 722 l 293 722 l 293 0 "},"Ĵ":{"ha":785,"x_min":0,"x_max":0,"o":"m 250 296 b 371 144 256 182 317 144 b 485 301 431 144 485 178 l 485 1000 l 708 1000 l 708 317 b 376 -21 708 110 601 -21 b 28 296 211 -21 50 61 m 528 1094 l 306 1094 l 493 1285 l 688 1285 l 875 1094 l 654 1094 l 590 1176 "},"ĵ":{"ha":385,"x_min":0,"x_max":0,"o":"m -75 -99 b 11 -111 -44 -107 -8 -111 b 83 -36 61 -111 83 -90 l 83 722 l 300 722 l 300 -40 b 60 -271 300 -179 217 -271 b -75 -250 17 -271 -39 -262 m 114 831 l -108 831 l 79 1021 l 274 1021 l 461 831 l 240 831 l 176 913 "},"Ķ":{"ha":994,"x_min":0,"x_max":0,"o":"m 689 0 l 317 436 l 317 0 l 83 0 l 83 1000 l 317 1000 l 317 581 l 669 1000 l 942 1000 l 524 532 l 994 0 m 554 -229 b 317 -501 554 -411 433 -478 l 317 -407 b 417 -275 383 -385 417 -344 l 350 -275 l 350 -85 l 554 -85 "},"ķ":{"ha":813,"x_min":0,"x_max":0,"o":"m 76 0 l 76 1000 l 293 1000 l 293 463 l 538 722 l 790 722 l 496 421 l 826 0 l 549 0 l 293 332 l 293 0 m 496 -229 b 258 -501 496 -411 375 -478 l 258 -407 b 358 -275 325 -385 358 -344 l 292 -275 l 292 -85 l 496 -85 "},"ĸ":{"ha":813,"x_min":0,"x_max":0,"o":"m 76 0 l 76 722 l 293 722 l 293 451 l 538 722 l 790 722 l 496 407 l 826 0 l 549 0 l 293 321 l 293 0 "},"Ĺ":{"ha":831,"x_min":0,"x_max":0,"o":"m 317 1000 l 317 175 l 803 175 l 803 0 l 83 0 l 83 1000 m 228 1264 l 463 1264 l 256 1074 l 88 1074 "},"ĺ":{"ha":369,"x_min":0,"x_max":0,"o":"m 293 0 l 76 0 l 76 1000 l 293 1000 m 171 1264 l 406 1264 l 199 1074 l 31 1074 "},"Ļ":{"ha":831,"x_min":0,"x_max":0,"o":"m 317 1000 l 317 175 l 803 175 l 803 0 l 83 0 l 83 1000 m 525 -229 b 288 -501 525 -411 404 -478 l 288 -407 b 388 -275 354 -385 388 -344 l 321 -275 l 321 -85 l 525 -85 "},"ļ":{"ha":369,"x_min":0,"x_max":0,"o":"m 293 0 l 76 0 l 76 1000 l 293 1000 m 286 -229 b 49 -501 286 -411 165 -478 l 49 -407 b 149 -275 115 -385 149 -344 l 82 -275 l 82 -85 l 286 -85 "},"Ľ":{"ha":831,"x_min":0,"x_max":0,"o":"m 317 1000 l 317 175 l 803 175 l 803 0 l 83 0 l 83 1000 m 621 856 b 383 583 621 674 500 607 l 383 678 b 483 810 450 700 483 740 l 417 810 l 417 1000 l 621 1000 "},"ľ":{"ha":539,"x_min":0,"x_max":0,"o":"m 293 0 l 76 0 l 76 1000 l 293 1000 m 560 856 b 322 583 560 674 439 607 l 322 678 b 422 810 389 700 422 740 l 356 810 l 356 1000 l 560 1000 "},"Ł":{"ha":846,"x_min":0,"x_max":0,"o":"m 332 1000 l 332 703 l 486 794 l 486 597 l 332 506 l 332 175 l 818 175 l 818 0 l 99 0 l 99 367 l 14 317 l 14 514 l 99 564 l 99 1000 "},"ł":{"ha":385,"x_min":0,"x_max":0,"o":"m 294 710 l 364 753 l 364 553 l 294 510 l 294 0 l 78 0 l 78 374 l 21 339 l 21 539 l 78 574 l 78 1000 l 294 1000 "},"Ń":{"ha":1001,"x_min":0,"x_max":0,"o":"m 918 1000 l 918 0 l 678 0 l 283 710 l 283 0 l 83 0 l 83 1000 l 342 1000 l 719 317 l 719 1000 m 551 1264 l 786 1264 l 579 1074 l 411 1074 "},"ń":{"ha":835,"x_min":0,"x_max":0,"o":"m 76 0 l 76 722 l 256 722 l 276 643 b 497 743 322 701 394 743 b 765 467 665 743 765 642 l 765 0 l 549 0 l 549 458 b 438 590 549 554 506 590 b 293 428 354 590 293 528 l 293 0 m 488 1000 l 722 1000 l 515 810 l 347 810 "},"Ņ":{"ha":1001,"x_min":0,"x_max":0,"o":"m 918 1000 l 918 0 l 678 0 l 283 710 l 283 0 l 83 0 l 83 1000 l 342 1000 l 719 317 l 719 1000 m 604 -229 b 367 -501 604 -411 483 -478 l 367 -407 b 467 -275 433 -385 467 -344 l 400 -275 l 400 -85 l 604 -85 "},"ņ":{"ha":835,"x_min":0,"x_max":0,"o":"m 76 0 l 76 722 l 256 722 l 276 643 b 497 743 322 701 394 743 b 765 467 665 743 765 642 l 765 0 l 549 0 l 549 458 b 438 590 549 554 506 590 b 293 428 354 590 293 528 l 293 0 m 524 -229 b 286 -501 524 -411 403 -478 l 286 -407 b 386 -275 353 -385 386 -344 l 319 -275 l 319 -85 l 524 -85 "},"Ň":{"ha":1001,"x_min":0,"x_max":0,"o":"m 918 1000 l 918 0 l 678 0 l 283 710 l 283 0 l 83 0 l 83 1000 l 342 1000 l 719 317 l 719 1000 m 521 1203 l 585 1285 l 806 1285 l 618 1094 l 424 1094 l 236 1285 l 458 1285 "},"ň":{"ha":835,"x_min":0,"x_max":0,"o":"m 76 0 l 76 722 l 256 722 l 276 643 b 497 743 322 701 394 743 b 765 467 665 743 765 642 l 765 0 l 549 0 l 549 458 b 438 590 549 554 506 590 b 293 428 354 590 293 528 l 293 0 m 440 939 l 504 1021 l 725 1021 l 538 831 l 343 831 l 156 1021 l 378 1021 "},"Ŋ":{"ha":1001,"x_min":0,"x_max":0,"o":"m 543 -99 b 629 -111 574 -107 610 -111 b 719 -36 693 -111 719 -90 l 719 0 l 678 0 l 283 710 l 283 0 l 83 0 l 83 1000 l 342 1000 l 719 317 l 719 1000 l 918 1000 l 918 -40 b 678 -271 918 -179 835 -271 b 543 -250 635 -271 579 -262 "},"ŋ":{"ha":835,"x_min":0,"x_max":0,"o":"m 76 0 l 76 722 l 256 722 l 276 643 b 497 743 322 701 394 743 b 765 467 665 743 765 642 l 765 -40 b 525 -271 765 -179 682 -271 b 390 -250 482 -271 426 -262 l 390 -99 b 476 -111 421 -107 457 -111 b 549 -36 526 -111 549 -90 l 549 458 b 438 590 549 553 507 590 b 293 431 356 590 293 526 l 293 0 "},"Ō":{"ha":1089,"x_min":0,"x_max":0,"o":"m 544 144 b 797 500 672 144 797 229 b 544 857 797 771 669 857 b 292 499 415 857 292 769 b 544 144 292 228 421 144 m 544 -21 b 56 499 300 -21 56 111 b 544 1021 56 879 299 1021 b 1033 500 790 1021 1033 888 b 544 -21 1033 119 789 -21 m 357 1108 l 357 1264 l 732 1264 l 732 1108 "},"ō":{"ha":861,"x_min":0,"x_max":0,"o":"m 49 364 b 431 743 49 613 188 743 b 813 364 672 743 813 613 b 431 -21 813 114 674 -21 b 49 364 194 -21 49 113 m 272 364 b 432 125 272 190 331 125 b 590 364 538 125 590 188 b 431 597 590 540 535 597 b 272 364 324 597 272 538 m 243 844 l 243 1000 l 618 1000 l 618 844 "},"Ő":{"ha":1089,"x_min":0,"x_max":0,"o":"m 544 144 b 797 500 672 144 797 229 b 544 857 797 771 669 857 b 292 499 415 857 292 769 b 544 144 292 228 421 144 m 544 -21 b 56 499 300 -21 56 111 b 544 1021 56 879 299 1021 b 1033 500 790 1021 1033 888 b 544 -21 1033 119 789 -21 m 450 1285 l 685 1285 l 478 1094 l 310 1094 m 756 1285 l 990 1285 l 783 1094 l 615 1094 "},"ő":{"ha":861,"x_min":0,"x_max":0,"o":"m 49 364 b 431 743 49 613 188 743 b 813 364 672 743 813 613 b 431 -21 813 114 674 -21 b 49 364 194 -21 49 113 m 272 364 b 432 125 272 190 331 125 b 590 364 538 125 590 188 b 431 597 590 540 535 597 b 272 364 324 597 272 538 m 332 1021 l 567 1021 l 360 831 l 192 831 m 638 1021 l 872 1021 l 665 831 l 497 831 "},"Œ":{"ha":1313,"x_min":0,"x_max":0,"o":"m 1224 424 l 850 424 l 850 168 l 1264 168 l 1264 0 l 671 0 b 536 -21 635 -12 590 -21 b 56 499 288 -21 56 111 b 538 1021 56 879 301 1021 b 679 1000 589 1021 636 1013 l 1264 1000 l 1264 829 l 850 829 l 850 585 l 1224 585 m 540 144 b 617 156 565 144 592 147 l 617 846 b 547 857 596 851 571 857 b 292 499 418 857 292 769 b 540 144 292 228 418 144 "},"œ":{"ha":1371,"x_min":0,"x_max":0,"o":"m 1321 210 b 964 -21 1289 76 1181 -21 b 701 82 856 -21 765 18 b 431 -21 638 17 547 -21 b 49 364 194 -21 49 113 b 431 743 49 613 188 743 b 699 644 546 743 636 706 b 957 743 761 706 850 743 b 1329 308 1188 743 1329 603 l 803 308 b 975 131 818 182 882 131 b 1100 210 1043 131 1088 163 m 272 364 b 432 125 272 190 331 125 b 590 364 535 125 590 183 b 431 597 590 540 535 597 b 272 364 324 597 272 538 m 953 607 b 803 435 871 607 815 558 l 1107 435 b 953 607 1101 556 1044 607 "},"Ŕ":{"ha":921,"x_min":0,"x_max":0,"o":"m 638 0 l 417 365 l 289 365 l 289 0 l 56 0 l 56 1000 l 424 1000 b 847 683 703 1000 847 889 b 649 406 847 544 783 456 l 914 0 m 289 839 l 289 526 l 435 526 b 606 683 535 526 606 582 b 426 839 606 792 544 839 m 440 1264 l 675 1264 l 468 1074 l 300 1074 "},"ŕ":{"ha":551,"x_min":0,"x_max":0,"o":"m 76 0 l 76 722 l 257 722 l 281 613 b 469 743 319 697 383 743 b 551 733 500 743 532 739 l 551 532 b 458 546 525 540 496 546 b 293 300 372 546 293 461 l 293 0 m 354 1000 l 589 1000 l 382 810 l 214 810 "},"Ŗ":{"ha":921,"x_min":0,"x_max":0,"o":"m 638 0 l 417 365 l 289 365 l 289 0 l 56 0 l 56 1000 l 424 1000 b 847 683 703 1000 847 889 b 649 406 847 544 783 456 l 914 0 m 289 839 l 289 526 l 435 526 b 606 683 535 526 606 582 b 426 839 606 792 544 839 m 536 -229 b 299 -501 536 -411 415 -478 l 299 -407 b 399 -275 365 -385 399 -344 l 332 -275 l 332 -85 l 536 -85 "},"ŗ":{"ha":551,"x_min":0,"x_max":0,"o":"m 76 0 l 76 722 l 257 722 l 281 613 b 469 743 319 697 383 743 b 551 733 500 743 532 739 l 551 532 b 458 546 525 540 496 546 b 293 300 372 546 293 461 l 293 0 m 285 -229 b 47 -501 285 -411 164 -478 l 47 -407 b 147 -275 114 -385 147 -344 l 81 -275 l 81 -85 l 285 -85 "},"Ř":{"ha":921,"x_min":0,"x_max":0,"o":"m 638 0 l 417 365 l 289 365 l 289 0 l 56 0 l 56 1000 l 424 1000 b 847 683 703 1000 847 889 b 649 406 847 544 783 456 l 914 0 m 289 839 l 289 526 l 435 526 b 606 683 535 526 606 582 b 426 839 606 792 544 839 m 397 1203 l 461 1285 l 682 1285 l 494 1094 l 300 1094 l 113 1285 l 335 1285 "},"ř":{"ha":551,"x_min":0,"x_max":0,"o":"m 76 0 l 76 722 l 257 722 l 281 613 b 469 743 319 697 383 743 b 551 733 500 743 532 739 l 551 532 b 458 546 525 540 496 546 b 293 300 372 546 293 461 l 293 0 m 306 939 l 369 1021 l 590 1021 l 403 831 l 208 831 l 21 1021 l 243 1021 "},"Ś":{"ha":936,"x_min":0,"x_max":0,"o":"m 478 -21 b 42 294 221 -21 69 103 l 263 294 b 481 142 278 207 349 142 b 667 257 615 142 667 186 b 417 421 667 360 560 388 b 78 732 250 460 78 521 b 479 1021 78 908 214 1021 b 876 743 713 1021 850 917 l 658 743 b 474 861 647 818 574 861 b 313 760 356 861 313 821 b 515 622 313 678 376 653 b 901 283 707 581 901 503 b 478 -21 901 122 775 -21 m 507 1264 l 742 1264 l 535 1074 l 367 1074 "},"ś":{"ha":768,"x_min":0,"x_max":0,"o":"m 379 126 b 500 194 465 126 500 151 b 328 285 500 244 460 253 b 65 518 189 318 65 365 b 385 743 65 653 172 743 b 717 522 571 743 692 660 l 499 522 b 379 596 489 567 449 596 b 282 536 310 596 282 574 b 432 451 282 496 310 482 b 719 224 564 418 719 383 b 381 -21 719 81 611 -21 b 35 204 183 -21 58 71 l 253 204 b 379 126 263 158 311 126 m 407 1000 l 642 1000 l 435 810 l 267 810 "},"Ŝ":{"ha":936,"x_min":0,"x_max":0,"o":"m 478 -21 b 42 294 221 -21 69 103 l 263 294 b 481 142 278 207 349 142 b 667 257 615 142 667 186 b 417 421 667 360 560 388 b 78 732 250 460 78 521 b 479 1021 78 908 214 1021 b 876 743 713 1021 850 917 l 658 743 b 474 861 647 818 574 861 b 313 760 356 861 313 821 b 515 622 313 678 376 653 b 901 283 707 581 901 503 b 478 -21 901 122 775 -21 m 404 1094 l 182 1094 l 369 1285 l 564 1285 l 751 1094 l 531 1094 l 467 1176 "},"ŝ":{"ha":768,"x_min":0,"x_max":0,"o":"m 379 126 b 500 194 465 126 500 151 b 328 285 500 244 460 253 b 65 518 189 318 65 365 b 385 743 65 653 172 743 b 717 522 571 743 692 660 l 499 522 b 379 596 489 567 449 596 b 282 536 310 596 282 574 b 432 451 282 496 310 482 b 719 224 564 418 719 383 b 381 -21 719 81 611 -21 b 35 204 183 -21 58 71 l 253 204 b 379 126 263 158 311 126 m 321 831 l 99 831 l 286 1021 l 481 1021 l 668 831 l 447 831 l 383 913 "},"Ş":{"ha":936,"x_min":0,"x_max":0,"o":"m 524 -197 b 410 -137 524 -158 486 -137 l 421 -18 b 42 294 199 -1 67 117 l 263 294 b 481 142 278 207 349 142 b 667 250 608 142 667 185 b 417 421 667 360 560 388 b 78 732 250 460 78 521 b 479 1021 78 908 214 1021 b 876 743 713 1021 850 917 l 658 743 b 474 861 647 818 574 861 b 313 760 356 861 313 821 b 515 622 313 678 376 653 b 901 283 707 581 901 503 b 546 -18 901 135 794 1 l 546 -56 b 665 -193 621 -72 665 -121 b 465 -358 665 -283 588 -358 b 251 -190 336 -358 264 -290 l 390 -190 b 461 -247 393 -215 406 -247 b 524 -197 503 -247 524 -224 "},"ş":{"ha":768,"x_min":0,"x_max":0,"o":"m 439 -197 b 325 -137 439 -158 401 -137 l 336 -19 b 35 204 164 -7 56 81 l 253 204 b 379 126 263 158 311 126 b 500 194 465 126 500 151 b 328 285 500 244 460 253 b 65 518 189 318 65 365 b 385 743 65 653 172 743 b 717 522 571 743 692 660 l 499 522 b 379 596 489 567 449 596 b 282 536 310 596 282 574 b 432 451 282 496 310 482 b 719 224 564 418 719 383 b 461 -15 719 99 636 6 l 461 -56 b 581 -193 536 -72 581 -121 b 381 -358 581 -283 503 -358 b 167 -190 251 -358 179 -290 l 306 -190 b 376 -247 308 -215 321 -247 b 439 -197 418 -247 439 -224 "},"Š":{"ha":936,"x_min":0,"x_max":0,"o":"m 478 -21 b 42 294 221 -21 69 103 l 263 294 b 481 142 278 207 349 142 b 667 257 615 142 667 186 b 417 421 667 360 560 388 b 78 732 250 460 78 521 b 479 1021 78 908 214 1021 b 876 743 713 1021 850 917 l 658 743 b 474 861 647 818 574 861 b 313 760 356 861 313 821 b 515 622 313 678 376 653 b 901 283 707 581 901 503 b 478 -21 901 122 775 -21 m 475 1203 l 539 1285 l 760 1285 l 572 1094 l 378 1094 l 190 1285 l 413 1285 "},"š":{"ha":768,"x_min":0,"x_max":0,"o":"m 379 126 b 500 194 465 126 500 151 b 328 285 500 244 460 253 b 65 518 189 318 65 365 b 385 743 65 653 172 743 b 717 522 571 743 692 660 l 499 522 b 379 596 489 567 449 596 b 282 536 310 596 282 574 b 432 451 282 496 310 482 b 719 224 564 418 719 383 b 381 -21 719 81 611 -21 b 35 204 183 -21 58 71 l 253 204 b 379 126 263 158 311 126 m 371 939 l 435 1021 l 656 1021 l 468 831 l 274 831 l 86 1021 l 308 1021 "},"Ţ":{"ha":838,"x_min":0,"x_max":0,"o":"m 831 825 l 533 825 l 533 0 l 300 0 l 300 825 l 7 825 l 7 1000 l 831 1000 m 518 -229 b 281 -501 518 -411 397 -478 l 281 -407 b 381 -275 347 -385 381 -344 l 314 -275 l 314 -85 l 518 -85 "},"ţ":{"ha":511,"x_min":0,"x_max":0,"o":"m 490 -1 b 358 -21 451 -12 403 -21 b 124 201 213 -21 124 57 l 124 572 l 14 572 l 14 722 l 124 722 l 138 896 l 340 896 l 340 722 l 489 722 l 489 572 l 340 572 l 340 194 b 411 133 340 154 369 133 b 490 146 428 133 461 139 m 363 -229 b 125 -501 363 -411 242 -478 l 125 -407 b 225 -275 192 -385 225 -344 l 158 -275 l 158 -85 l 363 -85 "},"Ť":{"ha":838,"x_min":0,"x_max":0,"o":"m 831 825 l 533 825 l 533 0 l 300 0 l 300 825 l 7 825 l 7 1000 l 831 1000 m 418 1203 l 482 1285 l 703 1285 l 515 1094 l 321 1094 l 133 1285 l 356 1285 "},"ť":{"ha":594,"x_min":0,"x_max":0,"o":"m 594 924 b 408 754 594 833 531 763 l 408 831 b 461 878 438 836 461 853 l 421 878 l 421 1013 l 594 1013 m 490 -1 b 358 -21 451 -12 403 -21 b 124 201 213 -21 124 57 l 124 572 l 14 572 l 14 722 l 124 722 l 138 896 l 340 896 l 340 722 l 489 722 l 489 572 l 340 572 l 340 194 b 411 133 340 154 369 133 b 490 146 428 133 461 139 "},"Ŧ":{"ha":838,"x_min":0,"x_max":0,"o":"m 533 492 l 533 0 l 300 0 l 300 492 l 144 492 l 144 646 l 300 646 l 300 825 l 7 825 l 7 1000 l 831 1000 l 831 825 l 533 825 l 533 646 l 689 646 l 689 492 "},"ŧ":{"ha":511,"x_min":0,"x_max":0,"o":"m 490 -1 b 358 -21 451 -12 403 -21 b 124 201 213 -21 124 57 l 124 382 l 31 382 l 31 528 l 124 528 l 124 572 l 14 572 l 14 722 l 124 722 l 138 896 l 340 896 l 340 722 l 489 722 l 489 572 l 340 572 l 340 528 l 461 528 l 461 382 l 340 382 l 340 194 b 411 133 340 154 369 133 b 490 146 428 133 461 139 "},"Ũ":{"ha":994,"x_min":0,"x_max":0,"o":"m 310 1000 l 310 319 b 499 144 310 207 376 144 b 694 319 621 144 694 207 l 694 1000 l 918 1000 l 918 335 b 497 -21 918 111 765 -21 b 76 335 229 -21 76 111 l 76 1000 m 588 1086 b 407 1139 506 1086 471 1139 b 289 1086 375 1139 329 1118 l 289 1239 b 413 1285 329 1268 374 1285 b 593 1232 494 1285 529 1232 b 706 1285 625 1232 665 1253 l 706 1132 b 588 1086 665 1103 626 1086 "},"ũ":{"ha":828,"x_min":0,"x_max":0,"o":"m 286 722 l 286 244 b 401 132 286 172 328 132 b 535 289 476 132 535 189 l 535 722 l 751 722 l 751 0 l 572 0 l 551 76 b 333 -21 501 15 426 -21 b 69 253 168 -21 69 76 l 69 722 m 506 822 b 325 875 424 822 389 875 b 207 822 293 875 247 854 l 207 975 b 331 1021 247 1004 292 1021 b 511 968 413 1021 447 968 b 624 1021 543 968 583 989 l 624 868 b 506 822 583 839 544 822 "},"Ū":{"ha":994,"x_min":0,"x_max":0,"o":"m 310 1000 l 310 319 b 499 144 310 207 376 144 b 694 319 621 144 694 207 l 694 1000 l 918 1000 l 918 335 b 497 -21 918 111 765 -21 b 76 335 229 -21 76 111 l 76 1000 m 310 1108 l 310 1264 l 685 1264 l 685 1108 "},"ū":{"ha":828,"x_min":0,"x_max":0,"o":"m 286 722 l 286 244 b 401 132 286 172 328 132 b 535 289 476 132 535 189 l 535 722 l 751 722 l 751 0 l 572 0 l 551 76 b 333 -21 501 15 426 -21 b 69 253 168 -21 69 76 l 69 722 m 225 844 l 225 1000 l 600 1000 l 600 844 "},"Ŭ":{"ha":994,"x_min":0,"x_max":0,"o":"m 310 1000 l 310 319 b 499 144 310 207 376 144 b 694 319 621 144 694 207 l 694 1000 l 918 1000 l 918 335 b 497 -21 918 111 765 -21 b 76 335 229 -21 76 111 l 76 1000 m 454 1285 b 497 1217 456 1236 471 1217 b 540 1285 524 1217 539 1236 l 713 1285 b 497 1100 697 1151 608 1100 b 282 1285 372 1100 296 1168 "},"ŭ":{"ha":828,"x_min":0,"x_max":0,"o":"m 286 722 l 286 244 b 401 132 286 172 328 132 b 535 289 476 132 535 189 l 535 722 l 751 722 l 751 0 l 572 0 l 551 76 b 333 -21 501 15 426 -21 b 69 253 168 -21 69 76 l 69 722 m 360 1021 b 403 953 361 972 376 953 b 446 1021 429 953 444 972 l 618 1021 b 403 836 603 888 514 836 b 188 1021 278 836 201 904 "},"Ů":{"ha":994,"x_min":0,"x_max":0,"o":"m 310 1000 l 310 319 b 499 144 310 207 376 144 b 694 319 621 144 694 207 l 694 1000 l 918 1000 l 918 335 b 497 -21 918 111 765 -21 b 76 335 229 -21 76 111 l 76 1000 m 440 1194 b 497 1124 440 1147 465 1124 b 554 1194 529 1124 554 1147 b 497 1265 554 1242 531 1265 b 440 1194 464 1265 440 1242 m 690 1194 b 497 1024 690 1101 622 1024 b 304 1194 372 1024 304 1101 b 497 1365 304 1288 374 1365 b 690 1194 621 1365 690 1288 "},"ů":{"ha":828,"x_min":0,"x_max":0,"o":"m 286 722 l 286 244 b 401 132 286 172 328 132 b 535 289 476 132 535 189 l 535 722 l 751 722 l 751 0 l 572 0 l 551 76 b 333 -21 501 15 426 -21 b 69 253 168 -21 69 76 l 69 722 m 349 972 b 406 901 349 925 374 901 b 463 972 438 901 463 925 b 406 1043 463 1019 439 1043 b 349 972 372 1043 349 1019 m 599 972 b 406 801 599 879 531 801 b 213 972 281 801 213 879 b 406 1143 213 1065 282 1143 b 599 972 529 1143 599 1065 "},"Ű":{"ha":994,"x_min":0,"x_max":0,"o":"m 310 1000 l 310 319 b 499 144 310 207 376 144 b 694 319 621 144 694 207 l 694 1000 l 918 1000 l 918 335 b 497 -21 918 111 765 -21 b 76 335 229 -21 76 111 l 76 1000 m 382 1285 l 617 1285 l 410 1094 l 242 1094 m 688 1285 l 922 1285 l 715 1094 l 547 1094 "},"ű":{"ha":828,"x_min":0,"x_max":0,"o":"m 286 722 l 286 244 b 401 132 286 172 328 132 b 535 289 476 132 535 189 l 535 722 l 751 722 l 751 0 l 572 0 l 551 76 b 333 -21 501 15 426 -21 b 69 253 168 -21 69 76 l 69 722 m 296 1021 l 531 1021 l 324 831 l 156 831 m 601 1021 l 836 1021 l 629 831 l 461 831 "},"Ų":{"ha":994,"x_min":0,"x_max":0,"o":"m 811 -190 b 588 -343 783 -279 714 -343 b 401 -185 478 -343 401 -283 b 506 -21 401 -118 442 -62 l 497 -21 b 76 335 229 -21 76 111 l 76 1000 l 310 1000 l 310 319 b 499 144 310 207 376 144 b 694 319 621 144 694 207 l 694 1000 l 918 1000 l 918 335 b 721 19 918 183 854 79 b 551 -154 618 -26 551 -85 b 613 -221 551 -196 581 -221 b 663 -190 639 -221 656 -210 l 811 -190 "},"ų":{"ha":828,"x_min":0,"x_max":0,"o":"m 286 722 l 286 244 b 401 132 286 172 328 132 b 535 281 474 132 535 186 l 535 722 l 751 722 l 751 0 l 697 0 b 565 -154 632 -35 565 -83 b 626 -221 565 -196 594 -221 b 676 -190 653 -221 669 -210 l 825 -190 b 601 -343 797 -279 728 -343 b 415 -185 492 -343 415 -283 b 569 7 415 -101 478 -35 l 551 76 b 333 -21 501 15 426 -21 b 69 253 168 -21 69 76 l 69 722 "},"Ŵ":{"ha":1368,"x_min":0,"x_max":0,"o":"m 1368 1000 l 1144 0 l 869 0 l 683 772 l 506 0 l 240 0 l 0 1000 l 242 1000 l 393 261 l 561 1000 l 821 1000 l 1003 257 l 1147 1000 m 621 1094 l 399 1094 l 586 1285 l 781 1285 l 968 1094 l 747 1094 l 683 1176 "},"ŵ":{"ha":1194,"x_min":0,"x_max":0,"o":"m 1181 722 l 982 0 l 714 0 l 600 528 l 471 0 l 208 0 l 14 722 l 238 722 l 350 179 l 478 722 l 739 722 l 851 176 l 975 722 m 538 831 l 315 831 l 503 1021 l 697 1021 l 885 831 l 664 831 l 600 913 "},"Ÿ":{"ha":928,"x_min":0,"x_max":0,"o":"m 354 0 l 354 399 l 0 1000 l 250 1000 l 469 593 l 706 1000 l 928 1000 l 574 399 l 574 0 m 207 1086 l 207 1264 l 413 1264 l 413 1086 m 526 1086 l 526 1264 l 732 1264 l 732 1086 "},"Ź":{"ha":861,"x_min":0,"x_max":0,"o":"m 299 165 l 818 165 l 818 0 l 35 0 l 35 168 l 561 835 l 61 835 l 61 1000 l 826 1000 l 826 836 m 478 1264 l 713 1264 l 506 1074 l 338 1074 "},"ź":{"ha":704,"x_min":0,"x_max":0,"o":"m 301 160 l 663 160 l 663 0 l 28 0 l 28 168 l 407 563 l 53 563 l 53 722 l 676 722 l 676 554 m 415 1000 l 650 1000 l 443 810 l 275 810 "},"Ż":{"ha":861,"x_min":0,"x_max":0,"o":"m 299 165 l 818 165 l 818 0 l 35 0 l 35 168 l 561 835 l 61 835 l 61 1000 l 826 1000 l 826 836 m 319 1079 l 319 1264 l 553 1264 l 553 1079 "},"ż":{"ha":704,"x_min":0,"x_max":0,"o":"m 301 160 l 663 160 l 663 0 l 28 0 l 28 168 l 407 563 l 53 563 l 53 722 l 676 722 l 676 554 m 244 815 l 244 1000 l 478 1000 l 478 815 "},"Ž":{"ha":861,"x_min":0,"x_max":0,"o":"m 299 165 l 818 165 l 818 0 l 35 0 l 35 168 l 561 835 l 61 835 l 61 1000 l 826 1000 l 826 836 m 439 1203 l 503 1285 l 724 1285 l 536 1094 l 342 1094 l 154 1285 l 376 1285 "},"ž":{"ha":704,"x_min":0,"x_max":0,"o":"m 301 160 l 663 160 l 663 0 l 28 0 l 28 168 l 407 563 l 53 563 l 53 722 l 676 722 l 676 554 m 375 939 l 439 1021 l 660 1021 l 472 831 l 278 831 l 90 1021 l 313 1021 "},"ƒ":{"ha":528,"x_min":0,"x_max":0,"o":"m 542 817 b 433 835 497 828 460 835 b 347 756 375 835 347 808 l 347 694 l 506 694 l 506 544 l 347 544 l 347 -250 l 131 -250 l 131 544 l 21 544 l 21 694 l 131 694 l 131 747 b 376 993 131 907 218 993 b 542 969 446 993 499 981 "},"Ș":{"ha":936,"x_min":0,"x_max":0,"o":"m 478 -21 b 42 294 221 -21 69 103 l 263 294 b 481 142 278 207 349 142 b 667 257 615 142 667 186 b 417 421 667 360 560 388 b 78 732 250 460 78 521 b 479 1021 78 908 214 1021 b 876 743 713 1021 850 917 l 658 743 b 474 861 647 818 574 861 b 313 760 356 861 313 821 b 515 622 313 678 376 653 b 901 283 707 581 901 503 b 478 -21 901 122 775 -21 m 589 -229 b 351 -501 589 -411 468 -478 l 351 -407 b 451 -275 418 -385 451 -344 l 385 -275 l 385 -85 l 589 -85 "},"ș":{"ha":768,"x_min":0,"x_max":0,"o":"m 379 126 b 500 194 465 126 500 151 b 328 285 500 244 460 253 b 65 518 189 318 65 365 b 385 743 65 653 172 743 b 717 522 571 743 692 660 l 499 522 b 379 596 489 567 449 596 b 282 536 310 596 282 574 b 432 451 282 496 310 482 b 719 224 564 418 719 383 b 381 -21 719 81 611 -21 b 35 204 183 -21 58 71 l 253 204 b 379 126 263 158 311 126 m 474 -229 b 236 -501 474 -411 353 -478 l 236 -407 b 336 -275 303 -385 336 -344 l 269 -275 l 269 -85 l 474 -85 "},"Ț":{"ha":838,"x_min":0,"x_max":0,"o":"m 831 825 l 533 825 l 533 0 l 300 0 l 300 825 l 7 825 l 7 1000 l 831 1000 m 518 -229 b 281 -501 518 -411 397 -478 l 281 -407 b 381 -275 347 -385 381 -344 l 314 -275 l 314 -85 l 518 -85 "},"ț":{"ha":511,"x_min":0,"x_max":0,"o":"m 490 -1 b 358 -21 451 -12 403 -21 b 124 201 213 -21 124 57 l 124 572 l 14 572 l 14 722 l 124 722 l 138 896 l 340 896 l 340 722 l 489 722 l 489 572 l 340 572 l 340 194 b 411 133 340 154 369 133 b 490 146 428 133 461 139 m 363 -229 b 125 -501 363 -411 242 -478 l 125 -407 b 225 -275 192 -385 225 -344 l 158 -275 l 158 -85 l 363 -85 "},"ȷ":{"ha":385,"x_min":0,"x_max":0,"o":"m -75 -99 b 11 -111 -44 -107 -8 -111 b 83 -36 61 -111 83 -90 l 83 722 l 300 722 l 300 -40 b 60 -271 300 -179 217 -271 b -75 -250 17 -271 -39 -262 "},"ˆ":{"ha":653,"x_min":0,"x_max":0,"o":"m 264 831 l 42 831 l 229 1021 l 424 1021 l 611 831 l 390 831 l 326 913 "},"ˇ":{"ha":653,"x_min":0,"x_max":0,"o":"m 326 939 l 390 1021 l 611 1021 l 424 831 l 229 831 l 42 1021 l 264 1021 "},"ˉ":{"ha":458,"x_min":0,"x_max":0,"o":"m 42 860 l 42 1010 l 417 1010 l 417 860 "},"˘":{"ha":514,"x_min":0,"x_max":0,"o":"m 214 1021 b 257 953 215 972 231 953 b 300 1021 283 953 299 972 l 472 1021 b 257 836 457 888 368 836 b 42 1021 132 836 56 904 "},"˙":{"ha":317,"x_min":0,"x_max":0,"o":"m 42 815 l 42 1000 l 275 1000 l 275 815 "},"˚":{"ha":444,"x_min":0,"x_max":0,"o":"m 165 972 b 222 901 165 925 190 901 b 279 972 254 901 279 925 b 222 1043 279 1019 256 1043 b 165 972 189 1043 165 1019 m 415 972 b 222 801 415 879 347 801 b 29 972 97 801 29 879 b 222 1143 29 1065 99 1143 b 415 972 346 1143 415 1065 "},"˛":{"ha":493,"x_min":0,"x_max":0,"o":"m 451 -190 b 228 -343 424 -279 354 -343 b 42 -185 118 -343 42 -283 b 247 28 42 -87 129 -12 l 379 28 b 192 -154 303 -8 192 -64 b 253 -221 192 -196 221 -221 b 303 -190 279 -221 296 -210 l 451 -190 "},"˜":{"ha":500,"x_min":0,"x_max":0,"o":"m 340 822 b 160 875 258 822 224 875 b 42 822 128 875 82 854 l 42 975 b 165 1021 82 1004 126 1021 b 346 968 247 1021 282 968 b 458 1021 378 968 418 989 l 458 868 b 340 822 418 839 379 822 "},"˝":{"ha":764,"x_min":0,"x_max":0,"o":"m 182 1021 l 417 1021 l 210 831 l 42 831 m 488 1021 l 722 1021 l 515 831 l 347 831 "},"̒":{"ha":321,"x_min":0,"x_max":0,"o":"m 42 935 b 279 1207 42 1117 163 1183 l 279 1113 b 179 981 213 1090 179 1050 l 246 981 l 246 790 l 42 790 "},"̣":{"ha":317,"x_min":0,"x_max":0,"o":"m 42 -250 l 42 -65 l 275 -65 l 275 -250 "},";":{"ha":401,"x_min":0,"x_max":0,"o":"m 78 504 l 78 722 l 324 722 l 324 504 m 324 42 b 50 -254 324 -172 169 -242 l 50 -146 b 165 0 119 -131 165 -83 l 78 0 l 78 218 l 324 218 "},"΄":{"ha":349,"x_min":0,"x_max":0,"o":"m 72 1000 l 307 1000 l 210 796 l 42 796 "},"΅":{"ha":706,"x_min":0,"x_max":0,"o":"m 42 822 l 42 1000 l 247 1000 l 247 822 m 458 822 l 458 1000 l 664 1000 l 664 822 m 301 1226 l 536 1226 l 439 1022 l 271 1022 "},"Ά":{"ha":974,"x_min":0,"x_max":0,"o":"m 728 0 l 657 229 l 301 229 l 231 0 l 0 0 l 356 1000 l 615 1000 l 974 0 m 349 382 l 611 382 l 481 808 m 51 1000 l 286 1000 l 189 796 l 21 796 "},"·":{"ha":375,"x_min":0,"x_max":0,"o":"m 78 344 l 78 542 l 297 542 l 297 344 "},"Έ":{"ha":1008,"x_min":0,"x_max":0,"o":"m 919 424 l 518 424 l 518 168 l 960 168 l 960 0 l 285 0 l 285 1000 l 960 1000 l 960 829 l 518 829 l 518 585 l 919 585 m 8 1000 l 243 1000 l 146 796 l -22 796 "},"Ή":{"ha":1207,"x_min":0,"x_max":0,"o":"m 1124 1000 l 1124 0 l 892 0 l 892 422 l 519 422 l 519 0 l 286 0 l 286 1000 l 519 1000 l 519 589 l 892 589 l 892 1000 m 8 1000 l 243 1000 l 146 796 l -22 796 "},"Ί":{"ha":603,"x_min":0,"x_max":0,"o":"m 519 1000 l 519 0 l 286 0 l 286 1000 m 8 1000 l 243 1000 l 146 796 l -22 796 "},"Ό":{"ha":1204,"x_min":0,"x_max":0,"o":"m 32 1000 l 267 1000 l 169 796 l 1 796 m 660 144 b 913 500 788 144 913 229 b 660 857 913 771 785 857 b 407 499 531 857 407 769 b 660 144 407 228 536 144 m 660 -21 b 171 499 415 -21 171 111 b 660 1021 171 879 414 1021 b 1149 500 906 1021 1149 888 b 660 -21 1149 119 904 -21 "},"Ύ":{"ha":1171,"x_min":0,"x_max":0,"o":"m 597 0 l 597 399 l 243 1000 l 493 1000 l 713 593 l 949 1000 l 1171 1000 l 817 399 l 817 0 m -19 1000 l 215 1000 l 118 796 l -50 796 "},"Ώ":{"ha":1203,"x_min":0,"x_max":0,"o":"m 749 168 b 911 497 819 171 911 246 b 658 857 911 768 783 857 b 406 496 529 857 406 767 b 574 168 406 239 506 168 l 574 0 l 213 0 l 213 168 l 300 168 b 169 510 226 250 169 364 b 658 1021 169 876 413 1021 b 1147 511 904 1021 1147 885 b 1013 168 1147 367 1088 251 l 1106 168 l 1106 0 l 743 0 l 743 168 m 29 1000 l 264 1000 l 167 796 l -1 796 "},"ΐ":{"ha":369,"x_min":0,"x_max":0,"o":"m 76 0 l 76 722 l 293 722 l 293 0 m -126 822 l -126 1000 l 79 1000 l 79 822 m 290 822 l 290 1000 l 496 1000 l 496 822 m 133 1226 l 368 1226 l 271 1022 l 103 1022 "},"Α":{"ha":974,"x_min":0,"x_max":0,"o":"m 728 0 l 657 229 l 301 229 l 231 0 l 0 0 l 356 1000 l 615 1000 l 974 0 m 349 382 l 611 382 l 481 808 "},"Β":{"ha":899,"x_min":0,"x_max":0,"o":"m 417 1000 b 818 735 700 1000 818 914 b 636 529 818 626 732 556 b 857 289 769 503 857 421 b 442 0 857 96 739 0 l 83 0 l 83 1000 m 317 450 l 317 153 l 451 153 b 619 296 572 153 619 196 b 458 450 619 396 561 450 m 317 847 l 317 594 l 438 594 b 585 728 529 594 585 639 b 433 847 585 807 524 847 "},"Γ":{"ha":704,"x_min":0,"x_max":0,"o":"m 697 825 l 317 825 l 317 0 l 83 0 l 83 1000 l 697 1000 "},"Δ":{"ha":974,"x_min":0,"x_max":0,"o":"m 0 0 l 356 1000 l 615 1000 l 974 0 m 278 153 l 681 153 l 481 808 "},"Ε":{"ha":807,"x_min":0,"x_max":0,"o":"m 718 424 l 317 424 l 317 168 l 758 168 l 758 0 l 83 0 l 83 1000 l 758 1000 l 758 829 l 317 829 l 317 585 l 718 585 "},"Ζ":{"ha":861,"x_min":0,"x_max":0,"o":"m 299 165 l 818 165 l 818 0 l 35 0 l 35 168 l 561 835 l 61 835 l 61 1000 l 826 1000 l 826 836 "},"Η":{"ha":1004,"x_min":0,"x_max":0,"o":"m 921 1000 l 921 0 l 689 0 l 689 422 l 317 422 l 317 0 l 83 0 l 83 1000 l 317 1000 l 317 589 l 689 589 l 689 1000 "},"Θ":{"ha":1089,"x_min":0,"x_max":0,"o":"m 544 144 b 797 500 672 144 797 229 b 544 857 797 771 669 857 b 292 499 415 857 292 769 b 544 144 292 228 421 144 m 544 -21 b 56 499 300 -21 56 111 b 544 1021 56 879 299 1021 b 1033 500 790 1021 1033 888 b 544 -21 1033 119 789 -21 m 711 424 l 376 424 l 376 585 l 711 585 "},"Ι":{"ha":400,"x_min":0,"x_max":0,"o":"m 317 1000 l 317 0 l 83 0 l 83 1000 "},"Κ":{"ha":994,"x_min":0,"x_max":0,"o":"m 689 0 l 317 436 l 317 0 l 83 0 l 83 1000 l 317 1000 l 317 581 l 669 1000 l 942 1000 l 524 532 l 994 0 "},"Λ":{"ha":960,"x_min":0,"x_max":0,"o":"m 714 0 l 474 808 l 231 0 l 0 0 l 349 1000 l 608 1000 l 960 0 "},"Μ":{"ha":1240,"x_min":0,"x_max":0,"o":"m 521 0 l 281 688 l 281 0 l 83 0 l 83 1000 l 350 1000 l 621 219 l 883 1000 l 1157 1000 l 1157 0 l 946 0 l 946 689 l 711 0 "},"Ν":{"ha":1001,"x_min":0,"x_max":0,"o":"m 918 1000 l 918 0 l 678 0 l 283 710 l 283 0 l 83 0 l 83 1000 l 342 1000 l 719 317 l 719 1000 "},"Ξ":{"ha":806,"x_min":0,"x_max":0,"o":"m 757 0 l 49 0 l 49 175 l 757 175 m 757 826 l 49 826 l 49 1000 l 757 1000 m 653 419 l 153 419 l 153 589 l 653 589 "},"Ο":{"ha":1089,"x_min":0,"x_max":0,"o":"m 544 144 b 797 500 672 144 797 229 b 544 857 797 771 669 857 b 292 499 415 857 292 769 b 544 144 292 228 421 144 m 544 -21 b 56 499 300 -21 56 111 b 544 1021 56 879 299 1021 b 1033 500 790 1021 1033 888 b 544 -21 1033 119 789 -21 "},"Π":{"ha":1004,"x_min":0,"x_max":0,"o":"m 921 1000 l 921 0 l 689 0 l 689 833 l 317 833 l 317 0 l 83 0 l 83 1000 "},"Ρ":{"ha":925,"x_min":0,"x_max":0,"o":"m 444 1000 b 876 667 749 1000 876 892 b 453 335 876 438 736 335 l 317 335 l 317 0 l 83 0 l 83 1000 m 317 840 l 317 494 l 456 494 b 636 667 572 494 636 553 b 447 840 636 790 569 840 "},"Σ":{"ha":853,"x_min":0,"x_max":0,"o":"m 571 451 l 325 165 l 797 165 l 797 0 l 42 0 l 42 164 l 344 499 l 42 840 l 42 1000 l 779 1000 l 779 835 l 326 835 l 572 550 "},"Τ":{"ha":838,"x_min":0,"x_max":0,"o":"m 831 825 l 533 825 l 533 0 l 300 0 l 300 825 l 7 825 l 7 1000 l 831 1000 "},"Υ":{"ha":928,"x_min":0,"x_max":0,"o":"m 354 0 l 354 399 l 0 1000 l 250 1000 l 469 593 l 706 1000 l 928 1000 l 574 399 l 574 0 "},"Φ":{"ha":1303,"x_min":0,"x_max":0,"o":"m 768 1021 l 768 965 b 1247 504 1008 961 1247 836 b 768 35 1247 171 1007 39 l 768 -21 l 535 -21 l 535 35 b 56 504 294 39 56 171 b 535 965 56 836 293 961 l 535 1021 m 1011 504 b 768 801 1011 725 892 796 l 768 200 b 1011 504 894 204 1011 283 m 292 504 b 535 200 292 283 408 204 l 535 801 b 292 504 410 796 292 725 "},"Χ":{"ha":974,"x_min":0,"x_max":0,"o":"m 613 533 l 967 0 l 685 0 l 469 339 l 256 0 l 7 0 l 361 518 l 29 1000 l 306 1000 l 503 701 l 700 1000 l 939 1000 "},"Ψ":{"ha":1090,"x_min":0,"x_max":0,"o":"m 292 1000 l 292 554 b 439 389 292 468 338 410 l 439 1000 l 661 1000 l 661 390 b 808 554 758 414 808 469 l 808 1000 l 1021 1000 l 1021 569 b 661 221 1021 375 896 250 l 661 0 l 439 0 l 439 219 b 69 569 197 247 69 372 l 69 1000 "},"Ω":{"ha":1089,"x_min":0,"x_max":0,"o":"m 635 168 b 797 497 706 171 797 246 b 544 857 797 768 669 857 b 292 496 415 857 292 767 b 460 168 292 239 392 168 l 460 0 l 99 0 l 99 168 l 186 168 b 56 510 113 250 56 364 b 544 1021 56 876 299 1021 b 1033 511 790 1021 1033 885 b 899 168 1033 367 974 251 l 992 168 l 992 0 l 629 0 l 629 168 "},"Ϊ":{"ha":400,"x_min":0,"x_max":0,"o":"m 317 1000 l 317 0 l 83 0 l 83 1000 m -62 1086 l -62 1264 l 143 1264 l 143 1086 m 257 1086 l 257 1264 l 463 1264 l 463 1086 "},"Ϋ":{"ha":928,"x_min":0,"x_max":0,"o":"m 354 0 l 354 399 l 0 1000 l 250 1000 l 469 593 l 706 1000 l 928 1000 l 574 399 l 574 0 m 201 1086 l 201 1264 l 407 1264 l 407 1086 m 521 1086 l 521 1264 l 726 1264 l 726 1086 "},"ά":{"ha":875,"x_min":0,"x_max":0,"o":"m 629 0 l 593 79 b 372 -21 542 19 464 -21 b 49 354 183 -21 49 119 b 368 743 49 599 185 743 b 590 643 467 743 540 707 l 628 722 l 799 722 l 799 0 m 267 356 b 426 138 267 203 332 138 b 589 360 522 138 589 197 b 426 585 589 543 504 585 b 267 356 332 585 267 507 m 374 1000 l 608 1000 l 511 796 l 343 796 "},"έ":{"ha":772,"x_min":0,"x_max":0,"o":"m 365 743 b 729 504 557 743 700 649 l 501 504 b 375 596 485 561 432 596 b 283 528 317 596 283 568 b 394 444 283 481 318 444 l 458 444 l 458 301 l 406 301 b 265 214 308 301 265 264 b 367 126 265 160 303 126 b 503 236 435 126 481 161 l 731 236 b 365 -21 696 88 581 -21 b 42 206 153 -21 42 76 b 219 383 42 301 111 371 b 64 551 119 401 64 464 b 365 743 64 656 165 743 m 322 1000 l 557 1000 l 460 796 l 292 796 "},"ή":{"ha":835,"x_min":0,"x_max":0,"o":"m 76 0 l 76 722 l 256 722 l 276 643 b 497 743 322 701 394 743 b 765 467 665 743 765 642 l 765 -250 l 549 -250 l 549 458 b 438 590 549 554 506 590 b 293 428 354 590 293 528 l 293 0 m 357 1000 l 592 1000 l 494 796 l 326 796 "},"ί":{"ha":369,"x_min":0,"x_max":0,"o":"m 76 0 l 76 722 l 293 722 l 293 0 m 133 1000 l 368 1000 l 271 796 l 103 796 "},"ΰ":{"ha":819,"x_min":0,"x_max":0,"o":"m 410 -21 b 69 260 213 -21 69 64 l 69 722 l 286 722 l 286 254 b 410 132 286 176 325 132 b 533 254 494 132 533 176 l 533 722 l 750 722 l 750 260 b 410 -21 750 64 607 -21 m 99 822 l 99 1000 l 304 1000 l 304 822 m 515 822 l 515 1000 l 721 1000 l 721 822 m 358 1226 l 593 1226 l 496 1022 l 328 1022 "},"α":{"ha":875,"x_min":0,"x_max":0,"o":"m 629 0 l 593 79 b 372 -21 542 19 464 -21 b 49 354 183 -21 49 119 b 368 743 49 599 185 743 b 590 643 467 743 540 707 l 628 722 l 799 722 l 799 0 m 267 356 b 426 138 267 203 332 138 b 589 360 522 138 589 197 b 426 585 589 543 504 585 b 267 356 332 585 267 507 "},"β":{"ha":824,"x_min":0,"x_max":0,"o":"m 494 -21 b 293 74 397 -21 332 15 l 293 -250 l 76 -250 l 76 711 b 410 1021 76 901 196 1021 b 742 774 632 1021 742 925 b 553 553 742 664 667 571 b 768 297 667 540 768 426 b 494 -21 768 94 665 -21 m 546 303 b 422 464 546 417 499 464 l 389 464 l 389 621 l 419 621 b 522 751 476 621 522 669 b 408 868 522 826 478 868 b 293 725 332 868 293 822 l 293 367 b 426 138 293 200 346 138 b 546 303 497 138 546 185 "},"γ":{"ha":786,"x_min":0,"x_max":0,"o":"m 285 -250 l 285 0 l 7 722 l 242 722 l 400 183 l 556 722 l 779 722 l 501 0 l 501 -250 "},"δ":{"ha":819,"x_min":0,"x_max":0,"o":"m 204 1000 l 715 1000 l 715 856 l 507 856 b 771 440 649 801 771 638 b 415 -21 771 136 647 -21 b 49 331 189 -21 49 108 b 356 671 49 538 163 671 b 531 596 422 671 500 640 b 204 876 496 751 357 860 m 407 514 b 269 324 325 514 269 456 b 415 136 269 194 325 136 b 550 349 492 136 550 199 b 407 514 550 454 490 514 "},"ε":{"ha":772,"x_min":0,"x_max":0,"o":"m 365 743 b 729 504 557 743 700 649 l 501 504 b 375 596 485 561 432 596 b 283 528 317 596 283 568 b 394 444 283 481 318 444 l 458 444 l 458 301 l 406 301 b 265 214 308 301 265 264 b 367 126 265 160 303 126 b 503 236 435 126 481 161 l 731 236 b 365 -21 696 88 581 -21 b 42 206 153 -21 42 76 b 219 383 42 301 111 371 b 64 551 119 401 64 464 b 365 743 64 656 165 743 "},"ζ":{"ha":717,"x_min":0,"x_max":0,"o":"m 661 878 b 274 394 364 739 274 579 b 492 124 274 265 347 165 b 700 -76 643 81 700 24 b 551 -310 700 -153 628 -246 l 421 -204 b 479 -107 449 -175 479 -143 b 394 -28 479 -65 454 -43 b 49 374 163 33 49 165 b 368 850 49 563 146 710 l 51 850 l 51 1000 l 661 1000 "},"η":{"ha":835,"x_min":0,"x_max":0,"o":"m 76 0 l 76 722 l 256 722 l 276 643 b 497 743 322 701 394 743 b 765 467 665 743 765 642 l 765 -250 l 549 -250 l 549 458 b 438 590 549 554 506 590 b 293 428 354 590 293 528 l 293 0 "},"θ":{"ha":836,"x_min":0,"x_max":0,"o":"m 418 -21 b 49 497 193 -21 49 146 b 418 1021 49 858 190 1021 b 788 497 646 1021 788 858 b 418 -21 788 146 643 -21 m 418 126 b 563 428 501 126 554 201 l 274 428 b 418 126 282 201 335 126 m 418 875 b 274 576 335 875 283 796 l 563 576 b 418 875 553 796 500 875 "},"ι":{"ha":369,"x_min":0,"x_max":0,"o":"m 76 0 l 76 722 l 293 722 l 293 0 "},"κ":{"ha":813,"x_min":0,"x_max":0,"o":"m 76 0 l 76 722 l 293 722 l 293 435 l 544 722 l 790 722 l 496 397 l 826 0 l 549 0 l 293 313 l 293 0 "},"λ":{"ha":793,"x_min":0,"x_max":0,"o":"m 563 0 l 390 564 l 231 0 l 7 0 l 263 722 l 328 722 b 229 867 304 831 279 867 b 140 854 211 867 185 865 l 140 1006 b 257 1021 179 1015 219 1021 b 528 738 389 1021 446 969 l 786 0 "},"μ":{"ha":835,"x_min":0,"x_max":0,"o":"m 293 722 l 293 244 b 408 132 293 172 335 132 b 542 281 481 132 542 186 l 542 722 l 758 722 l 758 0 l 579 0 l 558 76 b 340 -21 508 15 433 -21 b 293 -14 324 -21 308 -18 l 293 -249 l 76 -249 l 76 722 "},"ν":{"ha":786,"x_min":0,"x_max":0,"o":"m 779 722 l 529 0 l 256 0 l 7 722 l 242 722 l 400 160 l 556 722 "},"ξ":{"ha":753,"x_min":0,"x_max":0,"o":"m 49 267 b 226 497 49 385 122 485 b 71 667 126 518 71 579 b 251 850 71 754 124 818 l 60 850 l 60 1000 l 661 1000 l 661 878 l 619 878 b 290 681 407 878 290 807 b 457 565 290 611 332 565 l 565 565 l 565 408 l 468 408 b 272 289 314 408 272 349 b 479 128 272 194 375 154 b 707 -76 653 83 707 24 b 558 -310 707 -153 635 -246 l 429 -204 b 486 -104 457 -175 486 -137 b 363 -25 486 -65 461 -43 b 49 267 169 10 49 108 "},"ο":{"ha":861,"x_min":0,"x_max":0,"o":"m 49 364 b 431 743 49 613 188 743 b 813 364 672 743 813 613 b 431 -21 813 114 674 -21 b 49 364 194 -21 49 113 m 272 364 b 432 125 272 190 331 125 b 590 364 538 125 590 188 b 431 597 590 540 535 597 b 272 364 324 597 272 538 "},"π":{"ha":819,"x_min":0,"x_max":0,"o":"m 743 572 l 743 0 l 526 0 l 526 572 l 293 572 l 293 0 l 76 0 l 76 572 l 7 572 l 7 722 l 813 722 l 813 572 "},"ρ":{"ha":875,"x_min":0,"x_max":0,"o":"m 69 388 b 446 743 69 610 185 743 b 826 367 676 743 826 600 b 485 -21 826 125 678 -21 b 286 63 406 -21 336 11 l 286 -250 l 69 -250 l 69 388 m 279 369 b 440 138 279 194 349 138 b 608 367 538 138 608 210 b 433 585 608 521 536 585 b 279 369 349 585 279 515 "},"ς":{"ha":818,"x_min":0,"x_max":0,"o":"m 49 356 b 419 743 49 600 192 743 b 776 500 611 743 747 644 l 549 500 b 426 596 532 558 482 596 b 274 349 335 596 274 528 b 481 128 274 219 317 165 b 736 -76 669 85 736 29 b 588 -310 736 -153 667 -243 l 458 -204 b 515 -107 486 -175 515 -143 b 399 -31 515 -64 483 -44 b 49 356 139 11 49 122 "},"σ":{"ha":861,"x_min":0,"x_max":0,"o":"m 760 571 b 813 364 793 515 813 444 b 431 -21 813 114 674 -21 b 49 364 194 -21 49 113 b 425 743 49 613 188 743 b 572 722 478 743 528 736 l 840 722 l 840 567 m 272 364 b 432 125 272 190 331 125 b 590 361 538 125 590 189 b 510 586 590 483 557 557 b 431 597 488 593 461 597 b 272 364 326 597 272 535 "},"τ":{"ha":679,"x_min":0,"x_max":0,"o":"m 14 722 l 665 722 l 665 574 l 447 574 l 447 0 l 231 0 l 231 574 l 14 574 "},"υ":{"ha":819,"x_min":0,"x_max":0,"o":"m 410 -21 b 69 260 213 -21 69 64 l 69 722 l 286 722 l 286 254 b 410 132 286 176 325 132 b 533 254 494 132 533 176 l 533 722 l 750 722 l 750 260 b 410 -21 750 64 607 -21 "},"φ":{"ha":1090,"x_min":0,"x_max":0,"o":"m 419 -17 b 49 350 138 3 49 118 b 132 722 49 489 83 621 l 349 722 b 265 354 299 615 265 475 b 419 156 265 242 311 178 l 419 403 b 722 743 419 628 504 743 b 1042 382 924 743 1042 636 b 636 -17 1042 108 899 4 l 636 -250 l 419 -250 m 636 153 b 824 383 772 174 824 242 b 724 585 824 536 785 585 b 636 383 667 585 636 549 "},"χ":{"ha":797,"x_min":0,"x_max":0,"o":"m 514 244 l 790 -250 l 529 -250 l 388 85 l 238 -250 l 7 -250 l 276 242 l 21 722 l 274 722 l 400 394 l 526 722 l 753 722 "},"ψ":{"ha":1090,"x_min":0,"x_max":0,"o":"m 281 722 l 281 318 b 444 151 281 229 335 172 l 444 722 l 656 722 l 656 153 b 819 318 763 174 819 231 l 819 722 l 1021 722 l 1021 333 b 656 -15 1021 138 893 13 l 656 -250 l 444 -250 l 444 -17 b 69 333 199 10 69 135 l 69 722 "},"ω":{"ha":1093,"x_min":0,"x_max":0,"o":"m 947 722 b 1044 279 1000 621 1044 465 b 783 -21 1044 89 932 -21 b 544 138 633 -21 558 68 b 308 -21 529 68 457 -21 b 49 279 160 -21 49 89 b 146 722 49 465 93 621 l 363 722 b 265 278 308 615 265 465 b 364 132 265 200 293 132 b 450 268 419 132 450 193 l 450 528 l 643 528 l 643 268 b 729 132 643 193 674 132 b 828 278 800 132 828 200 b 731 722 828 465 785 615 "},"ϊ":{"ha":369,"x_min":0,"x_max":0,"o":"m 76 0 l 76 722 l 293 722 l 293 0 m -78 822 l -78 1000 l 128 1000 l 128 822 m 242 822 l 242 1000 l 447 1000 l 447 822 "},"ϋ":{"ha":819,"x_min":0,"x_max":0,"o":"m 410 -21 b 69 260 213 -21 69 64 l 69 722 l 286 722 l 286 254 b 410 132 286 176 325 132 b 533 254 494 132 533 176 l 533 722 l 750 722 l 750 260 b 410 -21 750 64 607 -21 m 147 822 l 147 1000 l 353 1000 l 353 822 m 467 822 l 467 1000 l 672 1000 l 672 822 "},"ό":{"ha":861,"x_min":0,"x_max":0,"o":"m 49 364 b 431 743 49 613 188 743 b 813 364 672 743 813 613 b 431 -21 813 114 674 -21 b 49 364 194 -21 49 113 m 272 364 b 432 125 272 190 331 125 b 590 364 538 125 590 188 b 431 597 590 540 535 597 b 272 364 324 597 272 538 m 372 1000 l 607 1000 l 510 796 l 342 796 "},"ύ":{"ha":819,"x_min":0,"x_max":0,"o":"m 410 -21 b 69 260 213 -21 69 64 l 69 722 l 286 722 l 286 254 b 410 132 286 176 325 132 b 533 254 494 132 533 176 l 533 722 l 750 722 l 750 260 b 410 -21 750 64 607 -21 m 365 1000 l 600 1000 l 503 796 l 335 796 "},"ώ":{"ha":1093,"x_min":0,"x_max":0,"o":"m 947 722 b 1044 279 1000 621 1044 465 b 783 -21 1044 89 932 -21 b 544 138 633 -21 558 68 b 308 -21 529 68 457 -21 b 49 279 160 -21 49 89 b 146 722 49 465 93 621 l 363 722 b 265 278 308 615 265 465 b 364 132 265 200 293 132 b 450 268 419 132 450 193 l 450 528 l 643 528 l 643 268 b 729 132 643 193 674 132 b 828 278 800 132 828 200 b 731 722 828 465 785 615 m 496 1000 l 731 1000 l 633 796 l 465 796 "},"Ё":{"ha":807,"x_min":0,"x_max":0,"o":"m 718 424 l 317 424 l 317 168 l 758 168 l 758 0 l 83 0 l 83 1000 l 758 1000 l 758 829 l 317 829 l 317 585 l 718 585 m 154 1086 l 154 1264 l 360 1264 l 360 1086 m 474 1086 l 474 1264 l 679 1264 l 679 1086 "},"Ђ":{"ha":1124,"x_min":0,"x_max":0,"o":"m 272 0 l 272 825 l 7 825 l 7 1000 l 775 1000 l 775 825 l 506 825 l 506 594 b 754 701 569 661 656 701 b 1068 346 960 701 1068 586 l 1068 210 b 828 -21 1068 71 985 -21 b 693 0 785 -21 729 -12 l 693 151 b 779 139 724 143 760 139 b 835 214 815 139 835 160 l 835 361 b 693 536 835 474 796 536 b 506 328 574 536 506 436 l 506 0 "},"Ѓ":{"ha":704,"x_min":0,"x_max":0,"o":"m 697 825 l 317 825 l 317 0 l 83 0 l 83 1000 l 697 1000 m 389 1264 l 624 1264 l 417 1074 l 249 1074 "},"Є":{"ha":1029,"x_min":0,"x_max":0,"o":"m 525 143 b 743 368 656 143 732 211 l 981 368 b 521 -21 950 113 790 -21 b 56 503 254 -21 56 154 b 532 1021 56 842 240 1021 b 974 674 764 1021 938 899 l 740 674 b 532 858 714 799 639 858 b 301 585 408 858 321 776 l 624 585 l 624 424 l 301 424 b 525 143 321 219 414 143 "},"Ѕ":{"ha":936,"x_min":0,"x_max":0,"o":"m 478 -21 b 42 294 221 -21 69 103 l 263 294 b 481 142 278 207 349 142 b 667 257 615 142 667 186 b 417 421 667 360 560 388 b 78 732 250 460 78 521 b 479 1021 78 908 214 1021 b 876 743 713 1021 850 917 l 658 743 b 474 861 647 818 574 861 b 313 760 356 861 313 821 b 515 622 313 678 376 653 b 901 283 707 581 901 503 b 478 -21 901 122 775 -21 "},"І":{"ha":400,"x_min":0,"x_max":0,"o":"m 317 1000 l 317 0 l 83 0 l 83 1000 "},"Ї":{"ha":400,"x_min":0,"x_max":0,"o":"m 317 1000 l 317 0 l 83 0 l 83 1000 m -62 1086 l -62 1264 l 143 1264 l 143 1086 m 257 1086 l 257 1264 l 463 1264 l 463 1086 "},"Ј":{"ha":785,"x_min":0,"x_max":0,"o":"m 250 296 b 371 144 256 182 317 144 b 485 301 431 144 485 178 l 485 1000 l 708 1000 l 708 317 b 376 -21 708 110 601 -21 b 28 296 211 -21 50 61 "},"Љ":{"ha":1493,"x_min":0,"x_max":0,"o":"m 651 851 l 367 851 l 315 269 b 7 0 299 83 236 0 l 7 153 b 106 258 69 153 97 168 l 169 1000 l 885 1000 l 885 665 l 1013 665 b 1444 332 1317 665 1444 557 b 1021 0 1444 103 1304 0 l 651 0 m 885 506 l 885 160 l 1024 160 b 1204 332 1140 160 1204 218 b 1015 506 1204 456 1138 506 "},"Њ":{"ha":1503,"x_min":0,"x_max":0,"o":"m 894 1000 l 894 638 l 1022 638 b 1454 331 1326 638 1454 542 b 1031 0 1454 115 1314 0 l 661 0 l 661 478 l 317 478 l 317 0 l 83 0 l 83 1000 l 317 1000 l 317 638 l 661 638 l 661 1000 m 894 478 l 894 160 l 1033 160 b 1214 331 1150 160 1214 231 b 1025 478 1214 440 1147 478 "},"Ћ":{"ha":1124,"x_min":0,"x_max":0,"o":"m 272 0 l 272 825 l 7 825 l 7 1000 l 775 1000 l 775 825 l 506 825 l 506 594 b 754 701 569 661 656 701 b 1068 346 960 701 1068 586 l 1068 0 l 835 0 l 835 361 b 693 536 835 474 796 536 b 506 328 574 536 506 436 l 506 0 "},"Ќ":{"ha":994,"x_min":0,"x_max":0,"o":"m 706 0 l 407 424 l 317 424 l 317 0 l 83 0 l 83 1000 l 317 1000 l 317 585 l 400 585 l 686 1000 l 942 1000 l 606 532 l 994 0 m 506 1264 l 740 1264 l 533 1074 l 365 1074 "},"Ў":{"ha":858,"x_min":0,"x_max":0,"o":"m 574 247 b 299 -21 507 72 446 -21 b 186 -6 261 -21 225 -15 l 186 160 b 271 147 231 149 253 147 b 363 247 313 147 344 175 l 283 247 l 0 1000 l 232 1000 l 433 408 l 633 1000 l 858 1000 m 429 1061 b 200 1222 308 1063 213 1106 l 372 1222 b 429 1178 376 1189 403 1178 b 486 1222 456 1178 482 1189 l 658 1222 b 429 1061 640 1106 539 1061 "},"Џ":{"ha":1003,"x_min":0,"x_max":0,"o":"m 611 0 l 611 -194 l 388 -194 l 388 0 l 83 0 l 83 1000 l 317 1000 l 317 169 l 688 169 l 688 1000 l 919 1000 l 919 0 "},"А":{"ha":974,"x_min":0,"x_max":0,"o":"m 728 0 l 657 229 l 301 229 l 231 0 l 0 0 l 356 1000 l 615 1000 l 974 0 m 349 382 l 611 382 l 481 808 "},"Б":{"ha":925,"x_min":0,"x_max":0,"o":"m 711 832 l 317 832 l 317 665 l 444 665 b 876 332 749 665 876 557 b 453 0 876 103 736 0 l 83 0 l 83 1000 l 711 1000 m 317 506 l 317 160 l 456 160 b 636 332 572 160 636 218 b 447 506 636 456 569 506 "},"В":{"ha":899,"x_min":0,"x_max":0,"o":"m 417 1000 b 818 735 700 1000 818 914 b 636 529 818 626 732 556 b 857 289 769 503 857 421 b 442 0 857 96 739 0 l 83 0 l 83 1000 m 317 450 l 317 153 l 451 153 b 619 296 572 153 619 196 b 458 450 619 396 561 450 m 317 847 l 317 594 l 438 594 b 585 728 529 594 585 639 b 433 847 585 807 524 847 "},"Г":{"ha":704,"x_min":0,"x_max":0,"o":"m 697 825 l 317 825 l 317 0 l 83 0 l 83 1000 l 697 1000 "},"Д":{"ha":929,"x_min":0,"x_max":0,"o":"m 840 1000 l 840 160 l 943 160 l 943 -194 l 736 -194 l 736 0 l 186 0 l 186 -194 l -21 -194 l -21 160 l 57 160 b 124 335 99 188 119 240 l 151 1000 m 332 343 b 251 160 328 253 294 197 l 626 160 l 626 840 l 354 840 l 332 343 "},"Е":{"ha":807,"x_min":0,"x_max":0,"o":"m 718 424 l 317 424 l 317 168 l 758 168 l 758 0 l 83 0 l 83 1000 l 758 1000 l 758 829 l 317 829 l 317 585 l 718 585 "},"Ж":{"ha":1369,"x_min":0,"x_max":0,"o":"m 307 1000 l 515 585 l 568 585 l 568 1000 l 801 1000 l 801 585 l 854 585 l 1063 1000 l 1317 1000 l 1053 532 l 1369 0 l 1086 0 l 867 424 l 801 424 l 801 0 l 568 0 l 568 424 l 501 424 l 278 0 l 0 0 l 315 532 l 53 1000 "},"З":{"ha":860,"x_min":0,"x_max":0,"o":"m 424 140 b 581 292 521 140 581 199 b 411 451 581 401 517 451 l 307 451 l 307 600 l 422 600 b 561 739 497 600 561 654 b 421 861 561 810 506 861 b 269 765 336 861 283 829 l 44 765 b 433 1021 68 918 207 1021 b 794 760 626 1021 794 929 b 593 536 794 653 719 560 b 818 288 725 517 818 411 b 426 -21 818 106 661 -21 b 35 253 199 -21 49 100 l 264 253 b 424 140 274 186 321 140 "},"И":{"ha":1004,"x_min":0,"x_max":0,"o":"m 921 1000 l 921 0 l 689 0 l 689 615 l 317 89 l 317 0 l 83 0 l 83 1000 l 317 1000 l 317 385 l 689 913 l 689 1000 "},"Й":{"ha":1004,"x_min":0,"x_max":0,"o":"m 921 1000 l 921 0 l 689 0 l 689 615 l 317 89 l 317 0 l 83 0 l 83 1000 l 317 1000 l 317 385 l 689 913 l 689 1000 m 497 1061 b 268 1222 376 1063 281 1106 l 440 1222 b 497 1178 444 1189 471 1178 b 554 1222 524 1178 550 1189 l 726 1222 b 497 1061 708 1106 607 1061 "},"К":{"ha":994,"x_min":0,"x_max":0,"o":"m 706 0 l 407 424 l 317 424 l 317 0 l 83 0 l 83 1000 l 317 1000 l 317 585 l 400 585 l 686 1000 l 942 1000 l 606 532 l 994 0 "},"Л":{"ha":949,"x_min":0,"x_max":0,"o":"m 865 1000 l 865 0 l 651 0 l 651 840 l 364 840 l 314 269 b 7 0 297 83 236 0 l 7 153 b 106 258 69 153 97 168 l 169 1000 "},"М":{"ha":1240,"x_min":0,"x_max":0,"o":"m 521 0 l 281 688 l 281 0 l 83 0 l 83 1000 l 350 1000 l 621 219 l 883 1000 l 1157 1000 l 1157 0 l 946 0 l 946 689 l 711 0 "},"Н":{"ha":1004,"x_min":0,"x_max":0,"o":"m 921 1000 l 921 0 l 689 0 l 689 422 l 317 422 l 317 0 l 83 0 l 83 1000 l 317 1000 l 317 589 l 689 589 l 689 1000 "},"О":{"ha":1089,"x_min":0,"x_max":0,"o":"m 544 144 b 797 500 672 144 797 229 b 544 857 797 771 669 857 b 292 499 415 857 292 769 b 544 144 292 228 421 144 m 544 -21 b 56 499 300 -21 56 111 b 544 1021 56 879 299 1021 b 1033 500 790 1021 1033 888 b 544 -21 1033 119 789 -21 "},"П":{"ha":1004,"x_min":0,"x_max":0,"o":"m 921 1000 l 921 0 l 689 0 l 689 833 l 317 833 l 317 0 l 83 0 l 83 1000 "},"Р":{"ha":925,"x_min":0,"x_max":0,"o":"m 444 1000 b 876 667 749 1000 876 892 b 453 335 876 438 736 335 l 317 335 l 317 0 l 83 0 l 83 1000 m 317 840 l 317 494 l 456 494 b 636 667 572 494 636 553 b 447 840 636 790 569 840 "},"С":{"ha":1029,"x_min":0,"x_max":0,"o":"m 525 143 b 743 368 656 143 732 211 l 981 368 b 521 -21 950 113 790 -21 b 56 503 254 -21 56 154 b 532 1021 56 842 240 1021 b 974 674 764 1021 938 899 l 740 674 b 532 858 714 799 639 858 b 299 503 393 858 299 754 b 525 143 299 239 401 143 "},"Т":{"ha":838,"x_min":0,"x_max":0,"o":"m 831 825 l 533 825 l 533 0 l 300 0 l 300 825 l 7 825 l 7 1000 l 831 1000 "},"У":{"ha":858,"x_min":0,"x_max":0,"o":"m 574 247 b 299 -21 507 72 446 -21 b 186 -6 261 -21 225 -15 l 186 160 b 271 147 231 149 253 147 b 363 247 313 147 344 175 l 283 247 l 0 1000 l 232 1000 l 433 408 l 633 1000 l 858 1000 "},"Ф":{"ha":1303,"x_min":0,"x_max":0,"o":"m 768 1021 l 768 965 b 1247 504 1008 961 1247 836 b 768 35 1247 171 1007 39 l 768 -21 l 535 -21 l 535 35 b 56 504 294 39 56 171 b 535 965 56 836 293 961 l 535 1021 m 1011 504 b 768 801 1011 725 892 796 l 768 200 b 1011 504 894 204 1011 283 m 292 504 b 535 200 292 283 408 204 l 535 801 b 292 504 410 796 292 725 "},"Х":{"ha":974,"x_min":0,"x_max":0,"o":"m 613 533 l 967 0 l 685 0 l 469 339 l 256 0 l 7 0 l 361 518 l 29 1000 l 306 1000 l 503 701 l 700 1000 l 939 1000 "},"Ц":{"ha":1018,"x_min":0,"x_max":0,"o":"m 317 169 l 689 169 l 689 1000 l 921 1000 l 921 169 l 1032 169 l 1032 -194 l 808 -194 l 808 0 l 83 0 l 83 1000 l 317 1000 "},"Ч":{"ha":928,"x_min":0,"x_max":0,"o":"m 844 1000 l 844 0 l 611 0 l 611 406 b 378 299 551 340 471 299 b 49 654 158 299 49 414 l 49 1000 l 282 1000 l 282 639 b 424 464 282 526 321 464 b 611 672 543 464 611 563 l 611 1000 "},"Ш":{"ha":1344,"x_min":0,"x_max":0,"o":"m 83 0 l 83 1000 l 317 1000 l 317 169 l 557 169 l 557 1000 l 789 1000 l 789 169 l 1029 169 l 1029 1000 l 1261 1000 l 1261 0 "},"Щ":{"ha":1358,"x_min":0,"x_max":0,"o":"m 83 0 l 83 1000 l 317 1000 l 317 169 l 557 169 l 557 1000 l 789 1000 l 789 169 l 1029 169 l 1029 1000 l 1261 1000 l 1261 169 l 1372 169 l 1372 -194 l 1149 -194 l 1149 0 "},"Ъ":{"ha":1146,"x_min":0,"x_max":0,"o":"m 14 1000 l 538 1000 l 538 665 l 665 665 b 1097 332 969 665 1097 557 b 674 0 1097 103 957 0 l 304 0 l 304 825 l 14 825 m 538 506 l 538 160 l 676 160 b 857 332 793 160 857 218 b 668 506 857 456 790 506 "},"Ы":{"ha":1268,"x_min":0,"x_max":0,"o":"m 83 1000 l 317 1000 l 317 665 l 444 665 b 876 332 749 665 876 557 b 453 0 876 103 736 0 l 83 0 m 317 506 l 317 160 l 456 160 b 636 332 572 160 636 218 b 447 506 636 456 569 506 m 1185 1000 l 1185 0 l 951 0 l 951 1000 "},"Ь":{"ha":925,"x_min":0,"x_max":0,"o":"m 83 1000 l 317 1000 l 317 665 l 444 665 b 876 332 749 665 876 557 b 453 0 876 103 736 0 l 83 0 m 317 506 l 317 160 l 456 160 b 636 332 572 160 636 218 b 447 506 636 456 569 506 "},"Э":{"ha":1029,"x_min":0,"x_max":0,"o":"m 406 585 l 726 585 b 494 858 707 776 617 858 b 289 674 388 858 315 799 l 56 674 b 494 1021 92 899 263 1021 b 974 503 793 1021 974 842 b 511 -21 974 160 781 -21 b 49 368 242 -21 79 113 l 286 368 b 510 143 297 211 379 143 b 726 424 619 143 708 219 l 406 424 "},"Ю":{"ha":1472,"x_min":0,"x_max":0,"o":"m 942 -21 b 469 422 726 -21 500 99 l 317 422 l 317 0 l 83 0 l 83 1000 l 317 1000 l 317 589 l 472 589 b 942 1021 508 896 729 1021 b 1417 500 1174 1021 1417 881 b 942 -21 1417 126 1172 -21 m 942 144 b 1181 500 1056 144 1181 229 b 942 857 1181 771 1053 857 b 703 499 826 857 703 769 b 942 144 703 228 832 144 "},"Я":{"ha":922,"x_min":0,"x_max":0,"o":"m 7 0 l 256 408 b 75 681 149 451 75 532 b 457 1000 75 869 219 1000 l 867 1000 l 867 0 l 633 0 l 633 365 l 465 365 l 251 0 m 317 674 b 471 526 317 583 374 526 l 633 526 l 633 839 l 488 839 b 317 674 376 839 317 783 "},"а":{"ha":806,"x_min":0,"x_max":0,"o":"m 63 514 b 411 743 97 658 218 743 b 736 478 611 743 736 643 l 736 0 l 567 0 l 540 75 b 301 -21 493 21 415 -21 b 49 208 154 -21 49 61 b 340 435 49 319 122 399 l 519 464 l 519 496 b 404 603 519 565 478 603 b 285 514 335 603 296 567 m 364 128 b 519 267 461 128 519 192 l 519 346 l 396 321 b 265 218 294 300 265 268 b 364 128 265 160 300 128 "},"б":{"ha":846,"x_min":0,"x_max":0,"o":"m 49 408 b 347 908 49 731 169 872 b 531 1000 465 932 531 960 l 764 1000 b 467 803 764 896 660 850 b 263 597 342 772 285 715 b 467 686 308 651 388 686 b 797 336 650 686 797 556 b 419 -21 797 114 658 -21 b 49 408 190 -21 49 110 m 271 336 b 424 125 271 189 331 125 b 575 336 519 125 575 185 b 425 539 575 479 514 539 b 271 336 332 539 271 478 "},"в":{"ha":799,"x_min":0,"x_max":0,"o":"m 76 0 l 76 722 l 410 722 b 733 536 647 722 733 660 b 574 379 733 460 675 397 b 757 208 685 365 757 286 b 414 0 757 78 647 0 m 292 301 l 292 150 l 413 150 b 538 228 499 150 538 183 b 449 301 538 275 500 301 m 292 572 l 292 444 l 433 444 b 514 514 485 444 514 474 b 419 572 514 550 488 572 "},"г":{"ha":586,"x_min":0,"x_max":0,"o":"m 572 722 l 572 574 l 293 574 l 293 0 l 76 0 l 76 722 "},"д":{"ha":864,"x_min":0,"x_max":0,"o":"m 71 150 b 118 288 96 174 114 200 l 139 722 l 775 722 l 775 150 l 871 150 l 871 -194 l 664 -194 l 664 0 l 200 0 l 200 -194 l -7 -194 l -7 150 m 332 297 b 260 150 328 229 301 183 l 560 150 l 560 572 l 344 572 l 332 297 "},"е":{"ha":836,"x_min":0,"x_max":0,"o":"m 786 210 b 429 -21 754 76 646 -21 b 49 361 204 -21 49 121 b 422 743 49 607 196 743 b 794 308 653 743 794 603 l 268 308 b 440 131 283 182 347 131 b 565 210 508 131 553 163 m 418 607 b 268 435 336 607 281 558 l 572 435 b 418 607 567 556 510 607 "},"ж":{"ha":1133,"x_min":0,"x_max":0,"o":"m 257 722 l 411 450 l 458 450 l 458 722 l 675 722 l 675 450 l 722 450 l 876 722 l 1101 722 l 908 403 l 1133 0 l 886 0 l 733 301 l 675 301 l 675 0 l 458 0 l 458 301 l 399 301 l 244 0 l 0 0 l 224 403 l 32 722 "},"з":{"ha":772,"x_min":0,"x_max":0,"o":"m 400 743 b 708 551 600 743 708 656 b 553 383 708 465 654 401 b 731 206 663 371 731 300 b 400 -21 731 79 618 -21 b 42 236 197 -21 76 88 l 269 236 b 401 126 293 157 338 126 b 507 215 468 126 507 164 b 367 301 507 265 464 301 l 328 301 l 328 444 l 378 444 b 489 525 451 444 489 479 b 394 596 489 565 454 596 b 271 504 335 596 288 561 l 43 504 b 400 743 71 642 200 743 "},"и":{"ha":833,"x_min":0,"x_max":0,"o":"m 76 0 l 76 722 l 293 722 l 293 322 l 542 675 l 542 722 l 757 722 l 757 0 l 542 0 l 542 399 l 293 43 l 293 0 "},"й":{"ha":833,"x_min":0,"x_max":0,"o":"m 76 0 l 76 722 l 293 722 l 293 322 l 542 675 l 542 722 l 757 722 l 757 0 l 542 0 l 542 399 l 293 43 l 293 0 m 414 797 b 185 958 293 799 197 842 l 357 958 b 414 914 361 925 388 914 b 471 958 440 914 467 925 l 643 958 b 414 797 625 842 524 797 "},"к":{"ha":813,"x_min":0,"x_max":0,"o":"m 76 0 l 76 722 l 293 722 l 293 450 l 339 450 l 560 722 l 790 722 l 522 392 l 826 0 l 564 0 l 336 301 l 293 301 l 293 0 "},"л":{"ha":854,"x_min":0,"x_max":0,"o":"m 778 722 l 778 0 l 563 0 l 563 574 l 347 574 l 322 269 b 14 0 307 81 218 0 l 14 156 b 114 261 79 156 107 178 l 154 722 "},"м":{"ha":992,"x_min":0,"x_max":0,"o":"m 410 42 l 274 458 l 274 0 l 76 0 l 76 722 l 350 722 l 497 271 l 635 722 l 915 722 l 915 0 l 704 0 l 704 460 l 574 42 "},"н":{"ha":835,"x_min":0,"x_max":0,"o":"m 293 722 l 293 463 l 542 463 l 542 722 l 758 722 l 758 0 l 542 0 l 542 314 l 293 314 l 293 0 l 76 0 l 76 722 "},"о":{"ha":861,"x_min":0,"x_max":0,"o":"m 49 364 b 431 743 49 613 188 743 b 813 364 672 743 813 613 b 431 -21 813 114 674 -21 b 49 364 194 -21 49 113 m 272 364 b 432 125 272 190 331 125 b 590 364 538 125 590 188 b 431 597 590 540 535 597 b 272 364 324 597 272 538 "},"п":{"ha":835,"x_min":0,"x_max":0,"o":"m 758 722 l 758 0 l 542 0 l 542 574 l 293 574 l 293 0 l 76 0 l 76 722 "},"р":{"ha":882,"x_min":0,"x_max":0,"o":"m 492 -21 b 293 63 413 -21 343 11 l 293 -250 l 76 -250 l 76 722 l 240 722 l 282 642 b 511 743 333 701 413 743 b 833 372 704 743 833 611 b 492 -21 833 124 685 -21 m 615 367 b 454 585 615 521 551 585 b 286 369 357 585 286 515 b 447 138 286 194 356 138 b 615 367 544 138 615 210 "},"с":{"ha":819,"x_min":0,"x_max":0,"o":"m 778 240 b 415 -21 743 92 631 -21 b 49 354 176 -21 49 114 b 419 743 49 599 192 743 b 776 500 611 743 747 644 l 549 500 b 426 596 532 558 482 596 b 274 350 335 596 274 528 b 418 126 274 194 339 126 b 550 240 482 126 526 161 "},"т":{"ha":679,"x_min":0,"x_max":0,"o":"m 14 722 l 665 722 l 665 574 l 447 574 l 447 0 l 231 0 l 231 574 l 14 574 "},"у":{"ha":793,"x_min":0,"x_max":0,"o":"m 786 722 l 528 -15 b 257 -271 463 -203 389 -271 b 140 -256 219 -271 179 -265 l 140 -104 b 229 -117 185 -115 211 -117 b 328 0 279 -117 310 -82 l 267 0 l 7 722 l 238 722 l 397 158 l 569 722 "},"ф":{"ha":1297,"x_min":0,"x_max":0,"o":"m 932 -21 b 757 51 865 -21 803 7 l 757 -250 l 540 -250 l 540 51 b 365 -21 493 7 432 -21 b 49 372 186 -21 49 124 b 357 743 49 611 178 743 b 540 671 432 743 494 715 l 540 1000 l 757 1000 l 757 671 b 940 743 803 715 865 743 b 1249 372 1119 743 1249 611 b 932 -21 1249 124 1111 -21 m 267 369 b 417 138 267 214 332 138 b 554 364 500 138 554 197 b 411 585 554 510 494 585 b 267 369 328 585 267 521 m 1031 369 b 886 585 1031 521 969 585 b 743 364 803 585 743 510 b 881 138 743 197 797 138 b 1031 369 965 138 1031 214 "},"х":{"ha":797,"x_min":0,"x_max":0,"o":"m 514 383 l 790 0 l 529 0 l 388 224 l 238 0 l 7 0 l 276 381 l 21 722 l 274 722 l 400 533 l 526 722 l 753 722 "},"ц":{"ha":849,"x_min":0,"x_max":0,"o":"m 758 150 l 856 150 l 856 -194 l 649 -194 l 649 0 l 76 0 l 76 722 l 293 722 l 293 149 l 542 149 l 542 722 l 758 722 "},"ч":{"ha":821,"x_min":0,"x_max":0,"o":"m 279 722 l 279 419 b 394 307 279 347 321 307 b 528 458 467 307 528 363 l 528 722 l 744 722 l 744 0 l 528 0 l 528 233 b 326 154 478 183 410 154 b 63 428 161 154 63 251 l 63 722 "},"ш":{"ha":1124,"x_min":0,"x_max":0,"o":"m 76 0 l 76 722 l 293 722 l 293 150 l 453 150 l 453 722 l 669 722 l 669 150 l 831 150 l 831 722 l 1047 722 l 1047 0 "},"щ":{"ha":1138,"x_min":0,"x_max":0,"o":"m 76 0 l 76 722 l 293 722 l 293 150 l 453 150 l 453 722 l 669 722 l 669 150 l 831 150 l 831 722 l 1047 722 l 1047 150 l 1144 150 l 1144 -194 l 938 -194 l 938 0 "},"ъ":{"ha":943,"x_min":0,"x_max":0,"o":"m 450 521 l 599 521 b 894 260 789 521 894 419 b 568 0 894 101 778 0 l 233 0 l 233 574 l 14 574 l 14 722 l 450 722 m 450 385 l 450 139 l 528 139 b 672 261 618 139 672 186 b 533 385 672 342 628 385 "},"ы":{"ha":1106,"x_min":0,"x_max":0,"o":"m 293 722 l 293 521 l 442 521 b 738 260 632 521 738 419 b 411 0 738 101 621 0 l 76 0 l 76 722 m 293 385 l 293 139 l 371 139 b 515 261 461 139 515 186 b 376 385 515 342 471 385 m 813 0 l 813 722 l 1029 722 l 1029 0 "},"ь":{"ha":786,"x_min":0,"x_max":0,"o":"m 293 722 l 293 521 l 442 521 b 738 260 632 521 738 419 b 411 0 738 101 621 0 l 76 0 l 76 722 m 293 385 l 293 139 l 371 139 b 515 261 461 139 515 186 b 376 385 515 342 471 385 "},"э":{"ha":819,"x_min":0,"x_max":0,"o":"m 271 240 b 406 126 294 161 342 126 b 544 308 479 126 535 182 l 342 308 l 342 435 l 540 435 b 400 596 525 554 475 596 b 269 500 339 596 285 556 l 43 500 b 406 743 71 635 201 743 b 771 360 632 743 771 601 b 407 -21 771 129 638 -21 b 42 240 189 -21 76 92 "},"ю":{"ha":1182,"x_min":0,"x_max":0,"o":"m 293 722 l 293 463 l 406 463 b 765 743 438 647 568 743 b 1133 364 993 743 1133 613 b 765 -21 1133 114 994 -21 b 399 314 558 -21 417 94 l 293 314 l 293 0 l 76 0 l 76 722 m 621 364 b 767 125 621 190 679 125 b 911 364 858 125 911 188 b 765 597 911 540 854 597 b 621 364 675 597 621 538 "},"я":{"ha":822,"x_min":0,"x_max":0,"o":"m 14 0 l 226 261 b 68 472 124 294 68 369 b 386 722 68 628 167 722 l 746 722 l 746 0 l 529 0 l 529 243 l 450 243 l 269 0 m 529 381 l 529 585 l 413 585 b 290 482 326 585 290 547 b 415 381 290 418 324 381 "},"ё":{"ha":836,"x_min":0,"x_max":0,"o":"m 786 210 b 429 -21 754 76 646 -21 b 49 361 204 -21 49 121 b 422 743 49 607 196 743 b 794 308 653 743 794 603 l 268 308 b 440 131 283 182 347 131 b 565 210 508 131 553 163 m 418 607 b 268 435 336 607 281 558 l 572 435 b 418 607 567 556 510 607 m 156 822 l 156 1000 l 361 1000 l 361 822 m 475 822 l 475 1000 l 681 1000 l 681 822 "},"ђ":{"ha":835,"x_min":0,"x_max":0,"o":"m 76 792 l 21 792 l 21 939 l 76 939 l 76 1000 l 293 1000 l 293 939 l 476 939 l 476 792 l 293 792 l 293 657 b 499 743 339 708 406 743 b 765 467 667 743 765 644 l 765 -40 b 525 -271 765 -179 682 -271 b 390 -250 482 -271 426 -262 l 390 -99 b 476 -111 421 -107 457 -111 b 549 -36 526 -111 549 -90 l 549 458 b 438 590 549 553 507 590 b 293 433 356 590 293 529 l 293 0 l 76 0 "},"ѓ":{"ha":586,"x_min":0,"x_max":0,"o":"m 572 722 l 572 574 l 293 574 l 293 0 l 76 0 l 76 722 m 347 1000 l 582 1000 l 375 810 l 207 810 "},"є":{"ha":819,"x_min":0,"x_max":0,"o":"m 778 240 b 415 -21 743 92 631 -21 b 49 354 176 -21 49 114 b 419 743 49 599 192 743 b 776 500 611 743 747 644 l 549 500 b 426 596 532 558 482 596 b 279 435 351 596 296 550 l 478 435 l 478 308 l 275 308 b 418 126 286 182 346 126 b 550 240 482 126 526 161 "},"ѕ":{"ha":768,"x_min":0,"x_max":0,"o":"m 379 126 b 500 194 465 126 500 151 b 328 285 500 244 460 253 b 65 518 189 318 65 365 b 385 743 65 653 172 743 b 717 522 571 743 692 660 l 499 522 b 379 596 489 567 449 596 b 282 536 310 596 282 574 b 432 451 282 496 310 482 b 719 224 564 418 719 383 b 381 -21 719 81 611 -21 b 35 204 183 -21 58 71 l 253 204 b 379 126 263 158 311 126 "},"і":{"ha":369,"x_min":0,"x_max":0,"o":"m 68 815 l 68 1000 l 301 1000 l 301 815 m 76 0 l 76 722 l 293 722 l 293 0 "},"ї":{"ha":369,"x_min":0,"x_max":0,"o":"m 76 0 l 76 722 l 293 722 l 293 0 m -78 822 l -78 1000 l 128 1000 l 128 822 m 242 822 l 242 1000 l 447 1000 l 447 822 "},"ј":{"ha":385,"x_min":0,"x_max":0,"o":"m -75 -99 b 11 -111 -44 -107 -8 -111 b 83 -36 61 -111 83 -90 l 83 722 l 300 722 l 300 -40 b 60 -271 300 -179 217 -271 b -75 -250 17 -271 -39 -262 m 75 815 l 75 1000 l 308 1000 l 308 815 "},"љ":{"ha":1267,"x_min":0,"x_max":0,"o":"m 774 722 l 774 521 l 922 521 b 1218 260 1113 521 1218 419 b 892 0 1218 101 1101 0 l 557 0 l 557 574 l 347 574 l 322 269 b 14 0 307 81 218 0 l 14 156 b 114 261 79 156 107 178 l 154 722 m 774 385 l 774 139 l 851 139 b 996 261 942 139 996 186 b 857 385 996 342 951 385 "},"њ":{"ha":1238,"x_min":0,"x_max":0,"o":"m 744 722 l 744 521 l 893 521 b 1189 260 1083 521 1189 419 b 863 0 1189 101 1072 0 l 528 0 l 528 314 l 293 314 l 293 0 l 76 0 l 76 722 l 293 722 l 293 463 l 528 463 l 528 722 m 744 385 l 744 139 l 822 139 b 967 261 913 139 967 186 b 828 385 967 342 922 385 "},"ћ":{"ha":835,"x_min":0,"x_max":0,"o":"m 76 792 l 21 792 l 21 939 l 76 939 l 76 1000 l 293 1000 l 293 939 l 476 939 l 476 792 l 293 792 l 293 657 b 499 743 339 708 406 743 b 765 467 667 743 765 644 l 765 0 l 549 0 l 549 458 b 438 590 549 553 507 590 b 293 435 356 590 293 531 l 293 0 l 76 0 "},"ќ":{"ha":813,"x_min":0,"x_max":0,"o":"m 76 0 l 76 722 l 293 722 l 293 450 l 339 450 l 560 722 l 790 722 l 522 392 l 826 0 l 564 0 l 336 301 l 293 301 l 293 0 m 432 1000 l 667 1000 l 460 810 l 292 810 "},"ў":{"ha":793,"x_min":0,"x_max":0,"o":"m 786 722 l 528 -15 b 257 -271 463 -203 389 -271 b 140 -256 219 -271 179 -265 l 140 -104 b 229 -117 185 -115 211 -117 b 328 0 279 -117 310 -82 l 267 0 l 7 722 l 238 722 l 397 158 l 569 722 m 400 797 b 171 958 279 799 183 842 l 343 958 b 400 914 347 925 374 914 b 457 958 426 914 453 925 l 629 958 b 400 797 611 842 510 797 "},"џ":{"ha":835,"x_min":0,"x_max":0,"o":"m 521 0 l 521 -194 l 314 -194 l 314 0 l 76 0 l 76 722 l 293 722 l 293 150 l 542 150 l 542 722 l 758 722 l 758 0 "},"Ѣ":{"ha":1114,"x_min":0,"x_max":0,"o":"m 272 825 l 7 825 l 7 1000 l 775 1000 l 775 825 l 506 825 l 506 665 l 633 665 b 1065 332 938 665 1065 557 b 642 0 1065 103 925 0 l 272 0 m 506 506 l 506 160 l 644 160 b 825 332 761 160 825 218 b 636 506 825 456 758 506 "},"ѣ":{"ha":786,"x_min":0,"x_max":0,"o":"m 293 658 l 293 521 l 442 521 b 738 260 632 521 738 419 b 411 0 738 101 621 0 l 76 0 l 76 658 l -33 658 l -33 808 l 76 808 l 76 924 l 293 924 l 293 808 l 442 808 l 442 658 m 293 385 l 293 139 l 371 139 b 515 261 461 139 515 186 b 376 385 515 342 471 385 "},"Ѳ":{"ha":1089,"x_min":0,"x_max":0,"o":"m 544 -21 b 56 499 300 -21 56 111 b 544 1021 56 879 299 1021 b 1033 500 790 1021 1033 888 b 544 -21 1033 119 789 -21 m 544 144 b 793 422 658 144 771 213 l 294 422 b 544 144 317 211 433 144 m 544 857 b 297 589 431 857 322 789 l 792 589 b 544 857 767 790 654 857 "},"ѳ":{"ha":861,"x_min":0,"x_max":0,"o":"m 49 364 b 431 743 49 613 188 743 b 813 364 672 743 813 613 b 431 -21 813 114 674 -21 b 49 364 194 -21 49 113 m 432 125 b 588 307 525 125 576 174 l 274 307 b 432 125 286 175 342 125 m 431 597 b 275 433 339 597 289 554 l 586 433 b 431 597 572 556 519 597 "},"Ѵ":{"ha":918,"x_min":0,"x_max":0,"o":"m 918 1000 l 599 0 l 319 0 l 0 1000 l 240 1000 l 465 182 l 693 1000 "},"ѵ":{"ha":786,"x_min":0,"x_max":0,"o":"m 779 722 l 529 0 l 256 0 l 7 722 l 242 722 l 400 160 l 556 722 "},"Ґ":{"ha":704,"x_min":0,"x_max":0,"o":"m 697 1189 l 697 825 l 317 825 l 317 0 l 83 0 l 83 1000 l 474 1000 l 474 1189 "},"ґ":{"ha":586,"x_min":0,"x_max":0,"o":"m 365 722 l 365 924 l 572 924 l 572 574 l 293 574 l 293 0 l 76 0 l 76 722 "},"Ғ":{"ha":746,"x_min":0,"x_max":0,"o":"m 739 825 l 358 825 l 358 585 l 569 585 l 569 424 l 358 424 l 358 0 l 125 0 l 125 424 l 0 424 l 0 585 l 125 585 l 125 1000 l 739 1000 "},"ғ":{"ha":586,"x_min":0,"x_max":0,"o":"m 572 722 l 572 574 l 293 574 l 293 444 l 446 444 l 446 296 l 293 296 l 293 0 l 76 0 l 76 296 l 8 296 l 8 444 l 76 444 l 76 722 "},"Җ":{"ha":1383,"x_min":0,"x_max":0,"o":"m 307 1000 l 515 585 l 568 585 l 568 1000 l 801 1000 l 801 585 l 854 585 l 1063 1000 l 1317 1000 l 1053 532 l 1268 169 l 1376 169 l 1376 -194 l 1153 -194 l 1153 0 l 1086 0 l 867 424 l 801 424 l 801 0 l 568 0 l 568 424 l 501 424 l 278 0 l 0 0 l 315 532 l 53 1000 "},"җ":{"ha":1147,"x_min":0,"x_max":0,"o":"m 257 722 l 411 450 l 458 450 l 458 722 l 675 722 l 675 450 l 722 450 l 876 722 l 1101 722 l 908 403 l 1050 150 l 1158 150 l 1158 -194 l 951 -194 l 951 0 l 886 0 l 733 301 l 675 301 l 675 0 l 458 0 l 458 301 l 399 301 l 244 0 l 0 0 l 224 403 l 32 722 "},"Ҙ":{"ha":860,"x_min":0,"x_max":0,"o":"m 622 -193 b 422 -358 622 -283 544 -358 b 208 -190 293 -358 221 -290 l 347 -190 b 418 -247 350 -215 364 -247 b 481 -197 460 -247 481 -224 b 367 -137 481 -158 443 -137 l 378 -18 b 35 253 178 -3 47 111 l 264 253 b 424 140 274 186 321 140 b 581 292 521 140 581 199 b 411 451 581 401 517 451 l 307 451 l 307 600 l 422 600 b 561 739 497 600 561 654 b 421 861 561 810 506 861 b 269 765 336 861 283 829 l 44 765 b 433 1021 68 918 207 1021 b 794 760 626 1021 794 929 b 593 536 794 653 719 560 b 818 288 725 517 818 411 b 503 -15 818 126 694 8 l 503 -56 b 622 -193 578 -72 622 -121 "},"ҙ":{"ha":772,"x_min":0,"x_max":0,"o":"m 599 -193 b 399 -358 599 -283 521 -358 b 185 -190 269 -358 197 -290 l 324 -190 b 394 -247 326 -215 340 -247 b 457 -197 436 -247 457 -224 b 343 -137 457 -158 419 -137 l 354 -18 b 42 236 179 -4 74 99 l 269 236 b 401 126 293 157 338 126 b 507 215 468 126 507 164 b 367 301 507 265 464 301 l 328 301 l 328 444 l 378 444 b 489 525 451 444 489 479 b 394 596 489 565 454 596 b 271 504 335 596 288 561 l 43 504 b 400 743 71 642 200 743 b 708 551 600 743 708 656 b 553 383 708 465 654 401 b 731 206 663 371 731 300 b 479 -15 731 96 644 6 l 479 -56 b 599 -193 554 -72 599 -121 "},"Қ":{"ha":1008,"x_min":0,"x_max":0,"o":"m 942 1000 l 606 532 l 871 169 l 1001 169 l 1001 -194 l 778 -194 l 778 0 l 706 0 l 407 424 l 317 424 l 317 0 l 83 0 l 83 1000 l 317 1000 l 317 585 l 400 585 l 686 1000 "},"қ":{"ha":829,"x_min":0,"x_max":0,"o":"m 76 0 l 76 722 l 293 722 l 293 450 l 339 450 l 560 722 l 790 722 l 522 392 l 710 150 l 847 150 l 847 -194 l 640 -194 l 640 0 l 564 0 l 336 301 l 293 301 l 293 0 "},"Ҝ":{"ha":1056,"x_min":0,"x_max":0,"o":"m 764 0 l 465 424 l 458 424 l 458 129 l 349 129 l 349 424 l 317 424 l 317 0 l 83 0 l 83 1000 l 317 1000 l 317 585 l 349 585 l 349 821 l 458 821 l 458 585 l 744 1000 l 1003 1000 l 667 532 l 1056 0 "},"ҝ":{"ha":849,"x_min":0,"x_max":0,"o":"m 76 0 l 76 722 l 293 722 l 293 450 l 319 450 l 319 557 l 421 557 l 421 465 l 599 722 l 826 722 l 599 392 l 863 0 l 603 0 l 421 282 l 421 74 l 319 74 l 319 301 l 293 301 l 293 0 "},"Ҡ":{"ha":1215,"x_min":0,"x_max":0,"o":"m 926 0 l 628 424 l 538 424 l 538 0 l 304 0 l 304 825 l 14 825 l 14 1000 l 538 1000 l 538 585 l 621 585 l 907 1000 l 1163 1000 l 826 532 l 1215 0 "},"ҡ":{"ha":971,"x_min":0,"x_max":0,"o":"m 451 450 l 497 450 l 718 722 l 949 722 l 681 392 l 985 0 l 722 0 l 494 301 l 451 301 l 451 0 l 235 0 l 235 574 l 14 574 l 14 722 l 451 722 "},"Ң":{"ha":1018,"x_min":0,"x_max":0,"o":"m 921 1000 l 921 169 l 1032 169 l 1032 -194 l 808 -194 l 808 0 l 689 0 l 689 422 l 317 422 l 317 0 l 83 0 l 83 1000 l 317 1000 l 317 589 l 689 589 l 689 1000 "},"ң":{"ha":849,"x_min":0,"x_max":0,"o":"m 293 722 l 293 463 l 542 463 l 542 722 l 758 722 l 758 150 l 856 150 l 856 -194 l 649 -194 l 649 0 l 542 0 l 542 314 l 293 314 l 293 0 l 76 0 l 76 722 "},"Ҫ":{"ha":1029,"x_min":0,"x_max":0,"o":"m 835 -190 b 611 -343 807 -279 738 -343 b 425 -185 501 -343 425 -283 b 529 -21 425 -118 465 -62 b 56 503 249 -21 56 154 b 532 1021 56 842 240 1021 b 974 674 764 1021 938 899 l 740 674 b 532 858 714 799 639 858 b 299 503 393 858 299 754 b 525 143 299 239 401 143 b 743 368 656 143 732 211 l 981 368 b 743 18 960 193 886 83 b 575 -154 624 -36 575 -93 b 636 -221 575 -196 604 -221 b 686 -190 663 -221 679 -210 l 835 -190 "},"ҫ":{"ha":819,"x_min":0,"x_max":0,"o":"m 699 -190 b 475 -343 671 -279 601 -343 b 289 -185 365 -343 289 -283 b 393 -21 289 -118 329 -62 b 49 354 168 -12 49 121 b 419 743 49 599 192 743 b 776 500 611 743 747 644 l 549 500 b 426 596 532 558 482 596 b 274 350 335 596 274 528 b 418 126 274 194 339 126 b 550 240 482 126 526 161 l 778 240 b 599 14 757 150 707 65 b 439 -154 525 -21 439 -74 b 500 -221 439 -196 468 -221 b 550 -190 526 -221 543 -210 l 699 -190 "},"Ү":{"ha":928,"x_min":0,"x_max":0,"o":"m 354 0 l 354 399 l 0 1000 l 250 1000 l 469 593 l 706 1000 l 928 1000 l 574 399 l 574 0 "},"ү":{"ha":786,"x_min":0,"x_max":0,"o":"m 285 -250 l 285 0 l 7 722 l 242 722 l 400 183 l 556 722 l 779 722 l 501 0 l 501 -250 "},"Ұ":{"ha":928,"x_min":0,"x_max":0,"o":"m 354 0 l 354 356 l 183 356 l 183 517 l 285 517 l 0 1000 l 250 1000 l 469 593 l 706 1000 l 928 1000 l 643 517 l 753 517 l 753 356 l 574 356 l 574 0 "},"ұ":{"ha":786,"x_min":0,"x_max":0,"o":"m 779 722 l 558 150 l 638 150 l 638 0 l 501 0 l 501 -250 l 285 -250 l 285 0 l 158 0 l 158 150 l 226 150 l 7 722 l 242 722 l 400 183 l 556 722 "},"Ҳ":{"ha":985,"x_min":0,"x_max":0,"o":"m 614 532 l 854 169 l 978 169 l 978 -194 l 754 -194 l 754 0 l 685 0 l 469 339 l 256 0 l 7 0 l 360 519 l 29 1000 l 306 1000 l 503 701 l 700 1000 l 939 1000 "},"ҳ":{"ha":810,"x_min":0,"x_max":0,"o":"m 514 383 l 682 150 l 832 150 l 832 -194 l 625 -194 l 625 0 l 529 0 l 388 224 l 238 0 l 7 0 l 276 381 l 21 722 l 274 722 l 400 533 l 526 722 l 753 722 "},"Ҹ":{"ha":928,"x_min":0,"x_max":0,"o":"m 844 1000 l 844 0 l 611 0 l 611 406 b 472 314 572 364 525 332 l 472 129 l 363 129 l 363 299 b 49 654 153 304 49 419 l 49 1000 l 282 1000 l 282 639 b 363 474 282 551 304 494 l 363 821 l 472 821 l 472 469 b 611 672 560 493 611 579 l 611 1000 "},"ҹ":{"ha":821,"x_min":0,"x_max":0,"o":"m 453 557 l 453 319 b 528 464 497 342 528 392 l 528 722 l 744 722 l 744 0 l 528 0 l 528 233 b 453 181 506 211 481 193 l 453 74 l 351 74 l 351 154 l 326 154 b 63 428 161 154 63 251 l 63 722 l 279 722 l 279 419 b 351 313 279 363 304 325 l 351 557 "},"Һ":{"ha":935,"x_min":0,"x_max":0,"o":"m 83 0 l 83 1000 l 317 1000 l 317 594 b 565 701 381 661 467 701 b 879 346 771 701 879 586 l 879 0 l 646 0 l 646 361 b 504 536 646 474 607 536 b 317 328 385 536 317 436 l 317 0 "},"һ":{"ha":835,"x_min":0,"x_max":0,"o":"m 76 1000 l 293 1000 l 293 574 b 499 660 339 625 406 660 b 765 383 667 660 765 561 l 765 0 l 549 0 l 549 375 b 438 507 549 469 507 507 b 293 349 356 507 293 444 l 293 0 l 76 0 "},"Ӏ":{"ha":400,"x_min":0,"x_max":0,"o":"m 317 1000 l 317 0 l 83 0 l 83 1000 "},"Ӌ":{"ha":942,"x_min":0,"x_max":0,"o":"m 844 1000 l 844 169 l 956 169 l 956 -194 l 732 -194 l 732 0 l 611 0 l 611 406 b 378 299 551 340 471 299 b 49 654 158 299 49 414 l 49 1000 l 282 1000 l 282 639 b 424 464 282 526 321 464 b 611 672 543 464 611 563 l 611 1000 "},"ӌ":{"ha":835,"x_min":0,"x_max":0,"o":"m 279 722 l 279 419 b 394 307 279 347 321 307 b 528 464 469 307 528 364 l 528 722 l 744 722 l 744 150 l 842 150 l 842 -194 l 635 -194 l 635 0 l 528 0 l 528 233 b 326 154 478 183 410 154 b 63 428 161 154 63 251 l 63 722 "},"ӏ":{"ha":369,"x_min":0,"x_max":0,"o":"m 293 0 l 76 0 l 76 1000 l 293 1000 "},"Ә":{"ha":1035,"x_min":0,"x_max":0,"o":"m 528 -21 b 56 540 239 -21 79 138 l 742 540 b 517 858 733 761 640 858 b 311 713 406 858 338 799 l 78 713 b 521 1021 133 914 285 1021 b 979 511 804 1021 979 832 b 528 -21 979 163 771 -21 m 525 143 b 733 379 632 143 717 215 l 314 379 b 525 143 325 215 396 143 "},"ә":{"ha":843,"x_min":0,"x_max":0,"o":"m 57 513 b 422 743 89 646 197 743 b 794 361 644 743 794 596 b 415 -21 794 118 642 -21 b 49 414 185 -21 49 119 l 574 414 b 411 592 560 539 503 592 b 278 513 336 592 290 560 m 419 115 b 575 288 500 115 561 163 l 269 288 b 419 115 275 167 328 115 "},"Ӣ":{"ha":1004,"x_min":0,"x_max":0,"o":"m 921 1000 l 921 0 l 689 0 l 689 615 l 317 89 l 317 0 l 83 0 l 83 1000 l 317 1000 l 317 385 l 689 913 l 689 1000 m 315 1108 l 315 1264 l 690 1264 l 690 1108 "},"ӣ":{"ha":833,"x_min":0,"x_max":0,"o":"m 76 0 l 76 722 l 293 722 l 293 322 l 542 675 l 542 722 l 757 722 l 757 0 l 542 0 l 542 399 l 293 43 l 293 0 m 232 844 l 232 1000 l 607 1000 l 607 844 "},"Ө":{"ha":1089,"x_min":0,"x_max":0,"o":"m 544 -21 b 56 499 300 -21 56 111 b 544 1021 56 879 299 1021 b 1033 500 790 1021 1033 888 b 544 -21 1033 119 789 -21 m 544 144 b 793 422 658 144 771 213 l 294 422 b 544 144 317 211 433 144 m 544 857 b 297 589 431 857 322 789 l 792 589 b 544 857 767 790 654 857 "},"ө":{"ha":861,"x_min":0,"x_max":0,"o":"m 49 364 b 431 743 49 613 188 743 b 813 364 672 743 813 613 b 431 -21 813 114 674 -21 b 49 364 194 -21 49 113 m 432 125 b 588 307 525 125 576 174 l 274 307 b 432 125 286 175 342 125 m 431 597 b 275 433 339 597 289 554 l 586 433 b 431 597 572 556 519 597 "},"Ӯ":{"ha":858,"x_min":0,"x_max":0,"o":"m 574 247 b 299 -21 507 72 446 -21 b 186 -6 261 -21 225 -15 l 186 160 b 271 147 231 149 253 147 b 363 247 313 147 344 175 l 283 247 l 0 1000 l 232 1000 l 433 408 l 633 1000 l 858 1000 m 253 1108 l 253 1264 l 628 1264 l 628 1108 "},"ӯ":{"ha":793,"x_min":0,"x_max":0,"o":"m 786 722 l 528 -15 b 257 -271 463 -203 389 -271 b 140 -256 219 -271 179 -265 l 140 -104 b 229 -117 185 -115 211 -117 b 328 0 279 -117 310 -82 l 267 0 l 7 722 l 238 722 l 397 158 l 569 722 m 214 844 l 214 1000 l 589 1000 l 589 844 "},"‒":{"ha":750,"x_min":0,"x_max":0,"o":"m 681 363 l 69 363 l 69 533 l 681 533 "},"–":{"ha":556,"x_min":0,"x_max":0,"o":"m 556 363 l 0 363 l 0 533 l 556 533 "},"—":{"ha":833,"x_min":0,"x_max":0,"o":"m 833 363 l 0 363 l 0 533 l 833 533 "},"―":{"ha":556,"x_min":0,"x_max":0,"o":"m 556 363 l 0 363 l 0 533 l 556 533 "},"‘":{"ha":375,"x_min":0,"x_max":0,"o":"m 51 704 b 325 1000 51 918 206 988 l 325 892 b 210 746 256 876 210 829 l 297 746 l 297 528 l 51 528 "},"’":{"ha":375,"x_min":0,"x_max":0,"o":"m 324 824 b 50 528 324 610 169 540 l 50 636 b 165 782 119 651 165 699 l 78 782 l 78 1000 l 324 1000 "},"‚":{"ha":375,"x_min":0,"x_max":0,"o":"m 324 42 b 50 -254 324 -172 169 -242 l 50 -146 b 165 0 119 -131 165 -83 l 78 0 l 78 218 l 324 218 "},"“":{"ha":704,"x_min":0,"x_max":0,"o":"m 381 704 b 654 1000 381 918 535 988 l 654 892 b 539 746 585 876 539 829 l 626 746 l 626 528 l 381 528 m 75 704 b 349 1000 75 918 229 988 l 349 892 b 233 746 279 876 233 829 l 321 746 l 321 528 l 75 528 "},"”":{"ha":704,"x_min":0,"x_max":0,"o":"m 629 824 b 356 528 629 610 475 540 l 356 636 b 471 782 425 651 471 699 l 383 782 l 383 1000 l 629 1000 m 324 824 b 50 528 324 610 169 540 l 50 636 b 165 782 119 651 165 699 l 78 782 l 78 1000 l 324 1000 "},"„":{"ha":681,"x_min":0,"x_max":0,"o":"m 629 42 b 356 -254 629 -172 475 -242 l 356 -146 b 471 0 425 -131 471 -83 l 383 0 l 383 218 l 629 218 m 324 42 b 50 -254 324 -172 169 -242 l 50 -146 b 165 0 119 -131 165 -83 l 78 0 l 78 218 l 324 218 "},"†":{"ha":833,"x_min":0,"x_max":0,"o":"m 506 1000 l 506 750 l 750 750 l 750 579 l 506 579 l 506 0 l 326 0 l 326 579 l 83 579 l 83 750 l 326 750 l 326 1000 "},"‡":{"ha":833,"x_min":0,"x_max":0,"o":"m 506 1000 l 506 793 l 750 793 l 750 622 l 506 622 l 506 378 l 750 378 l 750 207 l 506 207 l 506 0 l 326 0 l 326 207 l 83 207 l 83 378 l 326 378 l 326 622 l 83 622 l 83 793 l 326 793 l 326 1000 "},"•":{"ha":465,"x_min":0,"x_max":0,"o":"m 69 286 l 69 599 l 396 599 l 396 286 "},"…":{"ha":1204,"x_min":0,"x_max":0,"o":"m 479 0 l 479 218 l 725 218 l 725 0 m 78 0 l 78 218 l 324 218 l 324 0 m 881 0 l 881 218 l 1126 218 l 1126 0 "},"‰":{"ha":1651,"x_min":0,"x_max":0,"o":"m 404 0 l 232 0 l 707 972 l 879 972 m 514 758 b 271 524 514 615 426 524 b 28 758 115 524 28 615 b 271 993 28 901 115 993 b 514 758 426 993 514 901 m 367 758 b 271 885 367 843 332 885 b 175 758 210 885 175 843 b 271 632 175 674 210 632 b 367 758 332 632 367 674 m 1082 213 b 839 -22 1082 69 994 -22 b 596 213 683 -22 596 69 b 839 447 596 356 683 447 b 1082 213 994 447 1082 356 m 935 213 b 839 339 935 297 900 339 b 743 213 778 339 743 297 b 839 86 743 128 778 86 b 935 213 900 86 935 128 m 1624 213 b 1381 -22 1624 69 1536 -22 b 1138 213 1225 -22 1138 69 b 1381 447 1138 356 1225 447 b 1624 213 1536 447 1624 356 m 1476 213 b 1381 339 1476 297 1442 339 b 1285 213 1319 339 1285 297 b 1381 86 1285 128 1319 86 b 1476 213 1442 86 1476 128 "},"‹":{"ha":467,"x_min":0,"x_max":0,"o":"m 63 438 l 242 722 l 404 722 l 275 433 l 390 125 l 228 125 "},"›":{"ha":467,"x_min":0,"x_max":0,"o":"m 239 125 l 76 125 l 192 433 l 63 722 l 225 722 l 404 438 "},"⁄":{"ha":375,"x_min":0,"x_max":0,"o":"m -37 -125 l -203 -125 l 403 1097 l 569 1097 "},"⁴":{"ha":472,"x_min":0,"x_max":0,"o":"m 379 917 l 379 801 l 436 801 l 436 682 l 379 682 l 379 583 l 239 583 l 239 682 l 35 682 l 35 807 l 151 1111 l 299 1111 l 185 801 l 239 801 l 239 833 l 257 917 "},"€":{"ha":833,"x_min":0,"x_max":0,"o":"m 543 453 l 517 322 l 318 322 b 492 143 344 181 408 143 b 625 240 560 143 611 176 l 836 240 b 489 -21 813 88 681 -21 b 96 322 364 -21 156 43 l 6 322 l 32 453 l 81 453 b 79 489 79 475 79 476 b 81 531 79 503 79 506 l 6 531 l 32 661 l 94 661 b 478 993 140 882 282 993 b 828 728 669 993 804 881 l 617 728 b 486 831 603 792 554 831 b 322 661 406 831 349 783 l 586 661 l 560 531 l 307 531 b 306 489 306 506 306 503 b 307 453 306 476 306 475 "},"№":{"ha":1729,"x_min":0,"x_max":0,"o":"m 918 1000 l 918 0 l 678 0 l 283 710 l 283 0 l 83 0 l 83 1000 l 342 1000 l 719 317 l 719 1000 m 1071 718 b 1365 1021 1071 963 1224 1021 b 1660 718 1507 1021 1660 965 b 1365 410 1660 469 1507 410 b 1071 718 1222 410 1071 472 m 1271 718 b 1367 540 1271 594 1299 540 b 1461 718 1432 540 1461 594 b 1365 890 1461 842 1431 890 b 1271 718 1300 890 1271 842 m 1643 0 l 1089 0 l 1089 171 l 1643 171 "},"™":{"ha":1167,"x_min":0,"x_max":0,"o":"m 728 450 l 624 783 l 624 450 l 469 450 l 469 867 l 336 867 l 336 450 l 174 450 l 174 867 l 7 867 l 7 1000 l 694 1000 l 799 653 l 889 1000 l 1125 1000 l 1125 450 l 968 450 l 968 783 l 865 450 "},"Ω":{"ha":1089,"x_min":0,"x_max":0,"o":"m 635 168 b 797 497 706 171 797 246 b 544 857 797 768 669 857 b 292 496 415 857 292 767 b 460 168 292 239 392 168 l 460 0 l 99 0 l 99 168 l 186 168 b 56 510 113 250 56 364 b 544 1021 56 876 299 1021 b 1033 511 790 1021 1033 885 b 899 168 1033 367 974 251 l 992 168 l 992 0 l 629 0 l 629 168 "},"℮":{"ha":1313,"x_min":0,"x_max":0,"o":"m 303 471 l 303 168 b 657 33 361 81 526 33 b 1018 169 788 33 940 79 l 1099 169 b 656 -21 997 51 849 -21 b 97 482 338 -21 97 190 b 656 993 97 774 349 993 b 1215 471 953 993 1215 781 m 1010 797 b 657 939 932 882 819 939 b 303 799 494 939 374 885 l 303 526 l 1010 526 "},"⅓":{"ha":1222,"x_min":0,"x_max":0,"o":"m 708 389 b 904 529 719 465 793 529 b 1081 383 996 529 1081 485 b 989 269 1081 335 1046 288 b 1101 142 1042 258 1101 229 b 901 -21 1101 44 1017 -21 b 703 129 792 -21 713 39 l 853 129 b 900 89 857 104 876 89 b 947 149 933 89 947 113 b 874 213 947 193 924 213 l 842 213 l 842 319 l 881 319 b 933 375 914 319 933 343 b 892 418 933 397 922 418 b 850 389 871 418 857 408 m 394 -125 l 229 -125 l 835 1097 l 1001 1097 m 121 444 l 121 567 l 229 567 l 229 840 l 121 778 l 121 910 l 224 972 l 374 972 l 374 567 l 468 567 l 468 444 "},"⅔":{"ha":1222,"x_min":0,"x_max":0,"o":"m 413 -125 l 247 -125 l 853 1097 l 1019 1097 m 118 833 b 324 993 143 942 213 993 b 508 829 436 993 508 928 b 378 622 508 744 439 681 l 322 569 l 506 569 l 506 451 l 140 451 l 140 569 l 276 703 b 360 832 319 744 360 782 b 315 882 360 864 343 882 b 261 833 286 882 269 865 m 711 389 b 907 529 722 465 796 529 b 1083 383 999 529 1083 485 b 992 269 1083 335 1049 288 b 1104 142 1044 258 1104 229 b 904 -21 1104 44 1019 -21 b 706 129 794 -21 715 39 l 856 129 b 903 89 860 104 879 89 b 950 149 936 89 950 113 b 876 213 950 193 926 213 l 844 213 l 844 319 l 883 319 b 936 375 917 319 936 343 b 894 418 936 397 925 418 b 853 389 874 418 860 408 "},"←":{"ha":833,"x_min":0,"x_max":0,"o":"m 308 592 l 806 592 l 806 428 l 308 428 l 518 158 l 300 158 l 28 510 l 300 861 l 518 861 "},"↑":{"ha":833,"x_min":0,"x_max":0,"o":"m 506 619 l 506 121 l 328 121 l 328 619 l 65 415 l 65 626 l 417 899 l 768 626 l 768 415 "},"→":{"ha":833,"x_min":0,"x_max":0,"o":"m 525 428 l 28 428 l 28 592 l 525 592 l 315 861 l 533 861 l 806 510 l 533 158 l 315 158 "},"↓":{"ha":833,"x_min":0,"x_max":0,"o":"m 328 400 l 328 899 l 506 899 l 506 400 l 768 604 l 768 393 l 417 121 l 65 393 l 65 604 "},"↔":{"ha":1250,"x_min":0,"x_max":0,"o":"m 308 592 l 942 592 l 732 861 l 950 861 l 1222 510 l 950 158 l 732 158 l 942 428 l 308 428 l 518 158 l 300 158 l 28 510 l 300 861 l 518 861 "},"↕":{"ha":833,"x_min":0,"x_max":0,"o":"m 506 828 l 506 192 l 768 396 l 768 185 l 417 -87 l 65 185 l 65 396 l 328 192 l 328 828 l 65 624 l 65 835 l 417 1107 l 768 835 l 768 624 "},"↖":{"ha":833,"x_min":0,"x_max":0,"o":"m 400 654 l 756 299 l 628 171 l 283 515 l 243 193 l 86 343 l 142 785 l 583 840 l 732 696 "},"↗":{"ha":833,"x_min":0,"x_max":0,"o":"m 558 515 l 214 171 l 86 299 l 442 654 l 110 696 l 258 840 l 700 785 l 756 343 l 599 193 "},"↘":{"ha":833,"x_min":0,"x_max":0,"o":"m 442 356 l 86 713 l 214 840 l 558 496 l 599 818 l 756 668 l 700 226 l 258 171 l 110 315 "},"↙":{"ha":833,"x_min":0,"x_max":0,"o":"m 283 496 l 628 840 l 756 713 l 400 357 l 732 315 l 583 171 l 142 226 l 86 668 l 243 818 "},"∂":{"ha":819,"x_min":0,"x_max":0,"o":"m 139 1046 b 771 454 435 1008 771 843 b 418 -21 771 144 650 -21 b 49 331 243 -21 49 63 b 356 671 49 538 163 671 b 531 596 422 671 500 640 b 139 903 493 811 315 868 m 407 514 b 269 324 311 514 269 436 b 415 136 269 201 319 136 b 550 354 501 136 550 215 b 407 514 550 456 494 514 "},"∆":{"ha":974,"x_min":0,"x_max":0,"o":"m 0 0 l 356 1000 l 615 1000 l 974 0 m 278 153 l 681 153 l 481 808 "},"∏":{"ha":833,"x_min":0,"x_max":0,"o":"m 813 803 l 743 803 l 743 0 l 526 0 l 526 803 l 308 803 l 308 0 l 90 0 l 90 803 l 21 803 l 21 972 l 813 972 "},"∑":{"ha":833,"x_min":0,"x_max":0,"o":"m 263 839 l 547 382 l 263 -78 l 799 -78 l 799 -236 l 35 -236 l 35 -78 l 319 382 l 35 839 l 35 1000 l 799 1000 l 799 839 "},"−":{"ha":833,"x_min":0,"x_max":0,"o":"m 722 363 l 111 363 l 111 533 l 722 533 "},"∕":{"ha":375,"x_min":0,"x_max":0,"o":"m -37 -125 l -203 -125 l 403 1097 l 569 1097 "},"∙":{"ha":375,"x_min":0,"x_max":0,"o":"m 78 344 l 78 542 l 297 542 l 297 344 "},"√":{"ha":861,"x_min":0,"x_max":0,"o":"m 242 0 l -14 639 l 201 639 l 353 228 l 625 1114 l 972 1114 l 972 958 l 794 958 l 465 0 "},"∞":{"ha":1000,"x_min":0,"x_max":0,"o":"m 286 740 b 497 621 369 740 444 694 b 718 740 551 700 633 740 b 986 486 903 740 986 626 b 714 232 986 346 903 232 b 503 350 629 232 556 276 b 282 232 447 272 365 232 b 14 486 97 232 14 346 b 286 740 14 626 97 740 m 703 381 b 792 486 756 381 792 417 b 707 592 792 556 753 592 b 579 485 660 592 607 567 b 703 381 586 429 642 381 m 297 592 b 208 486 244 592 208 556 b 293 381 208 417 247 381 b 419 488 340 381 392 406 b 297 592 413 543 358 592 "},"∫":{"ha":833,"x_min":0,"x_max":0,"o":"m 121 -72 b 225 -78 165 -76 188 -78 b 308 1 278 -78 308 -57 l 308 1046 b 551 1292 308 1224 413 1292 b 713 1285 633 1292 665 1289 l 713 1128 b 608 1133 668 1132 646 1133 b 525 1054 556 1133 525 1113 l 525 10 b 282 -236 525 -168 421 -236 b 121 -229 200 -236 168 -233 "},"≈":{"ha":833,"x_min":0,"x_max":0,"o":"m 542 474 b 282 550 428 474 369 550 b 111 481 213 550 151 515 l 111 657 b 292 713 146 685 214 713 b 551 636 406 713 464 636 b 722 706 621 636 682 671 l 722 529 b 542 474 688 501 619 474 m 542 190 b 282 267 428 190 369 267 b 111 197 213 267 151 232 l 111 374 b 292 429 146 401 214 429 b 551 353 406 429 464 353 b 722 422 621 353 682 388 l 722 246 b 542 190 688 218 619 190 "},"≠":{"ha":833,"x_min":0,"x_max":0,"o":"m 722 219 l 375 219 l 279 56 l 100 56 l 196 219 l 111 219 l 111 390 l 296 390 l 363 504 l 111 504 l 111 675 l 461 675 l 554 833 l 733 833 l 640 675 l 722 675 l 722 504 l 542 504 l 475 390 l 722 390 "},"≤":{"ha":833,"x_min":0,"x_max":0,"o":"m 111 572 l 722 822 l 722 624 l 344 500 l 344 490 l 722 400 l 722 201 l 111 410 m 722 0 l 111 0 l 111 171 l 722 171 "},"≥":{"ha":833,"x_min":0,"x_max":0,"o":"m 722 410 l 111 201 l 111 400 l 489 490 l 489 500 l 111 624 l 111 822 l 722 572 m 111 171 l 722 171 l 722 0 l 111 0 "},"⋆":{"ha":833,"x_min":0,"x_max":0,"o":"m 417 1025 l 599 850 l 851 815 l 828 563 l 958 344 l 746 206 l 657 -31 l 417 47 l 175 -31 l 86 206 l -125 344 l 4 563 l -18 815 l 233 850 "},"▯":{"ha":835,"x_min":0,"x_max":0,"o":"m 76 1000 l 758 1000 l 758 0 l 76 0 m 588 171 l 588 829 l 247 829 l 247 171 "},"◊":{"ha":833,"x_min":0,"x_max":0,"o":"m 508 0 l 306 0 l 56 486 l 307 972 l 508 972 l 776 486 m 410 785 l 260 486 l 410 188 l 572 486 "},"ﬀ":{"ha":968,"x_min":0,"x_max":0,"o":"m 794 572 l 794 0 l 578 0 l 578 572 l 347 572 l 347 0 l 131 0 l 131 572 l 21 572 l 21 722 l 131 722 l 131 761 b 393 1007 131 939 243 1007 b 643 964 476 1007 550 997 b 813 1021 683 1003 743 1021 b 982 997 882 1021 939 1008 l 982 844 b 869 863 938 856 896 863 b 794 783 817 863 794 842 l 794 722 l 946 722 l 946 572 m 578 775 b 581 831 578 794 579 813 b 450 849 536 840 488 849 b 347 769 372 849 347 828 l 347 722 l 578 722 l 578 775 "},"ﬁ":{"ha":869,"x_min":0,"x_max":0,"o":"m 639 843 b 474 863 594 854 519 863 b 347 769 374 863 347 833 l 347 722 l 793 722 l 793 0 l 576 0 l 576 572 l 347 572 l 347 0 l 131 0 l 131 572 l 21 572 l 21 722 l 131 722 l 131 761 b 417 1021 131 939 240 1021 b 639 996 511 1021 596 1007 "},"ﬂ":{"ha":883,"x_min":0,"x_max":0,"o":"m 590 0 l 590 851 b 464 863 550 858 497 863 b 347 769 372 863 347 828 l 347 721 l 485 721 l 485 571 l 347 571 l 347 0 l 131 0 l 131 571 l 21 571 l 21 721 l 131 721 l 131 761 b 407 1021 131 939 243 1021 b 594 1004 482 1021 550 1013 l 807 1013 l 807 0 "},"ﬃ":{"ha":1317,"x_min":0,"x_max":0,"o":"m 864 1021 b 1086 996 958 1021 1043 1007 l 1086 843 b 921 863 1042 854 967 863 b 794 769 815 863 794 828 l 794 722 l 1240 722 l 1240 0 l 1024 0 l 1024 572 l 794 572 l 794 0 l 578 0 l 578 572 l 347 572 l 347 0 l 131 0 l 131 572 l 21 572 l 21 722 l 131 722 l 131 761 b 389 1007 131 925 225 1007 b 657 960 476 1007 558 997 b 864 1021 706 1000 774 1021 m 347 722 l 578 722 l 578 761 b 583 829 578 786 579 808 b 446 849 539 840 483 849 b 347 769 368 849 347 828 "},"ﬄ":{"ha":1331,"x_min":0,"x_max":0,"o":"m 854 1021 b 1042 1004 929 1021 997 1013 l 1254 1013 l 1254 0 l 1038 0 l 1038 851 b 911 863 997 858 944 863 b 794 779 838 863 794 838 l 794 722 l 946 722 l 946 572 l 794 572 l 794 0 l 578 0 l 578 572 l 347 572 l 347 0 l 131 0 l 131 572 l 21 572 l 21 722 l 131 722 l 131 761 b 393 1007 131 939 243 1007 b 643 964 476 1007 550 997 b 854 1021 683 1003 743 1021 m 578 775 b 581 831 578 794 579 813 b 450 849 536 840 488 849 b 347 769 372 849 347 828 l 347 722 l 578 722 l 578 775 "}}}
